G04*
G04 #@! TF.GenerationSoftware,Altium Limited,Altium Designer,24.10.1 (45)*
G04*
G04 Layer_Physical_Order=3*
G04 Layer_Color=16440176*
%FSLAX25Y25*%
%MOIN*%
G70*
G04*
G04 #@! TF.SameCoordinates,2527C48D-E229-4BF9-9412-56DB5BB32D7D*
G04*
G04*
G04 #@! TF.FilePolarity,Positive*
G04*
G01*
G75*
%ADD11C,0.01000*%
%ADD12C,0.01181*%
%ADD71C,0.07874*%
%ADD72C,0.00669*%
%ADD74C,0.03150*%
%ADD79C,0.02756*%
%ADD80R,0.05906X0.05906*%
%ADD81C,0.05906*%
%ADD82C,0.11000*%
%ADD83C,0.04331*%
%ADD84C,0.07874*%
%ADD85C,0.05000*%
%ADD86C,0.02400*%
D11*
X60599Y-2625D02*
X102600D01*
X5599Y-57625D02*
X60599Y-2625D01*
X9375Y-47625D02*
X54599Y-2400D01*
Y3375D01*
X6600Y-47625D02*
X9375D01*
D12*
X90600Y-34876D02*
X125600Y-69876D01*
Y-74184D02*
Y-69876D01*
X90600Y-34876D02*
Y-31625D01*
X41000Y-62000D02*
X63224D01*
X83697Y-41527D01*
X104000Y7000D02*
Y13000D01*
X107428Y16428D01*
X117000D01*
X83697Y-41527D02*
Y-30722D01*
X83600Y-30625D02*
X83697Y-30722D01*
D71*
X121778Y-151446D02*
X126600Y-146625D01*
X19600Y-151446D02*
X121778D01*
D72*
X40300Y-45700D02*
Y-30924D01*
X40000Y-46000D02*
X40300Y-45700D01*
Y-30924D02*
X40600Y-30625D01*
X102600D02*
X131599D01*
X163076Y-62101D01*
Y-71751D02*
Y-62101D01*
D74*
X59600Y-101929D02*
Y-86625D01*
Y-101929D02*
X59825Y-102155D01*
D79*
X126750Y450D02*
D03*
X1076Y-71751D02*
D03*
X35249Y-1076D02*
D03*
X163076Y-71751D02*
D03*
X113064Y-9386D02*
D03*
X40000Y-46000D02*
D03*
X41000Y-62000D02*
D03*
X104000Y7000D02*
D03*
X117000Y16428D02*
D03*
X-46708Y-54624D02*
D03*
Y-46625D02*
D03*
X40600Y-30625D02*
D03*
X102600Y-2625D02*
D03*
X5599Y-57625D02*
D03*
X54599Y3375D02*
D03*
X6600Y-47625D02*
D03*
X83600Y-30625D02*
D03*
X125600Y-74184D02*
D03*
X102600Y-30625D02*
D03*
X90600Y-31625D02*
D03*
X99599Y2375D02*
D03*
Y10375D02*
D03*
Y18375D02*
D03*
X95034Y23420D02*
D03*
X84034D02*
D03*
X78034D02*
D03*
X89034D02*
D03*
D80*
X121599Y45375D02*
D03*
X173000D02*
D03*
X136600Y-146625D02*
D03*
D81*
X131599Y45375D02*
D03*
X141600D02*
D03*
X151600D02*
D03*
X161600D02*
D03*
X183000D02*
D03*
X126600Y-146625D02*
D03*
D82*
X110001Y-137811D02*
D03*
X90001D02*
D03*
D83*
X-5815Y6062D02*
D03*
X155816Y6068D02*
D03*
X68187Y-104658D02*
D03*
X61905Y-78276D02*
D03*
X84310Y-55627D02*
D03*
X71048Y-42401D02*
D03*
X90661Y-42436D02*
D03*
X114147Y-52277D02*
D03*
X68606Y-143779D02*
D03*
X96733Y-114953D02*
D03*
X82899Y-85899D02*
D03*
X89000Y-76000D02*
D03*
X112000Y-114000D02*
D03*
X111000Y-81000D02*
D03*
X19600Y-151446D02*
D03*
X-43945Y-64045D02*
D03*
X-41550Y-37625D02*
D03*
X52600Y-94625D02*
D03*
X59825Y-102155D02*
D03*
X59600Y-86625D02*
D03*
X103430Y-66456D02*
D03*
X155952Y-113097D02*
D03*
X-5916Y-113182D02*
D03*
D84*
X30882Y-141604D02*
D03*
X54405Y-141159D02*
D03*
D85*
X56207Y29348D02*
D03*
X48231Y29276D02*
D03*
D86*
X74068Y-73741D02*
D03*
Y-77678D02*
D03*
X70131D02*
D03*
Y-73741D02*
D03*
M02*
