G04*
G04 #@! TF.GenerationSoftware,Altium Limited,Altium Designer,24.10.1 (45)*
G04*
G04 Layer_Color=65535*
%FSLAX25Y25*%
%MOIN*%
G70*
G04*
G04 #@! TF.SameCoordinates,2527C48D-E229-4BF9-9412-56DB5BB32D7D*
G04*
G04*
G04 #@! TF.FilePolarity,Positive*
G04*
G01*
G75*
%ADD10C,0.00700*%
%ADD11C,0.01000*%
%ADD12C,0.01181*%
%ADD13C,0.00600*%
%ADD14C,0.00787*%
%ADD15C,0.00591*%
%ADD16C,0.00598*%
%ADD17C,0.00100*%
%ADD18R,0.01969X0.12205*%
%ADD19R,0.09843X0.01969*%
%ADD20R,0.01969X0.07874*%
%ADD21R,0.07874X0.01969*%
%ADD22R,0.01969X0.13780*%
G36*
X3528Y-117805D02*
X-3450D01*
Y-117205D01*
X3528D01*
Y-117805D01*
D02*
G37*
G36*
X58415Y-126256D02*
X60623D01*
Y-127036D01*
X58415D01*
Y-128205D01*
X57635D01*
Y-127036D01*
X55426D01*
Y-126256D01*
X57635D01*
Y-125087D01*
X58415D01*
Y-126256D01*
D02*
G37*
G36*
Y-149512D02*
X57635D01*
Y-146394D01*
X58415D01*
Y-149512D01*
D02*
G37*
G36*
X3493Y10205D02*
X-3485D01*
Y10806D01*
X3493D01*
Y10205D01*
D02*
G37*
G36*
X600Y2392D02*
X1185D01*
Y621D01*
X3153D01*
Y-560D01*
X600D01*
Y-3069D01*
X-581D01*
Y-1100D01*
X-2353D01*
Y-560D01*
X-3146D01*
Y621D01*
X-2353D01*
Y1262D01*
X-1177D01*
Y2392D01*
X-581D01*
Y3231D01*
X600D01*
Y2392D01*
D02*
G37*
G36*
X3069Y-106439D02*
X3188D01*
Y-107620D01*
X1220D01*
Y-109391D01*
X-1143D01*
Y-109353D01*
X-1262D01*
Y-107620D01*
X-3111D01*
Y-107581D01*
X-3231D01*
Y-106400D01*
X3069D01*
Y-106439D01*
D02*
G37*
G36*
X165489Y10140D02*
X158510D01*
Y10740D01*
X165489D01*
Y10140D01*
D02*
G37*
G36*
X162581Y2327D02*
X163181D01*
Y555D01*
X165149D01*
Y-626D01*
X164353D01*
Y-1888D01*
X162581D01*
Y-3856D01*
X161400D01*
Y-626D01*
X158850D01*
Y555D01*
X160819D01*
Y2327D01*
X161400D01*
Y2443D01*
X162581D01*
Y2327D01*
D02*
G37*
G36*
X90505Y-66037D02*
X87387D01*
Y-65258D01*
X90505D01*
Y-66037D01*
D02*
G37*
G36*
X110643Y-65258D02*
X111812D01*
Y-66037D01*
X110643D01*
Y-68246D01*
X109863D01*
Y-66037D01*
X108694D01*
Y-65258D01*
X109863D01*
Y-63049D01*
X110643D01*
Y-65258D01*
D02*
G37*
G36*
X165068Y-106415D02*
X165160D01*
Y-107597D01*
X163191D01*
Y-109368D01*
X160829D01*
Y-109353D01*
X160738D01*
Y-107597D01*
X158861D01*
Y-107581D01*
X158769D01*
Y-106400D01*
X165068D01*
Y-106415D01*
D02*
G37*
G36*
X165499Y-117781D02*
X158521D01*
Y-117181D01*
X165499D01*
Y-117781D01*
D02*
G37*
G36*
X102651Y-135561D02*
X101151D01*
Y-138061D01*
X99151D01*
Y-135561D01*
X97651D01*
X100151Y-133061D01*
X102651Y-135561D01*
D02*
G37*
D10*
X93884Y-133188D02*
G03*
X94012Y-133299I-3883J-4623D01*
G01*
X110801Y-125011D02*
G03*
X110801Y-125011I-640J0D01*
G01*
X90641D02*
G03*
X90641Y-125011I-640J0D01*
G01*
X113875Y-133181D02*
G03*
X114012Y-133299I-3874J-4630D01*
G01*
X80001Y-151911D02*
X120001D01*
X100201Y-143011D02*
Y-134111D01*
X79401Y-126411D02*
Y-123911D01*
X80001Y-136911D02*
Y-121911D01*
X120001D01*
Y-123711D02*
Y-121911D01*
X119501Y-123711D02*
X120001D01*
X119501Y-126811D02*
Y-123711D01*
Y-126811D02*
X120001D01*
Y-151911D02*
Y-126811D01*
X80001Y-151911D02*
Y-136911D01*
X80301Y-129211D02*
X120001D01*
D11*
X55899Y33554D02*
G03*
X55899Y33554I-984J0D01*
G01*
X-38401Y-37625D02*
G03*
X-38401Y-37625I-3150J0D01*
G01*
X125805Y-60694D02*
G03*
X125755Y-60694I-25J3112D01*
G01*
X117076Y-45769D02*
G03*
X117076Y-45769I-1114J0D01*
G01*
X98992Y-112204D02*
G03*
X97772Y-113424I0J-1220D01*
G01*
Y-116574D02*
G03*
X98992Y-117794I1220J0D01*
G01*
X107497Y-117795D02*
G03*
X108717Y-116576I0J1220D01*
G01*
Y-113426D02*
G03*
X107497Y-112206I-1220J0D01*
G01*
X-38761Y-63625D02*
G03*
X-38761Y-63625I-3150J0D01*
G01*
X-37659Y-57420D02*
G03*
X-36439Y-56200I-0J1220D01*
G01*
Y-53051D02*
G03*
X-37659Y-51831I-1220J0D01*
G01*
X-46164Y-51829D02*
G03*
X-47384Y-53049I0J-1220D01*
G01*
Y-56198D02*
G03*
X-46164Y-57418I1220J-0D01*
G01*
X-37543Y-49420D02*
G03*
X-36323Y-48200I-0J1220D01*
G01*
Y-45051D02*
G03*
X-37543Y-43831I-1220J0D01*
G01*
X-46048Y-43829D02*
G03*
X-47267Y-45049I0J-1220D01*
G01*
Y-48199D02*
G03*
X-46048Y-49419I1220J-0D01*
G01*
X77814Y-103800D02*
G03*
X79033Y-102580I0J1220D01*
G01*
X73444D02*
G03*
X74664Y-103800I1220J0D01*
G01*
X74666Y-92855D02*
G03*
X73446Y-94075I0J-1220D01*
G01*
X79035D02*
G03*
X77815Y-92855I-1220J-0D01*
G01*
X66666Y-92855D02*
G03*
X65446Y-94074I-0J-1220D01*
G01*
X71035D02*
G03*
X69815Y-92855I-1220J0D01*
G01*
X69814Y-103799D02*
G03*
X71033Y-102580I0J1220D01*
G01*
X65444D02*
G03*
X66664Y-103799I1220J0D01*
G01*
X49836Y16594D02*
G03*
X51056Y17813I0J1220D01*
G01*
X45467D02*
G03*
X46686Y16594I1220J0D01*
G01*
X46688Y27538D02*
G03*
X45468Y26319I0J-1220D01*
G01*
X51058D02*
G03*
X49838Y27538I-1220J-0D01*
G01*
X54688Y27539D02*
G03*
X53468Y26319I-0J-1220D01*
G01*
X59057D02*
G03*
X57837Y27539I-1220J0D01*
G01*
X57836Y16594D02*
G03*
X59056Y17814I0J1220D01*
G01*
X53466D02*
G03*
X54686Y16594I1220J0D01*
G01*
X78779Y-54665D02*
G03*
X79999Y-53446I0J1220D01*
G01*
X74410D02*
G03*
X75629Y-54665I1220J0D01*
G01*
X75631Y-43721D02*
G03*
X74411Y-44941I0J-1220D01*
G01*
X80001D02*
G03*
X78781Y-43721I-1220J-0D01*
G01*
X172574Y-112228D02*
G03*
X173794Y-111008I0J1220D01*
G01*
X168205D02*
G03*
X169424Y-112228I1220J0D01*
G01*
X169426Y-101283D02*
G03*
X168206Y-102503I0J-1220D01*
G01*
X173796D02*
G03*
X172576Y-101283I-1220J-0D01*
G01*
X169426Y5472D02*
G03*
X168206Y4253I-0J-1220D01*
G01*
X173796D02*
G03*
X172576Y5472I-1220J0D01*
G01*
X172574Y-5472D02*
G03*
X173794Y-4253I0J1220D01*
G01*
X168204D02*
G03*
X169424Y-5472I1220J0D01*
G01*
X10574Y-113228D02*
G03*
X11794Y-112008I0J1220D01*
G01*
X6205D02*
G03*
X7424Y-113228I1220J0D01*
G01*
X7426Y-102283D02*
G03*
X6206Y-103503I0J-1220D01*
G01*
X11796D02*
G03*
X10576Y-102283I-1220J-0D01*
G01*
X7426Y5228D02*
G03*
X6206Y4008I-0J-1220D01*
G01*
X11795D02*
G03*
X10576Y5228I-1220J0D01*
G01*
X10574Y-5717D02*
G03*
X11794Y-4497I0J1220D01*
G01*
X6204D02*
G03*
X7424Y-5717I1220J0D01*
G01*
X55238Y-79833D02*
G03*
X56458Y-81052I1220J0D01*
G01*
X59607D02*
G03*
X60827Y-79833I0J1220D01*
G01*
X60829Y-71327D02*
G03*
X59609Y-70108I-1220J0D01*
G01*
X56460D02*
G03*
X55240Y-71327I-0J-1220D01*
G01*
X60821Y-11918D02*
X112789D01*
X60821D02*
Y53436D01*
X112789Y-11918D02*
Y53436D01*
X60821D02*
X112789D01*
X98843Y-87189D02*
X110654D01*
Y-88641D02*
Y-87189D01*
Y-110811D02*
Y-109359D01*
X87032Y-110811D02*
X110654D01*
X87032D02*
Y-109359D01*
Y-88641D02*
Y-87189D01*
X98843D01*
X-47456Y-32703D02*
X-35645Y-32704D01*
X-47456Y-42546D02*
X-35645Y-42546D01*
X-47456Y-33368D02*
Y-32703D01*
X-35645D01*
Y-33368D02*
Y-32703D01*
Y-42546D02*
Y-41881D01*
X-47456Y-42546D02*
X-35645D01*
X-47456D02*
Y-41904D01*
X130652Y-66438D02*
X134663D01*
X116947D02*
X120958D01*
X116947Y-48722D02*
X117808D01*
X124746D02*
X126864D01*
X133802D02*
X134663D01*
X116947Y-66438D02*
Y-48722D01*
X134663Y-66438D02*
Y-48722D01*
X125805Y-60533D02*
Y-54627D01*
X132695D02*
X134663D01*
X132695Y-61517D02*
Y-54627D01*
Y-61517D02*
X134663D01*
X116947D02*
X118915D01*
Y-54627D01*
X116947D02*
X118915D01*
X108717Y-116576D02*
Y-113426D01*
X97772Y-116574D02*
Y-113424D01*
X104348Y-112206D02*
X107497D01*
X98992Y-112204D02*
X102141D01*
X104348Y-117795D02*
X107497D01*
X98992Y-117794D02*
X102141D01*
X-47817Y-68546D02*
Y-67904D01*
Y-68546D02*
X-36006D01*
Y-67881D01*
Y-59368D02*
Y-58703D01*
X-47817D02*
X-36006D01*
X-47817Y-59368D02*
Y-58703D01*
Y-68546D02*
X-36006Y-68546D01*
X-47817Y-58703D02*
X-36006Y-58703D01*
X-47384Y-56198D02*
Y-53049D01*
X-36439Y-56200D02*
Y-53051D01*
X-46164Y-57418D02*
X-43015D01*
X-40808Y-57420D02*
X-37659D01*
X-46164Y-51829D02*
X-43015D01*
X-40808Y-51831D02*
X-37659D01*
X-47267Y-48199D02*
Y-45049D01*
X-36323Y-48201D02*
Y-45051D01*
X-46048Y-49419D02*
X-42898D01*
X-40692Y-49420D02*
X-37542D01*
X-46048Y-43829D02*
X-42898D01*
X-40692Y-43831D02*
X-37542D01*
X73446Y-97224D02*
Y-94075D01*
X73444Y-102580D02*
Y-99431D01*
X79035Y-97224D02*
Y-94075D01*
X79033Y-102580D02*
Y-99431D01*
X74666Y-92855D02*
X77816D01*
X74664Y-103800D02*
X77814D01*
X71033Y-102580D02*
Y-99430D01*
X71035Y-97224D02*
Y-94074D01*
X65444Y-102580D02*
Y-99430D01*
X65446Y-97224D02*
Y-94074D01*
X66664Y-103799D02*
X69814D01*
X66666Y-92855D02*
X69815D01*
X45468Y23169D02*
Y26319D01*
X45467Y17813D02*
Y20963D01*
X51058Y23169D02*
Y26319D01*
X51056Y17813D02*
Y20963D01*
X46688Y27538D02*
X49838D01*
X46686Y16594D02*
X49836D01*
X59056Y17814D02*
Y20963D01*
X59057Y23170D02*
Y26319D01*
X53466Y17814D02*
Y20963D01*
X53468Y23170D02*
Y26319D01*
X54686Y16594D02*
X57836D01*
X54688Y27539D02*
X57838D01*
X74411Y-48090D02*
Y-44940D01*
X74410Y-53446D02*
Y-50296D01*
X80001Y-48090D02*
Y-44940D01*
X79999Y-53446D02*
Y-50296D01*
X75631Y-43721D02*
X78781D01*
X75629Y-54665D02*
X78779D01*
X168206Y-105652D02*
Y-102503D01*
X168205Y-111008D02*
Y-107859D01*
X173796Y-105652D02*
Y-102503D01*
X173794Y-111008D02*
Y-107859D01*
X169426Y-101283D02*
X172576D01*
X169424Y-112228D02*
X172574D01*
X173794Y-4253D02*
Y-1103D01*
X173796Y1103D02*
Y4253D01*
X168204Y-4253D02*
Y-1103D01*
X168206Y1103D02*
Y4253D01*
X169424Y-5472D02*
X172574D01*
X169426Y5472D02*
X172576D01*
X6206Y-106652D02*
Y-103503D01*
X6205Y-112008D02*
Y-108859D01*
X11796Y-106652D02*
Y-103503D01*
X11794Y-112008D02*
Y-108859D01*
X7426Y-102283D02*
X10576D01*
X7424Y-113228D02*
X10574D01*
X11794Y-4497D02*
Y-1348D01*
X11795Y859D02*
Y4008D01*
X6204Y-4497D02*
Y-1348D01*
X6206Y859D02*
Y4008D01*
X7424Y-5717D02*
X10574D01*
X7426Y5228D02*
X10576D01*
X56460Y-70108D02*
X59610D01*
X56458Y-81052D02*
X59607D01*
X55240Y-74477D02*
Y-71327D01*
X55238Y-79833D02*
Y-76683D01*
X60829Y-74477D02*
Y-71327D01*
X60827Y-79833D02*
Y-76683D01*
X173936Y37000D02*
Y34376D01*
Y35688D01*
X170000D01*
X173936Y33064D02*
X170000Y30440D01*
X173936D02*
X170000Y33064D01*
X182000Y37000D02*
X185936D01*
Y35032D01*
X185280Y34376D01*
X183968D01*
X183312Y35032D01*
Y37000D01*
Y35688D02*
X182000Y34376D01*
X185936Y33064D02*
X182000Y30440D01*
X185936D02*
X182000Y33064D01*
X158954Y27758D02*
Y29070D01*
Y28414D01*
X162890D01*
Y27758D01*
Y29070D01*
X158954Y33005D02*
Y31694D01*
X159610Y31038D01*
X162233D01*
X162890Y31694D01*
Y33005D01*
X162233Y33661D01*
X159610D01*
X158954Y33005D01*
Y37597D02*
Y34973D01*
X160922D01*
X160266Y36285D01*
Y36941D01*
X160922Y37597D01*
X162233D01*
X162890Y36941D01*
Y35629D01*
X162233Y34973D01*
X149664Y23375D02*
Y24687D01*
Y24031D01*
X153600D01*
Y23375D01*
Y24687D01*
X149664Y28623D02*
Y27311D01*
X150320Y26655D01*
X152944D01*
X153600Y27311D01*
Y28623D01*
X152944Y29279D01*
X150320D01*
X149664Y28623D01*
X153600Y33215D02*
Y30591D01*
X150976Y33215D01*
X150320D01*
X149664Y32559D01*
Y31247D01*
X150320Y30591D01*
Y34527D02*
X149664Y35183D01*
Y36494D01*
X150320Y37150D01*
X150976D01*
X151632Y36494D01*
Y35838D01*
Y36494D01*
X152288Y37150D01*
X152944D01*
X153600Y36494D01*
Y35183D01*
X152944Y34527D01*
X139664Y23375D02*
Y24687D01*
Y24031D01*
X143599D01*
Y23375D01*
Y24687D01*
X139664Y28623D02*
Y27311D01*
X140320Y26655D01*
X142944D01*
X143599Y27311D01*
Y28623D01*
X142944Y29279D01*
X140320D01*
X139664Y28623D01*
X143599Y33215D02*
Y30591D01*
X140976Y33215D01*
X140320D01*
X139664Y32559D01*
Y31247D01*
X140320Y30591D01*
X143599Y37150D02*
Y34527D01*
X140976Y37150D01*
X140320D01*
X139664Y36494D01*
Y35183D01*
X140320Y34527D01*
X129664Y25375D02*
Y26687D01*
Y26031D01*
X133599D01*
Y25375D01*
Y26687D01*
X129664Y30623D02*
Y29311D01*
X130320Y28655D01*
X132943D01*
X133599Y29311D01*
Y30623D01*
X132943Y31279D01*
X130320D01*
X129664Y30623D01*
X133599Y35215D02*
Y32591D01*
X130976Y35215D01*
X130320D01*
X129664Y34559D01*
Y33247D01*
X130320Y32591D01*
X133599Y36527D02*
Y37839D01*
Y37183D01*
X129664D01*
X130320Y36527D01*
X122976Y35096D02*
X123632Y34440D01*
X124943D01*
X125600Y35096D01*
Y37719D01*
X124943Y38375D01*
X123632D01*
X122976Y37719D01*
Y36408D01*
X124288D01*
X121664Y38375D02*
Y34440D01*
X119040Y38375D01*
Y34440D01*
X117728D02*
Y38375D01*
X115760D01*
X115104Y37719D01*
Y35096D01*
X115760Y34440D01*
X117728D01*
X-56336Y-68625D02*
X-52400D01*
Y-66657D01*
X-53057Y-66001D01*
X-53712D01*
X-54368Y-66657D01*
Y-68625D01*
Y-66657D01*
X-55024Y-66001D01*
X-55680D01*
X-56336Y-66657D01*
Y-68625D01*
Y-62721D02*
Y-64033D01*
X-55680Y-64689D01*
X-53057D01*
X-52400Y-64033D01*
Y-62721D01*
X-53057Y-62065D01*
X-55680D01*
X-56336Y-62721D01*
Y-58785D02*
Y-60097D01*
X-55680Y-60753D01*
X-53057D01*
X-52400Y-60097D01*
Y-58785D01*
X-53057Y-58129D01*
X-55680D01*
X-56336Y-58785D01*
Y-56817D02*
Y-54194D01*
Y-55506D01*
X-52400D01*
X-56336Y-40001D02*
Y-42625D01*
X-52400D01*
Y-40001D01*
X-54368Y-42625D02*
Y-41313D01*
X-52400Y-38689D02*
X-56336D01*
X-52400Y-36065D01*
X-56336D01*
X86787Y-154428D02*
X86262Y-153903D01*
X85212D01*
X84688Y-154428D01*
Y-156527D01*
X85212Y-157052D01*
X86262D01*
X86787Y-156527D01*
Y-155478D01*
X85737D01*
X87836Y-157052D02*
Y-153903D01*
X89935Y-157052D01*
Y-153903D01*
X90985D02*
Y-157052D01*
X92559D01*
X93084Y-156527D01*
Y-154428D01*
X92559Y-153903D01*
X90985D01*
X107699Y-154476D02*
X105599D01*
Y-156050D01*
X106649Y-155526D01*
X107174D01*
X107699Y-156050D01*
Y-157100D01*
X107174Y-157625D01*
X106124D01*
X105599Y-157100D01*
X108748Y-154476D02*
Y-156575D01*
X109798Y-157625D01*
X110847Y-156575D01*
Y-154476D01*
X120599Y-154001D02*
X121124Y-153476D01*
X122174D01*
X122699Y-154001D01*
Y-154526D01*
X122174Y-155050D01*
X121649D01*
X122174D01*
X122699Y-155575D01*
Y-156100D01*
X122174Y-156625D01*
X121124D01*
X120599Y-156100D01*
X123748Y-153476D02*
Y-155575D01*
X124798Y-156625D01*
X125847Y-155575D01*
Y-153476D01*
X126897Y-154001D02*
X127421Y-153476D01*
X128471D01*
X128996Y-154001D01*
Y-154526D01*
X128471Y-155050D01*
X127946D01*
X128471D01*
X128996Y-155575D01*
Y-156100D01*
X128471Y-156625D01*
X127421D01*
X126897Y-156100D01*
X135699Y-154001D02*
X135174Y-153476D01*
X134124D01*
X133599Y-154001D01*
Y-156100D01*
X134124Y-156625D01*
X135174D01*
X135699Y-156100D01*
Y-155050D01*
X134649D01*
X136748Y-156625D02*
Y-153476D01*
X138847Y-156625D01*
Y-153476D01*
X139897D02*
Y-156625D01*
X141471D01*
X141996Y-156100D01*
Y-154001D01*
X141471Y-153476D01*
X139897D01*
X157376Y-150574D02*
Y-147426D01*
X158950D01*
X159475Y-147950D01*
Y-149000D01*
X158950Y-149525D01*
X157376D01*
X160525Y-147950D02*
X161049Y-147426D01*
X162099D01*
X162624Y-147950D01*
Y-148475D01*
X162099Y-149000D01*
X161574D01*
X162099D01*
X162624Y-149525D01*
Y-150049D01*
X162099Y-150574D01*
X161049D01*
X160525Y-150049D01*
X89000Y-116312D02*
X89656Y-116968D01*
X90968D01*
X91624Y-116312D01*
Y-113688D01*
X90968Y-113032D01*
X89656D01*
X89000Y-113688D01*
X87688Y-113032D02*
X86376D01*
X87032D01*
Y-116968D01*
X87688Y-116312D01*
X19567Y-53904D02*
X15632D01*
Y-51937D01*
X16288Y-51281D01*
X17600D01*
X18256Y-51937D01*
Y-53904D01*
Y-52592D02*
X19567Y-51281D01*
X15632Y-49969D02*
Y-47345D01*
X16288D01*
X18911Y-49969D01*
X19567D01*
X13567Y-53904D02*
X9632D01*
Y-51937D01*
X10288Y-51281D01*
X11599D01*
X12256Y-51937D01*
Y-53904D01*
Y-52592D02*
X13567Y-51281D01*
X10288Y-49969D02*
X9632Y-49313D01*
Y-48001D01*
X10288Y-47345D01*
X10944D01*
X11599Y-48001D01*
Y-48657D01*
Y-48001D01*
X12256Y-47345D01*
X12911D01*
X13567Y-48001D01*
Y-49313D01*
X12911Y-49969D01*
X38600Y-153593D02*
X39911D01*
X39255D01*
Y-150313D01*
X39911Y-149657D01*
X40567D01*
X41223Y-150313D01*
X37288Y-149657D02*
X35976D01*
X36632D01*
Y-153593D01*
X37288Y-152937D01*
X173320Y19343D02*
X175944D01*
X174632D01*
Y15407D01*
X179223D02*
Y19343D01*
X177255Y17375D01*
X179879D01*
X-19680Y-78657D02*
X-17056D01*
X-18368D01*
Y-82592D01*
X-15744Y-79313D02*
X-15089Y-78657D01*
X-13777D01*
X-13121Y-79313D01*
Y-79969D01*
X-13777Y-80625D01*
X-14433D01*
X-13777D01*
X-13121Y-81281D01*
Y-81937D01*
X-13777Y-82592D01*
X-15089D01*
X-15744Y-81937D01*
X159720Y-60032D02*
X162344D01*
X161032D01*
Y-63968D01*
X166280D02*
X163656D01*
X166280Y-61344D01*
Y-60688D01*
X165624Y-60032D01*
X164312D01*
X163656Y-60688D01*
X-38411Y46335D02*
X-35787D01*
X-37099D01*
Y42399D01*
X-34475D02*
X-33164D01*
X-33819D01*
Y46335D01*
X-34475Y45679D01*
X82294Y-30259D02*
X86230D01*
Y-32226D01*
X85574Y-32882D01*
X84262D01*
X83606Y-32226D01*
Y-30259D01*
Y-31571D02*
X82294Y-32882D01*
Y-34194D02*
Y-35506D01*
Y-34850D01*
X86230D01*
X85574Y-34194D01*
X82294Y-40098D02*
Y-37474D01*
X84918Y-40098D01*
X85574D01*
X86230Y-39442D01*
Y-38130D01*
X85574Y-37474D01*
X163968Y-12395D02*
X160032D01*
Y-15019D01*
X163968Y-18955D02*
Y-16331D01*
X160032D01*
Y-18955D01*
X162000Y-16331D02*
Y-17643D01*
X163968Y-20267D02*
X160032D01*
Y-22234D01*
X160688Y-22890D01*
X163312D01*
X163968Y-22234D01*
Y-20267D01*
Y-26826D02*
Y-24202D01*
X162000D01*
X162656Y-25514D01*
Y-26170D01*
X162000Y-26826D01*
X160688D01*
X160032Y-26170D01*
Y-24858D01*
X160688Y-24202D01*
X-2964Y17239D02*
X972D01*
Y19863D01*
X-2964Y23799D02*
Y21175D01*
X972D01*
Y23799D01*
X-996Y21175D02*
Y22487D01*
X-2964Y25111D02*
X972D01*
Y27079D01*
X316Y27734D01*
X-2308D01*
X-2964Y27079D01*
Y25111D01*
X-2308Y29046D02*
X-2964Y29702D01*
Y31014D01*
X-2308Y31670D01*
X-1652D01*
X-996Y31014D01*
Y30358D01*
Y31014D01*
X-340Y31670D01*
X316D01*
X972Y31014D01*
Y29702D01*
X316Y29046D01*
X-1929Y-93669D02*
X2006D01*
Y-91045D01*
X-1929Y-87110D02*
Y-89734D01*
X2006D01*
Y-87110D01*
X38Y-89734D02*
Y-88422D01*
X-1929Y-85798D02*
X2006D01*
Y-83830D01*
X1350Y-83174D01*
X-1273D01*
X-1929Y-83830D01*
Y-85798D01*
X2006Y-79238D02*
Y-81862D01*
X-618Y-79238D01*
X-1273D01*
X-1929Y-79894D01*
Y-81206D01*
X-1273Y-81862D01*
X7688Y-94051D02*
X7032Y-94708D01*
Y-96019D01*
X7688Y-96675D01*
X10312D01*
X10968Y-96019D01*
Y-94708D01*
X10312Y-94051D01*
X10968Y-92740D02*
Y-91428D01*
Y-92084D01*
X7032D01*
X7688Y-92740D01*
X7032Y-89460D02*
Y-86836D01*
X7688D01*
X10312Y-89460D01*
X10968D01*
X121951Y-44483D02*
Y-40547D01*
X123919D01*
X124575Y-41203D01*
Y-42515D01*
X123919Y-43171D01*
X121951D01*
X123263D02*
X124575Y-44483D01*
X128511Y-40547D02*
X125887D01*
Y-42515D01*
X127199Y-41859D01*
X127855D01*
X128511Y-42515D01*
Y-43827D01*
X127855Y-44483D01*
X126543D01*
X125887Y-43827D01*
X125968Y-127408D02*
X122032D01*
X124000D01*
Y-130032D01*
X125968D01*
X122032D01*
X125968Y-131344D02*
X122032D01*
Y-133312D01*
X122688Y-133968D01*
X125312D01*
X125968Y-133312D01*
Y-131344D01*
X122032Y-135280D02*
Y-136592D01*
Y-135936D01*
X125968D01*
X125312Y-135280D01*
X106294Y-30259D02*
X110230D01*
Y-32226D01*
X109574Y-32882D01*
X108262D01*
X107606Y-32226D01*
Y-30259D01*
Y-31571D02*
X106294Y-32882D01*
Y-34194D02*
Y-35506D01*
Y-34850D01*
X110230D01*
X109574Y-34194D01*
X110230Y-37474D02*
Y-40098D01*
X109574D01*
X106950Y-37474D01*
X106294D01*
X70294Y-30259D02*
X74230D01*
Y-32226D01*
X73574Y-32882D01*
X72262D01*
X71606Y-32226D01*
Y-30259D01*
Y-31571D02*
X70294Y-32882D01*
Y-34194D02*
Y-35506D01*
Y-34850D01*
X74230D01*
X73574Y-34194D01*
X74230Y-40098D02*
Y-37474D01*
X72262D01*
X72918Y-38786D01*
Y-39442D01*
X72262Y-40098D01*
X70950D01*
X70294Y-39442D01*
Y-38130D01*
X70950Y-37474D01*
X100294Y-30293D02*
X104230D01*
Y-32261D01*
X103574Y-32917D01*
X102262D01*
X101606Y-32261D01*
Y-30293D01*
Y-31605D02*
X100294Y-32917D01*
Y-34229D02*
Y-35541D01*
Y-34885D01*
X104230D01*
X103574Y-34229D01*
Y-37509D02*
X104230Y-38165D01*
Y-39476D01*
X103574Y-40132D01*
X102918D01*
X102262Y-39476D01*
Y-38820D01*
Y-39476D01*
X101606Y-40132D01*
X100950D01*
X100294Y-39476D01*
Y-38165D01*
X100950Y-37509D01*
X63294Y-29880D02*
X67230D01*
Y-31848D01*
X66574Y-32504D01*
X65262D01*
X64606Y-31848D01*
Y-29880D01*
Y-31192D02*
X63294Y-32504D01*
Y-33816D02*
Y-35128D01*
Y-34472D01*
X67230D01*
X66574Y-33816D01*
X63294Y-37096D02*
Y-38407D01*
Y-37751D01*
X67230D01*
X66574Y-37096D01*
X172312Y-10460D02*
X172968Y-9804D01*
Y-8492D01*
X172312Y-7836D01*
X169688D01*
X169032Y-8492D01*
Y-9804D01*
X169688Y-10460D01*
X169032Y-11772D02*
Y-13084D01*
Y-12428D01*
X172968D01*
X172312Y-11772D01*
X169688Y-15052D02*
X169032Y-15708D01*
Y-17019D01*
X169688Y-17675D01*
X172312D01*
X172968Y-17019D01*
Y-15708D01*
X172312Y-15052D01*
X171656D01*
X171000Y-15708D01*
Y-17675D01*
X169688Y-95051D02*
X169032Y-95707D01*
Y-97019D01*
X169688Y-97675D01*
X172312D01*
X172968Y-97019D01*
Y-95707D01*
X172312Y-95051D01*
X172968Y-93740D02*
Y-92428D01*
Y-93084D01*
X169032D01*
X169688Y-93740D01*
Y-90460D02*
X169032Y-89804D01*
Y-88492D01*
X169688Y-87836D01*
X170344D01*
X171000Y-88492D01*
X171656Y-87836D01*
X172312D01*
X172968Y-88492D01*
Y-89804D01*
X172312Y-90460D01*
X171656D01*
X171000Y-89804D01*
X170344Y-90460D01*
X169688D01*
X171000Y-89804D02*
Y-88492D01*
X7688Y10460D02*
X7032Y9804D01*
Y8492D01*
X7688Y7836D01*
X10312D01*
X10968Y8492D01*
Y9804D01*
X10312Y10460D01*
X10968Y11772D02*
Y13084D01*
Y12428D01*
X7032D01*
X7688Y11772D01*
X7032Y17675D02*
X7688Y16364D01*
X9000Y15052D01*
X10312D01*
X10968Y15708D01*
Y17019D01*
X10312Y17675D01*
X9656D01*
X9000Y17019D01*
Y15052D01*
X50976Y46343D02*
Y43064D01*
X51632Y42408D01*
X52944D01*
X53600Y43064D01*
Y46343D01*
X54911Y42408D02*
X56223D01*
X55567D01*
Y46343D01*
X54911Y45687D01*
X-29024Y-37313D02*
X-29680Y-36657D01*
X-30992D01*
X-31648Y-37313D01*
Y-37969D01*
X-30992Y-38625D01*
X-29680D01*
X-29024Y-39281D01*
Y-39937D01*
X-29680Y-40593D01*
X-30992D01*
X-31648Y-39937D01*
X-27712Y-36657D02*
Y-40593D01*
X-26401Y-39281D01*
X-25089Y-40593D01*
Y-36657D01*
X-21153Y-40593D02*
X-23777D01*
X-21153Y-37969D01*
Y-37313D01*
X-21809Y-36657D01*
X-23121D01*
X-23777Y-37313D01*
X-28368Y-62313D02*
X-29024Y-61657D01*
X-30336D01*
X-30992Y-62313D01*
Y-62969D01*
X-30336Y-63625D01*
X-29024D01*
X-28368Y-64281D01*
Y-64937D01*
X-29024Y-65592D01*
X-30336D01*
X-30992Y-64937D01*
X-27056Y-61657D02*
Y-65592D01*
X-25745Y-64281D01*
X-24433Y-65592D01*
Y-61657D01*
X-23121Y-65592D02*
X-21809D01*
X-22465D01*
Y-61657D01*
X-23121Y-62313D01*
X94294Y-30293D02*
X98230D01*
Y-32261D01*
X97574Y-32917D01*
X96262D01*
X95606Y-32261D01*
Y-30293D01*
Y-31605D02*
X94294Y-32917D01*
Y-34229D02*
Y-35541D01*
Y-34885D01*
X98230D01*
X97574Y-34229D01*
X98230Y-40132D02*
X97574Y-38820D01*
X96262Y-37509D01*
X94950D01*
X94294Y-38165D01*
Y-39476D01*
X94950Y-40132D01*
X95606D01*
X96262Y-39476D01*
Y-37509D01*
X88294Y-30293D02*
X92230D01*
Y-32261D01*
X91574Y-32917D01*
X90262D01*
X89606Y-32261D01*
Y-30293D01*
Y-31605D02*
X88294Y-32917D01*
Y-34229D02*
Y-35541D01*
Y-34885D01*
X92230D01*
X91574Y-34229D01*
X88294Y-39476D02*
X92230D01*
X90262Y-37509D01*
Y-40132D01*
X76294Y-30259D02*
X80230D01*
Y-32226D01*
X79574Y-32882D01*
X78262D01*
X77606Y-32226D01*
Y-30259D01*
Y-31571D02*
X76294Y-32882D01*
Y-34194D02*
Y-35506D01*
Y-34850D01*
X80230D01*
X79574Y-34194D01*
Y-37474D02*
X80230Y-38130D01*
Y-39442D01*
X79574Y-40098D01*
X76950D01*
X76294Y-39442D01*
Y-38130D01*
X76950Y-37474D01*
X79574D01*
X31567Y-53904D02*
X27632D01*
Y-51937D01*
X28288Y-51281D01*
X29599D01*
X30255Y-51937D01*
Y-53904D01*
Y-52592D02*
X31567Y-51281D01*
X30911Y-49969D02*
X31567Y-49313D01*
Y-48001D01*
X30911Y-47345D01*
X28288D01*
X27632Y-48001D01*
Y-49313D01*
X28288Y-49969D01*
X28944D01*
X29599Y-49313D01*
Y-47345D01*
X37567Y-53904D02*
X33632D01*
Y-51937D01*
X34288Y-51281D01*
X35599D01*
X36255Y-51937D01*
Y-53904D01*
Y-52592D02*
X37567Y-51281D01*
X34288Y-49969D02*
X33632Y-49313D01*
Y-48001D01*
X34288Y-47345D01*
X34944D01*
X35599Y-48001D01*
X36255Y-47345D01*
X36911D01*
X37567Y-48001D01*
Y-49313D01*
X36911Y-49969D01*
X36255D01*
X35599Y-49313D01*
X34944Y-49969D01*
X34288D01*
X35599Y-49313D02*
Y-48001D01*
X44567Y-53904D02*
X40632D01*
Y-51937D01*
X41288Y-51281D01*
X42599D01*
X43255Y-51937D01*
Y-53904D01*
Y-52592D02*
X44567Y-51281D01*
X40632Y-47345D02*
X41288Y-48657D01*
X42599Y-49969D01*
X43911D01*
X44567Y-49313D01*
Y-48001D01*
X43911Y-47345D01*
X43255D01*
X42599Y-48001D01*
Y-49969D01*
X51567Y-53904D02*
X47632D01*
Y-51937D01*
X48288Y-51281D01*
X49599D01*
X50256Y-51937D01*
Y-53904D01*
Y-52592D02*
X51567Y-51281D01*
Y-48001D02*
X47632D01*
X49599Y-49969D01*
Y-47345D01*
X-51675Y-25789D02*
Y-29725D01*
X-53643D01*
X-54299Y-29069D01*
Y-27757D01*
X-53643Y-27101D01*
X-51675D01*
X-52987D02*
X-54299Y-25789D01*
X-58234D02*
X-55611D01*
X-58234Y-28413D01*
Y-29069D01*
X-57578Y-29725D01*
X-56266D01*
X-55611Y-29069D01*
X-51354Y-71624D02*
Y-75559D01*
X-53322D01*
X-53978Y-74903D01*
Y-73592D01*
X-53322Y-72936D01*
X-51354D01*
X-52666D02*
X-53978Y-71624D01*
X-55290D02*
X-56601D01*
X-55945D01*
Y-75559D01*
X-55290Y-74903D01*
X191032Y45280D02*
X194968D01*
Y43312D01*
X194312Y42656D01*
X193000D01*
X192344Y43312D01*
Y45280D01*
X191032Y38720D02*
Y41344D01*
X193656Y38720D01*
X194312D01*
X194968Y39376D01*
Y40688D01*
X194312Y41344D01*
X191376Y35032D02*
Y38968D01*
X193344D01*
X194000Y38312D01*
Y37000D01*
X193344Y36344D01*
X191376D01*
X195312Y35032D02*
X196624D01*
X195968D01*
Y38968D01*
X195312Y38312D01*
X160042Y-95324D02*
X163978D01*
Y-92700D01*
X160042Y-88765D02*
Y-91388D01*
X163978D01*
Y-88765D01*
X162010Y-91388D02*
Y-90076D01*
X160042Y-87453D02*
X163978D01*
Y-85485D01*
X163322Y-84829D01*
X160698D01*
X160042Y-85485D01*
Y-87453D01*
X163978Y-81549D02*
X160042D01*
X162010Y-83517D01*
Y-80893D01*
X53632Y-54184D02*
X57567D01*
Y-51560D01*
X53632Y-47625D02*
Y-50248D01*
X57567D01*
Y-47625D01*
X55599Y-50248D02*
Y-48937D01*
X53632Y-46313D02*
X57567D01*
Y-44345D01*
X56911Y-43689D01*
X54288D01*
X53632Y-44345D01*
Y-46313D01*
X57567Y-42377D02*
Y-41065D01*
Y-41721D01*
X53632D01*
X54288Y-42377D01*
X96376Y-97032D02*
Y-100968D01*
X99000D01*
X100312D02*
X101624D01*
X100968D01*
Y-97032D01*
X100312Y-97688D01*
X59004Y-88446D02*
X57692D01*
X58347D01*
Y-84510D01*
X59004D01*
X57692D01*
X53100Y-87790D02*
X53756Y-88446D01*
X55068D01*
X55724Y-87790D01*
Y-85166D01*
X55068Y-84510D01*
X53756D01*
X53100Y-85166D01*
X51788Y-84510D02*
X50476D01*
X51132D01*
Y-88446D01*
X51788Y-87790D01*
X39950Y19526D02*
X39294Y18870D01*
Y17558D01*
X39950Y16902D01*
X42574D01*
X43230Y17558D01*
Y18870D01*
X42574Y19526D01*
X43230Y20838D02*
Y22150D01*
Y21494D01*
X39294D01*
X39950Y20838D01*
X39294Y26741D02*
Y24118D01*
X41262D01*
X40606Y25429D01*
Y26085D01*
X41262Y26741D01*
X42574D01*
X43230Y26085D01*
Y24773D01*
X42574Y24118D01*
X32950Y19526D02*
X32294Y18870D01*
Y17558D01*
X32950Y16902D01*
X35574D01*
X36230Y17558D01*
Y18870D01*
X35574Y19526D01*
X36230Y20838D02*
Y22150D01*
Y21494D01*
X32294D01*
X32950Y20838D01*
X36230Y26085D02*
X32294D01*
X34262Y24118D01*
Y26741D01*
X22288Y-51265D02*
X21632Y-51920D01*
Y-53232D01*
X22288Y-53888D01*
X24911D01*
X25567Y-53232D01*
Y-51920D01*
X24911Y-51265D01*
X25567Y-49953D02*
Y-48641D01*
Y-49297D01*
X21632D01*
X22288Y-49953D01*
X25567Y-46673D02*
Y-45361D01*
Y-46017D01*
X21632D01*
X22288Y-46673D01*
X49722Y-75236D02*
X49066Y-75892D01*
Y-77204D01*
X49722Y-77860D01*
X52345D01*
X53001Y-77204D01*
Y-75892D01*
X52345Y-75236D01*
X49722Y-73924D02*
X49066Y-73268D01*
Y-71956D01*
X49722Y-71300D01*
X50378D01*
X51034Y-71956D01*
X51689Y-71300D01*
X52345D01*
X53001Y-71956D01*
Y-73268D01*
X52345Y-73924D01*
X51689D01*
X51034Y-73268D01*
X50378Y-73924D01*
X49722D01*
X51034Y-73268D02*
Y-71956D01*
X98288Y-72281D02*
X97632Y-72936D01*
Y-74248D01*
X98288Y-74904D01*
X100911D01*
X101567Y-74248D01*
Y-72936D01*
X100911Y-72281D01*
X97632Y-70969D02*
Y-68345D01*
X98288D01*
X100911Y-70969D01*
X101567D01*
X-29057Y-46313D02*
X-29712Y-45657D01*
X-31024D01*
X-31680Y-46313D01*
Y-48937D01*
X-31024Y-49593D01*
X-29712D01*
X-29057Y-48937D01*
X-25121Y-45657D02*
X-26433Y-46313D01*
X-27744Y-47625D01*
Y-48937D01*
X-27089Y-49593D01*
X-25777D01*
X-25121Y-48937D01*
Y-48281D01*
X-25777Y-47625D01*
X-27744D01*
X-29057Y-54313D02*
X-29712Y-53657D01*
X-31024D01*
X-31680Y-54313D01*
Y-56937D01*
X-31024Y-57592D01*
X-29712D01*
X-29057Y-56937D01*
X-25121Y-53657D02*
X-27744D01*
Y-55625D01*
X-26433Y-54969D01*
X-25777D01*
X-25121Y-55625D01*
Y-56937D01*
X-25777Y-57592D01*
X-27089D01*
X-27744Y-56937D01*
X65314Y-136644D02*
X65970Y-135987D01*
Y-134676D01*
X65314Y-134020D01*
X62690D01*
X62034Y-134676D01*
Y-135987D01*
X62690Y-136644D01*
X62034Y-139923D02*
X65970D01*
X64002Y-137955D01*
Y-140579D01*
X68556Y-109062D02*
X69212Y-108406D01*
Y-107094D01*
X68556Y-106438D01*
X65933D01*
X65276Y-107094D01*
Y-108406D01*
X65933Y-109062D01*
X68556Y-110374D02*
X69212Y-111030D01*
Y-112341D01*
X68556Y-112997D01*
X67900D01*
X67244Y-112341D01*
Y-111686D01*
Y-112341D01*
X66588Y-112997D01*
X65933D01*
X65276Y-112341D01*
Y-111030D01*
X65933Y-110374D01*
X77552Y-108916D02*
X78208Y-108260D01*
Y-106948D01*
X77552Y-106292D01*
X74928D01*
X74272Y-106948D01*
Y-108260D01*
X74928Y-108916D01*
X74272Y-112852D02*
Y-110228D01*
X76896Y-112852D01*
X77552D01*
X78208Y-112196D01*
Y-110884D01*
X77552Y-110228D01*
D12*
X62252Y-86624D02*
G03*
X62252Y-86624I-591J0D01*
G01*
X64691Y-79709D02*
G03*
X64691Y-79709I-591J0D01*
G01*
X81590Y-99000D02*
G03*
X81590Y-99000I-591J0D01*
G01*
X7599Y-54625D02*
Y-39625D01*
X60599D01*
Y-41625D02*
Y-39625D01*
Y-41625D02*
X114600D01*
Y-42625D02*
Y-41625D01*
Y-54625D02*
Y-42625D01*
D13*
X-40277Y-30358D02*
X-36501D01*
Y-25156D01*
X-40277D02*
X-36501D01*
X-47408Y-30358D02*
X-43633D01*
X-47408D02*
Y-25156D01*
X-43633D01*
X86309Y-58334D02*
X86388Y-68713D01*
X86309Y-58334D02*
X107399D01*
X112890Y-63824D01*
X112837Y-68924D02*
X112890Y-63824D01*
X86308Y-84916D02*
X86334Y-74410D01*
X86308Y-84916D02*
X107395D01*
X112891Y-79419D01*
Y-74324D01*
X61865Y-81699D02*
Y-69719D01*
X81550D01*
Y-81699D02*
Y-69719D01*
X61865Y-81699D02*
X81550D01*
X158511Y9540D02*
X165489D01*
X157911Y8940D02*
X158511Y9540D01*
X157911Y-9662D02*
X166089D01*
X165489Y9540D02*
X166089Y8940D01*
X68247Y-54570D02*
Y-50794D01*
Y-54570D02*
X73449D01*
Y-50794D01*
X68247Y-47438D02*
Y-43663D01*
X73449D01*
Y-47438D02*
Y-43663D01*
X-48281Y-70991D02*
X-44506D01*
X-48281Y-76192D02*
Y-70991D01*
Y-76192D02*
X-44506D01*
X-41150Y-70991D02*
X-37374D01*
Y-76192D02*
Y-70991D01*
X-41150Y-76192D02*
X-37374D01*
X104863Y-20535D02*
Y-16760D01*
X99661D02*
X104863D01*
X99661Y-20535D02*
Y-16760D01*
X104863Y-27666D02*
Y-23891D01*
X99661Y-27666D02*
X104863D01*
X99661D02*
Y-23891D01*
X87661Y-27666D02*
Y-23891D01*
Y-27666D02*
X92863D01*
Y-23891D01*
X87661Y-20535D02*
Y-16760D01*
X92863D01*
Y-20535D02*
Y-16760D01*
X93661Y-27666D02*
Y-23891D01*
Y-27666D02*
X98863D01*
Y-23891D01*
X93661Y-20535D02*
Y-16760D01*
X98863D01*
Y-20535D02*
Y-16760D01*
X69661Y-27631D02*
Y-23856D01*
Y-27631D02*
X74863D01*
Y-23856D01*
X69661Y-20500D02*
Y-16725D01*
X74863D01*
Y-20500D02*
Y-16725D01*
X68863Y-20500D02*
Y-16725D01*
X63661D02*
X68863D01*
X63661Y-20500D02*
Y-16725D01*
X68863Y-27631D02*
Y-23856D01*
X63661Y-27631D02*
X68863D01*
X63661D02*
Y-23856D01*
X86863Y-20500D02*
Y-16725D01*
X81661D02*
X86863D01*
X81661Y-20500D02*
Y-16725D01*
X86863Y-27631D02*
Y-23856D01*
X81661Y-27631D02*
X86863D01*
X81661D02*
Y-23856D01*
X105661Y-27631D02*
Y-23856D01*
Y-27631D02*
X110863D01*
Y-23856D01*
X105661Y-20500D02*
Y-16725D01*
X110863D01*
Y-20500D02*
Y-16725D01*
X75661Y-27597D02*
Y-23822D01*
Y-27597D02*
X80863D01*
Y-23822D01*
X75661Y-20466D02*
Y-16691D01*
X80863D01*
Y-20466D02*
Y-16691D01*
X62247Y-54570D02*
Y-50794D01*
Y-54570D02*
X67449D01*
Y-50794D01*
X62247Y-47438D02*
Y-43663D01*
X67449D01*
Y-47438D02*
Y-43663D01*
X106031Y-47438D02*
Y-43663D01*
X100830D02*
X106031D01*
X100830Y-47438D02*
Y-43663D01*
X106031Y-54570D02*
Y-50794D01*
X100830Y-54570D02*
X106031D01*
X100830D02*
Y-50794D01*
X94058Y-54570D02*
Y-50794D01*
Y-54570D02*
X99260D01*
Y-50794D01*
X94058Y-47438D02*
Y-43663D01*
X99260D01*
Y-47438D02*
Y-43663D01*
X93260Y-47438D02*
Y-43663D01*
X88058D02*
X93260D01*
X88058Y-47438D02*
Y-43663D01*
X93260Y-54570D02*
Y-50794D01*
X88058Y-54570D02*
X93260D01*
X88058D02*
Y-50794D01*
X81826Y-54550D02*
Y-50775D01*
Y-54550D02*
X87027D01*
Y-50775D01*
X81826Y-47419D02*
Y-43644D01*
X87027D01*
Y-47419D02*
Y-43644D01*
X-3485Y9605D02*
X3493D01*
X-4085Y9005D02*
X-3485Y9605D01*
X-4085Y-9596D02*
X4093D01*
X3493Y9605D02*
X4093Y9005D01*
X157921Y-115981D02*
X158521Y-116581D01*
X157921Y-97380D02*
X166099D01*
X165499Y-116581D02*
X166099Y-115981D01*
X158521Y-116581D02*
X165499D01*
X-4051Y-116004D02*
X-3451Y-116604D01*
X-4051Y-97403D02*
X4127D01*
X3527Y-116604D02*
X4127Y-116004D01*
X-3451Y-116604D02*
X3527D01*
X50711Y-150589D02*
X61091Y-150511D01*
X50711Y-150589D02*
Y-129499D01*
X56201Y-124009D01*
X61301Y-124062D01*
X66787Y-150565D02*
X77293Y-150591D01*
Y-129504D01*
X71797Y-124007D02*
X77293Y-129504D01*
X66701Y-124007D02*
X71797D01*
D14*
X166600Y40375D02*
Y50375D01*
X116600Y40375D02*
X166600D01*
X116600Y50375D02*
X166600D01*
X116600Y40375D02*
Y50375D01*
X168000D02*
X188000D01*
X168000Y40375D02*
Y50375D01*
Y40375D02*
X188000D01*
Y50375D01*
X121599Y-151625D02*
Y-141625D01*
X141600D01*
Y-151625D02*
Y-141625D01*
X121599Y-151625D02*
X141600D01*
D15*
X110427Y-49604D02*
Y-48265D01*
X107483Y-53817D02*
Y-49683D01*
Y-53817D02*
X108664Y-54998D01*
X109058D01*
X111814D01*
X112208D02*
X113389Y-53817D01*
X111814Y-54998D02*
X112208D01*
X113389Y-53817D02*
Y-49683D01*
X107474Y-43659D02*
X113301D01*
X113380Y-48186D02*
Y-43659D01*
X107474Y-48186D02*
Y-43659D01*
X109049Y-48265D02*
X111726D01*
X109089D02*
X110427Y-49604D01*
X109049Y-48265D02*
X109089D01*
X110427Y-49604D02*
X111726Y-48304D01*
Y-48265D01*
D16*
X157911Y4465D02*
Y8940D01*
X166089Y4465D02*
Y8940D01*
X157911Y-9662D02*
Y-4338D01*
X166089Y-9662D02*
Y-4338D01*
X-4085Y4530D02*
Y9005D01*
X4093Y4530D02*
Y9005D01*
X-4085Y-9596D02*
Y-4273D01*
X4093Y-9596D02*
Y-4273D01*
X157921Y-102703D02*
Y-97380D01*
X166099Y-102703D02*
Y-97380D01*
X157921Y-115981D02*
Y-111506D01*
X166099Y-115981D02*
Y-111506D01*
X-4051Y-102726D02*
Y-97403D01*
X4127Y-102726D02*
Y-97403D01*
X-4051Y-116004D02*
Y-111529D01*
X4127Y-116004D02*
Y-111529D01*
D17*
X-35950Y-154625D02*
X-35851D01*
X-22151Y-154525D02*
X-21850D01*
X-23350D02*
X-23051D01*
X-23950D02*
X-23651D01*
X-24551D02*
X-24351D01*
X-25150D02*
X-24850D01*
X-26450D02*
X-26050D01*
X-26950D02*
X-26651D01*
X-28850D02*
X-28550D01*
X-30150D02*
X-29851D01*
X-31951D02*
X-31651D01*
X-32651D02*
X-32250D01*
X-33151D02*
X-32851D01*
X-33751D02*
X-33450D01*
X-38250D02*
X-35151D01*
X-22251Y-154425D02*
X-21850D01*
X-23450D02*
X-23051D01*
X-24050D02*
X-23550D01*
X-24651D02*
X-24250D01*
X-25251D02*
X-24850D01*
X-26450D02*
X-26050D01*
X-27051D02*
X-26651D01*
X-28951D02*
X-28550D01*
X-30150D02*
X-29851D01*
X-32050D02*
X-31550D01*
X-32651D02*
X-32250D01*
X-33250D02*
X-32750D01*
X-33850D02*
X-33351D01*
X-38451D02*
X-35050D01*
X-22251Y-154325D02*
X-21750D01*
X-23450D02*
X-22951D01*
X-24050D02*
X-23550D01*
X-24651D02*
X-24250D01*
X-25251D02*
X-24850D01*
X-26450D02*
X-26050D01*
X-27051D02*
X-26550D01*
X-28951D02*
X-28550D01*
X-30250D02*
X-29750D01*
X-32050D02*
X-31550D01*
X-32651D02*
X-32250D01*
X-33250D02*
X-32750D01*
X-33850D02*
X-33351D01*
X-38550D02*
X-34850D01*
X-22251Y-154225D02*
X-21850D01*
X-23450D02*
X-23051D01*
X-23950D02*
X-23651D01*
X-24651D02*
X-24250D01*
X-25251D02*
X-24850D01*
X-26450D02*
X-26050D01*
X-27051D02*
X-26651D01*
X-28951D02*
X-28550D01*
X-30150D02*
X-29851D01*
X-31951D02*
X-31651D01*
X-32550D02*
X-32250D01*
X-33151D02*
X-32851D01*
X-33751D02*
X-33450D01*
X-38651D02*
X-34751D01*
X-22050Y-154125D02*
X-21950D01*
X-23250D02*
X-23151D01*
X-38750D02*
X-34751D01*
X-38750Y-154025D02*
X-34650D01*
X-25051Y-153925D02*
X-24950D01*
X-26351D02*
X-26151D01*
X-27551D02*
X-27351D01*
X-31350D02*
X-31150D01*
X-32550D02*
X-32351D01*
X-35451D02*
X-34650D01*
X-38851D02*
X-37951D01*
X-22151Y-153825D02*
X-21850D01*
X-23350D02*
X-23051D01*
X-25251D02*
X-24850D01*
X-26450D02*
X-26050D01*
X-27650D02*
X-27250D01*
X-31451D02*
X-31051D01*
X-32651D02*
X-32250D01*
X-35350D02*
X-34650D01*
X-38851D02*
X-38151D01*
X-22251Y-153725D02*
X-21750D01*
X-23450D02*
X-22951D01*
X-25251D02*
X-24850D01*
X-26450D02*
X-26050D01*
X-27751D02*
X-27250D01*
X-31451D02*
X-31051D01*
X-32651D02*
X-32250D01*
X-35250D02*
X-34650D01*
X-38851D02*
X-38151D01*
X-22251Y-153625D02*
X-21750D01*
X-23450D02*
X-22951D01*
X-25251D02*
X-24850D01*
X-26450D02*
X-26050D01*
X-27650D02*
X-27250D01*
X-31451D02*
X-31051D01*
X-32651D02*
X-32250D01*
X-35250D02*
X-34550D01*
X-38851D02*
X-38250D01*
X-22151Y-153525D02*
X-21850D01*
X-23350D02*
X-23051D01*
X-25251D02*
X-24950D01*
X-26450D02*
X-26050D01*
X-27650D02*
X-27351D01*
X-31350D02*
X-31150D01*
X-32550D02*
X-32351D01*
X-35250D02*
X-34550D01*
X-38851D02*
X-38250D01*
X-35250Y-153425D02*
X-34550D01*
X-38851D02*
X-38250D01*
X-21451Y-153325D02*
X-21250D01*
X-22650D02*
X-22550D01*
X-24551D02*
X-24351D01*
X-26950D02*
X-26750D01*
X-28150D02*
X-27951D01*
X-30051D02*
X-29851D01*
X-31350D02*
X-31051D01*
X-32550D02*
X-32351D01*
X-33151D02*
X-32950D01*
X-33551D02*
X-33450D01*
X-35250D02*
X-34550D01*
X-37451D02*
X-36051D01*
X-38851D02*
X-38250D01*
X-21551Y-153225D02*
X-21150D01*
X-22750D02*
X-22451D01*
X-24651D02*
X-24250D01*
X-27051D02*
X-26651D01*
X-28251D02*
X-27850D01*
X-30150D02*
X-29750D01*
X-31451D02*
X-31051D01*
X-32651D02*
X-32250D01*
X-33250D02*
X-32750D01*
X-33850D02*
X-33351D01*
X-35250D02*
X-34550D01*
X-37551D02*
X-35950D01*
X-38851D02*
X-38250D01*
X-21551Y-153125D02*
X-21150D01*
X-22851D02*
X-22351D01*
X-24750D02*
X-24250D01*
X-27051D02*
X-26651D01*
X-28251D02*
X-27850D01*
X-30150D02*
X-29750D01*
X-31451D02*
X-30950D01*
X-32651D02*
X-32250D01*
X-33250D02*
X-32750D01*
X-33850D02*
X-33351D01*
X-35250D02*
X-34550D01*
X-37650D02*
X-35851D01*
X-38851D02*
X-38250D01*
X-21551Y-153025D02*
X-21150D01*
X-22750D02*
X-22351D01*
X-24651D02*
X-24250D01*
X-27051D02*
X-26651D01*
X-28251D02*
X-27850D01*
X-30150D02*
X-29750D01*
X-31451D02*
X-31051D01*
X-32651D02*
X-32250D01*
X-33250D02*
X-32851D01*
X-33850D02*
X-33351D01*
X-35250D02*
X-34550D01*
X-37650D02*
X-35851D01*
X-38851D02*
X-38250D01*
X-21451Y-152925D02*
X-21250D01*
X-22750D02*
X-22451D01*
X-24551D02*
X-24351D01*
X-26950D02*
X-26750D01*
X-28150D02*
X-27951D01*
X-30051D02*
X-29851D01*
X-31350D02*
X-31051D01*
X-32550D02*
X-32351D01*
X-33151D02*
X-32950D01*
X-33650D02*
X-33551D01*
X-35250D02*
X-34550D01*
X-37650D02*
X-35851D01*
X-38851D02*
X-38250D01*
X-35250Y-152825D02*
X-34550D01*
X-37650D02*
X-35851D01*
X-38851D02*
X-38250D01*
X-27551Y-152725D02*
X-27450D01*
X-28751D02*
X-28651D01*
X-35250D02*
X-34550D01*
X-37650D02*
X-35851D01*
X-38851D02*
X-38250D01*
X-21551Y-152625D02*
X-21250D01*
X-23450D02*
X-23051D01*
X-24050D02*
X-23651D01*
X-24651D02*
X-24250D01*
X-26950D02*
X-26651D01*
X-27650D02*
X-27250D01*
X-28251D02*
X-27850D01*
X-28951D02*
X-28550D01*
X-29451D02*
X-29151D01*
X-30751D02*
X-30351D01*
X-31350D02*
X-31051D01*
X-31951D02*
X-31651D01*
X-33151D02*
X-32851D01*
X-33751D02*
X-33450D01*
X-35250D02*
X-34550D01*
X-37650D02*
X-35851D01*
X-38851D02*
X-38250D01*
X-21551Y-152525D02*
X-21150D01*
X-23450D02*
X-23051D01*
X-24050D02*
X-23550D01*
X-24651D02*
X-24250D01*
X-27051D02*
X-26651D01*
X-27751D02*
X-27250D01*
X-28350D02*
X-27850D01*
X-28951D02*
X-28550D01*
X-29550D02*
X-29050D01*
X-30850D02*
X-30351D01*
X-31451D02*
X-31051D01*
X-32050D02*
X-31550D01*
X-33250D02*
X-32851D01*
X-33850D02*
X-33351D01*
X-35250D02*
X-34550D01*
X-37650D02*
X-35851D01*
X-38851D02*
X-38250D01*
X-21551Y-152425D02*
X-21150D01*
X-23450D02*
X-23051D01*
X-24050D02*
X-23550D01*
X-24651D02*
X-24250D01*
X-27051D02*
X-26550D01*
X-27751D02*
X-27250D01*
X-28350D02*
X-27850D01*
X-28951D02*
X-28550D01*
X-29550D02*
X-29050D01*
X-30850D02*
X-30351D01*
X-31451D02*
X-31051D01*
X-32050D02*
X-31550D01*
X-33250D02*
X-32750D01*
X-33850D02*
X-33351D01*
X-35250D02*
X-34550D01*
X-37650D02*
X-35851D01*
X-38851D02*
X-38250D01*
X-21551Y-152325D02*
X-21150D01*
X-23450D02*
X-23051D01*
X-23950D02*
X-23651D01*
X-24651D02*
X-24351D01*
X-26950D02*
X-26651D01*
X-27650D02*
X-27351D01*
X-28251D02*
X-27951D01*
X-28951D02*
X-28550D01*
X-29451D02*
X-29151D01*
X-30751D02*
X-30351D01*
X-31451D02*
X-31051D01*
X-31951D02*
X-31651D01*
X-33151D02*
X-32851D01*
X-33751D02*
X-33450D01*
X-35250D02*
X-34550D01*
X-37650D02*
X-35851D01*
X-38851D02*
X-38250D01*
X-35250Y-152225D02*
X-34550D01*
X-37650D02*
X-35851D01*
X-38851D02*
X-38250D01*
X-23851Y-152125D02*
X-23751D01*
X-24551D02*
X-24451D01*
X-29351D02*
X-29250D01*
X-33051D02*
X-32950D01*
X-35250D02*
X-34550D01*
X-37650D02*
X-35851D01*
X-38851D02*
X-38250D01*
X-22750Y-152025D02*
X-22451D01*
X-24050D02*
X-23651D01*
X-24651D02*
X-24351D01*
X-25251D02*
X-24850D01*
X-25850D02*
X-25550D01*
X-26450D02*
X-26050D01*
X-27650D02*
X-27351D01*
X-28251D02*
X-27951D01*
X-29550D02*
X-29151D01*
X-31350D02*
X-31051D01*
X-31951D02*
X-31651D01*
X-33151D02*
X-32851D01*
X-35250D02*
X-34550D01*
X-37650D02*
X-35851D01*
X-38851D02*
X-38250D01*
X-22851Y-151925D02*
X-22351D01*
X-24050D02*
X-23651D01*
X-24750D02*
X-24250D01*
X-25251D02*
X-24850D01*
X-25951D02*
X-25451D01*
X-26450D02*
X-26050D01*
X-27751D02*
X-27250D01*
X-28350D02*
X-27850D01*
X-29550D02*
X-29050D01*
X-31451D02*
X-31051D01*
X-32050D02*
X-31550D01*
X-33250D02*
X-32750D01*
X-35250D02*
X-34550D01*
X-37650D02*
X-35851D01*
X-38851D02*
X-38250D01*
X-22851Y-151825D02*
X-22451D01*
X-24050D02*
X-23651D01*
X-24651D02*
X-24250D01*
X-25251D02*
X-24850D01*
X-25951D02*
X-25451D01*
X-26450D02*
X-26050D01*
X-27751D02*
X-27250D01*
X-28251D02*
X-27850D01*
X-29550D02*
X-29151D01*
X-31451D02*
X-31051D01*
X-31951D02*
X-31550D01*
X-33250D02*
X-32750D01*
X-35250D02*
X-34550D01*
X-37551D02*
X-35851D01*
X-38851D02*
X-38250D01*
X-22750Y-151725D02*
X-22451D01*
X-23950D02*
X-23751D01*
X-24551D02*
X-24351D01*
X-25150D02*
X-24950D01*
X-25850D02*
X-25550D01*
X-26351D02*
X-26151D01*
X-27650D02*
X-27351D01*
X-28251D02*
X-27951D01*
X-29451D02*
X-29151D01*
X-31350D02*
X-31051D01*
X-31850D02*
X-31651D01*
X-33151D02*
X-32851D01*
X-35250D02*
X-34550D01*
X-37551D02*
X-35950D01*
X-38851D02*
X-38250D01*
X-35250Y-151625D02*
X-34550D01*
X-37350D02*
X-36051D01*
X-38851D02*
X-38250D01*
X-35250Y-151525D02*
X-34550D01*
X-38851D02*
X-38250D01*
X-23450Y-151425D02*
X-23051D01*
X-23950D02*
X-23751D01*
X-26351D02*
X-26151D01*
X-27650D02*
X-27351D01*
X-28951D02*
X-28550D01*
X-30150D02*
X-29851D01*
X-30751D02*
X-30450D01*
X-33151D02*
X-32851D01*
X-33751D02*
X-33450D01*
X-35250D02*
X-34550D01*
X-38851D02*
X-38250D01*
X-23450Y-151325D02*
X-23051D01*
X-24050D02*
X-23651D01*
X-26450D02*
X-26050D01*
X-27650D02*
X-27250D01*
X-28951D02*
X-28451D01*
X-30250D02*
X-29750D01*
X-30751D02*
X-30351D01*
X-33250D02*
X-32750D01*
X-33850D02*
X-33351D01*
X-35250D02*
X-34550D01*
X-38851D02*
X-38250D01*
X-23450Y-151225D02*
X-23051D01*
X-24050D02*
X-23651D01*
X-26450D02*
X-26050D01*
X-27751D02*
X-27250D01*
X-28951D02*
X-28451D01*
X-30250D02*
X-29750D01*
X-30751D02*
X-30351D01*
X-33250D02*
X-32750D01*
X-33850D02*
X-33351D01*
X-35250D02*
X-34550D01*
X-38851D02*
X-38151D01*
X-23450Y-151125D02*
X-23051D01*
X-24050D02*
X-23651D01*
X-26450D02*
X-26050D01*
X-27650D02*
X-27250D01*
X-28951D02*
X-28550D01*
X-30150D02*
X-29750D01*
X-30751D02*
X-30351D01*
X-33250D02*
X-32750D01*
X-33751D02*
X-33450D01*
X-35350D02*
X-34650D01*
X-38851D02*
X-38151D01*
X-23250Y-151025D02*
X-23151D01*
X-26351D02*
X-26151D01*
X-27551D02*
X-27450D01*
X-30051D02*
X-29851D01*
X-33051D02*
X-32950D01*
X-35451D02*
X-34650D01*
X-38851D02*
X-37951D01*
X-33650Y-150925D02*
X-33551D01*
X-38750D02*
X-34650D01*
X-22151Y-150825D02*
X-21850D01*
X-23450D02*
X-23051D01*
X-23950D02*
X-23651D01*
X-25251D02*
X-24850D01*
X-26450D02*
X-26151D01*
X-26950D02*
X-26651D01*
X-27650D02*
X-27351D01*
X-28850D02*
X-28651D01*
X-30150D02*
X-29750D01*
X-31350D02*
X-31051D01*
X-32651D02*
X-32250D01*
X-33151D02*
X-32851D01*
X-33751D02*
X-33450D01*
X-38750D02*
X-34751D01*
X-22251Y-150725D02*
X-21850D01*
X-23450D02*
X-23051D01*
X-24050D02*
X-23651D01*
X-25251D02*
X-24850D01*
X-26550D02*
X-26050D01*
X-27051D02*
X-26651D01*
X-27751D02*
X-27250D01*
X-28951D02*
X-28550D01*
X-30250D02*
X-29750D01*
X-31451D02*
X-30950D01*
X-32651D02*
X-32250D01*
X-33250D02*
X-32750D01*
X-33850D02*
X-33351D01*
X-38651D02*
X-34850D01*
X-22251Y-150625D02*
X-21750D01*
X-23450D02*
X-23051D01*
X-24050D02*
X-23651D01*
X-25251D02*
X-24850D01*
X-26550D02*
X-26050D01*
X-27051D02*
X-26651D01*
X-27751D02*
X-27250D01*
X-28951D02*
X-28550D01*
X-30250D02*
X-29750D01*
X-31451D02*
X-30950D01*
X-32651D02*
X-32250D01*
X-33250D02*
X-32750D01*
X-33850D02*
X-33351D01*
X-38550D02*
X-34951D01*
X-22251Y-150525D02*
X-21850D01*
X-23450D02*
X-23051D01*
X-24050D02*
X-23651D01*
X-25251D02*
X-24850D01*
X-26450D02*
X-26050D01*
X-26950D02*
X-26651D01*
X-27650D02*
X-27351D01*
X-28951D02*
X-28550D01*
X-30150D02*
X-29750D01*
X-31350D02*
X-31051D01*
X-32651D02*
X-32250D01*
X-33151D02*
X-32851D01*
X-33751D02*
X-33450D01*
X-38451D02*
X-35050D01*
X-22050Y-150425D02*
X-21950D01*
X-23250D02*
X-23151D01*
X-38250D02*
X-35250D01*
X-21350Y-150225D02*
X-21250D01*
X-22050D02*
X-21950D01*
X-22650D02*
X-22550D01*
X-23350D02*
X-23151D01*
X-23851D02*
X-23751D01*
X-28850D02*
X-28651D01*
X-31350D02*
X-31051D01*
X-33151D02*
X-32950D01*
X-33751D02*
X-33551D01*
X-21551Y-150125D02*
X-21150D01*
X-22151D02*
X-21850D01*
X-22750D02*
X-22351D01*
X-23450D02*
X-23051D01*
X-24050D02*
X-23651D01*
X-26450D02*
X-26151D01*
X-28951D02*
X-28550D01*
X-31451D02*
X-31051D01*
X-33250D02*
X-32851D01*
X-33850D02*
X-33450D01*
X-21551Y-150025D02*
X-21150D01*
X-22251D02*
X-21750D01*
X-22851D02*
X-22351D01*
X-23450D02*
X-23051D01*
X-24050D02*
X-23651D01*
X-26550D02*
X-26050D01*
X-28951D02*
X-28550D01*
X-31451D02*
X-30950D01*
X-33250D02*
X-32750D01*
X-33850D02*
X-33351D01*
X-21551Y-149925D02*
X-21150D01*
X-22251D02*
X-21750D01*
X-22851D02*
X-22351D01*
X-23450D02*
X-23051D01*
X-24050D02*
X-23651D01*
X-26450D02*
X-26050D01*
X-28951D02*
X-28550D01*
X-31451D02*
X-31051D01*
X-33250D02*
X-32750D01*
X-33850D02*
X-33351D01*
X-21451Y-149825D02*
X-21150D01*
X-22151D02*
X-21850D01*
X-22750D02*
X-22451D01*
X-23350D02*
X-23151D01*
X-23950D02*
X-23651D01*
X-26450D02*
X-26151D01*
X-28850D02*
X-28651D01*
X-31350D02*
X-31150D01*
X-33151D02*
X-32851D01*
X-33751D02*
X-33551D01*
X-22750Y-149625D02*
X-22451D01*
X-23350D02*
X-23151D01*
X-23950D02*
X-23751D01*
X-24551D02*
X-24351D01*
X-25150D02*
X-24950D01*
X-25850D02*
X-25550D01*
X-26351D02*
X-26250D01*
X-28251D02*
X-27951D01*
X-30150D02*
X-29851D01*
X-30751D02*
X-30450D01*
X-31951D02*
X-31651D01*
X-33151D02*
X-32950D01*
X-34951D02*
X-34751D01*
X-35651D02*
X-35451D01*
X-36250D02*
X-36051D01*
X-36851D02*
X-36650D01*
X-38151D02*
X-37850D01*
X-22851Y-149525D02*
X-22351D01*
X-23450D02*
X-23051D01*
X-24050D02*
X-23651D01*
X-24651D02*
X-24250D01*
X-25251D02*
X-24850D01*
X-25951D02*
X-25550D01*
X-26450D02*
X-26151D01*
X-28251D02*
X-27850D01*
X-30250D02*
X-29750D01*
X-30751D02*
X-30351D01*
X-32050D02*
X-31550D01*
X-33250D02*
X-32851D01*
X-35050D02*
X-34650D01*
X-35750D02*
X-35350D01*
X-36351D02*
X-35950D01*
X-37051D02*
X-36551D01*
X-37551D02*
X-37150D01*
X-38250D02*
X-37751D01*
X-22851Y-149425D02*
X-22351D01*
X-23450D02*
X-23051D01*
X-24050D02*
X-23651D01*
X-24750D02*
X-24250D01*
X-25251D02*
X-24850D01*
X-25951D02*
X-25451D01*
X-26550D02*
X-26050D01*
X-28350D02*
X-27850D01*
X-30250D02*
X-29750D01*
X-30751D02*
X-30351D01*
X-32050D02*
X-31550D01*
X-33250D02*
X-32851D01*
X-35151D02*
X-34650D01*
X-35750D02*
X-35350D01*
X-36351D02*
X-35851D01*
X-37051D02*
X-36551D01*
X-37551D02*
X-37150D01*
X-38250D02*
X-37751D01*
X-22851Y-149325D02*
X-22351D01*
X-23450D02*
X-23051D01*
X-24050D02*
X-23651D01*
X-24651D02*
X-24250D01*
X-25251D02*
X-24850D01*
X-25951D02*
X-25550D01*
X-26450D02*
X-26050D01*
X-28251D02*
X-27850D01*
X-30150D02*
X-29750D01*
X-30751D02*
X-30351D01*
X-31951D02*
X-31651D01*
X-33250D02*
X-32851D01*
X-35151D02*
X-34650D01*
X-35750D02*
X-35350D01*
X-36351D02*
X-35950D01*
X-36950D02*
X-36551D01*
X-37551D02*
X-37150D01*
X-38250D02*
X-37850D01*
X-22750Y-149225D02*
X-22451D01*
X-23350D02*
X-23151D01*
X-23950D02*
X-23751D01*
X-24551D02*
X-24351D01*
X-25150D02*
X-24950D01*
X-25750D02*
X-25651D01*
X-26351D02*
X-26151D01*
X-33051D02*
X-32950D01*
X-35050D02*
X-34751D01*
X-35651D02*
X-35451D01*
X-36250D02*
X-35950D01*
X-36950D02*
X-36650D01*
X-37451D02*
X-37251D01*
X-38151D02*
X-37951D01*
X-30051Y-149125D02*
X-29950D01*
X-22750Y-149025D02*
X-22351D01*
X-24651D02*
X-24351D01*
X-27051D02*
X-26651D01*
X-28251D02*
X-27850D01*
X-28951D02*
X-28550D01*
X-29451D02*
X-29151D01*
X-30150D02*
X-29851D01*
X-30751D02*
X-30351D01*
X-31451D02*
X-31051D01*
X-31951D02*
X-31651D01*
X-33751D02*
X-33450D01*
X-34451D02*
X-34150D01*
X-36950D02*
X-36650D01*
X-37451D02*
X-37251D01*
X-22851Y-148925D02*
X-22351D01*
X-24651D02*
X-24250D01*
X-27051D02*
X-26651D01*
X-28350D02*
X-27850D01*
X-28951D02*
X-28550D01*
X-29550D02*
X-29151D01*
X-30250D02*
X-29750D01*
X-30751D02*
X-30351D01*
X-31451D02*
X-31051D01*
X-32050D02*
X-31550D01*
X-33850D02*
X-33351D01*
X-34451D02*
X-34051D01*
X-36950D02*
X-36551D01*
X-37551D02*
X-37150D01*
X-22851Y-148825D02*
X-22351D01*
X-24750D02*
X-24250D01*
X-27051D02*
X-26651D01*
X-28350D02*
X-27850D01*
X-28951D02*
X-28550D01*
X-29550D02*
X-29050D01*
X-30250D02*
X-29750D01*
X-30850D02*
X-30351D01*
X-31451D02*
X-31051D01*
X-32050D02*
X-31651D01*
X-33850D02*
X-33351D01*
X-34550D02*
X-34051D01*
X-37051D02*
X-36551D01*
X-37551D02*
X-37150D01*
X-22750Y-148725D02*
X-22351D01*
X-24651D02*
X-24250D01*
X-26950D02*
X-26651D01*
X-28251D02*
X-27850D01*
X-28951D02*
X-28550D01*
X-29451D02*
X-29151D01*
X-30150D02*
X-29851D01*
X-30751D02*
X-30450D01*
X-31350D02*
X-31051D01*
X-31951D02*
X-31651D01*
X-33751D02*
X-33450D01*
X-34451D02*
X-34051D01*
X-36950D02*
X-36551D01*
X-37551D02*
X-37150D01*
X-34350Y-148625D02*
X-34150D01*
X-36851D02*
X-36650D01*
X-37350D02*
X-37251D01*
X-30051Y-148425D02*
X-29950D01*
X-22750Y-148325D02*
X-22451D01*
X-24050D02*
X-23651D01*
X-24651D02*
X-24250D01*
X-25850D02*
X-25550D01*
X-26450D02*
X-26050D01*
X-28251D02*
X-27850D01*
X-29550D02*
X-29151D01*
X-30150D02*
X-29750D01*
X-30751D02*
X-30351D01*
X-31350D02*
X-31051D01*
X-33250D02*
X-32851D01*
X-34451D02*
X-34051D01*
X-35050D02*
X-34650D01*
X-35750D02*
X-35350D01*
X-36351D02*
X-35950D01*
X-36950D02*
X-36650D01*
X-38651D02*
X-38451D01*
X-22851Y-148225D02*
X-22351D01*
X-24050D02*
X-23651D01*
X-24651D02*
X-24250D01*
X-25951D02*
X-25451D01*
X-26450D02*
X-26050D01*
X-28251D02*
X-27850D01*
X-29550D02*
X-29050D01*
X-30250D02*
X-29750D01*
X-30751D02*
X-30351D01*
X-31451D02*
X-31051D01*
X-33250D02*
X-32851D01*
X-34451D02*
X-34051D01*
X-35050D02*
X-34650D01*
X-35750D02*
X-35350D01*
X-36351D02*
X-35851D01*
X-37051D02*
X-36551D01*
X-38750D02*
X-38350D01*
X-22851Y-148125D02*
X-22351D01*
X-24050D02*
X-23651D01*
X-24651D02*
X-24250D01*
X-25850D02*
X-25451D01*
X-26450D02*
X-26050D01*
X-28251D02*
X-27850D01*
X-29550D02*
X-29050D01*
X-30150D02*
X-29750D01*
X-30751D02*
X-30351D01*
X-31451D02*
X-31051D01*
X-33250D02*
X-32851D01*
X-34451D02*
X-34051D01*
X-35050D02*
X-34650D01*
X-35750D02*
X-35250D01*
X-36351D02*
X-35851D01*
X-37051D02*
X-36551D01*
X-38750D02*
X-38350D01*
X-22750Y-148025D02*
X-22451D01*
X-24050D02*
X-23651D01*
X-24651D02*
X-24250D01*
X-25850D02*
X-25550D01*
X-26351D02*
X-26151D01*
X-28150D02*
X-27850D01*
X-29451D02*
X-29151D01*
X-30150D02*
X-29851D01*
X-30751D02*
X-30450D01*
X-31350D02*
X-31051D01*
X-33151D02*
X-32851D01*
X-34451D02*
X-34150D01*
X-35050D02*
X-34650D01*
X-35651D02*
X-35350D01*
X-36250D02*
X-35950D01*
X-36950D02*
X-36650D01*
X-38750D02*
X-38350D01*
X-22650Y-147825D02*
X-22550D01*
X-23350D02*
X-23151D01*
X-25750D02*
X-25550D01*
X-26351D02*
X-26151D01*
X-27551D02*
X-27450D01*
X-28850D02*
X-28550D01*
X-31951D02*
X-31651D01*
X-32550D02*
X-32351D01*
X-33151D02*
X-32950D01*
X-36851D02*
X-36650D01*
X-37451D02*
X-37251D01*
X-22251Y-147725D02*
X-21850D01*
X-22851D02*
X-22451D01*
X-23450D02*
X-23051D01*
X-24651D02*
X-24250D01*
X-25951D02*
X-25451D01*
X-26450D02*
X-26050D01*
X-27650D02*
X-27250D01*
X-28850D02*
X-28451D01*
X-32050D02*
X-31550D01*
X-32651D02*
X-32250D01*
X-33250D02*
X-32851D01*
X-36950D02*
X-36551D01*
X-37551D02*
X-37150D01*
X-38250D02*
X-37850D01*
X-22251Y-147625D02*
X-21850D01*
X-22851D02*
X-22351D01*
X-23450D02*
X-23051D01*
X-24750D02*
X-24250D01*
X-25951D02*
X-25451D01*
X-26450D02*
X-26050D01*
X-27650D02*
X-27250D01*
X-28751D02*
X-28451D01*
X-30450D02*
X-29351D01*
X-32050D02*
X-31550D01*
X-32651D02*
X-32250D01*
X-33250D02*
X-32750D01*
X-36950D02*
X-36551D01*
X-37551D02*
X-37150D01*
X-38250D02*
X-37751D01*
X-22251Y-147525D02*
X-21850D01*
X-22851D02*
X-22451D01*
X-23450D02*
X-23051D01*
X-24651D02*
X-24250D01*
X-25951D02*
X-25451D01*
X-26450D02*
X-26050D01*
X-27650D02*
X-27250D01*
X-30751D02*
X-29050D01*
X-31951D02*
X-31651D01*
X-32651D02*
X-32250D01*
X-33250D02*
X-32851D01*
X-36950D02*
X-36551D01*
X-37551D02*
X-37150D01*
X-38250D02*
X-37850D01*
X-22151Y-147425D02*
X-21850D01*
X-22750D02*
X-22451D01*
X-23350D02*
X-23051D01*
X-24651D02*
X-24351D01*
X-25750D02*
X-25651D01*
X-26250D02*
X-26151D01*
X-27551D02*
X-27450D01*
X-30850D02*
X-28850D01*
X-31850D02*
X-31751D01*
X-33051D02*
X-32950D01*
X-36950D02*
X-36650D01*
X-37451D02*
X-37251D01*
X-38151D02*
X-37850D01*
X-31051Y-147325D02*
X-28751D01*
X-31150Y-147225D02*
X-28550D01*
X-22251Y-147125D02*
X-21850D01*
X-23350D02*
X-23151D01*
X-23950D02*
X-23651D01*
X-24651D02*
X-24250D01*
X-25850D02*
X-25451D01*
X-26450D02*
X-26050D01*
X-27051D02*
X-26651D01*
X-31251D02*
X-28451D01*
X-31951D02*
X-31651D01*
X-32651D02*
X-32250D01*
X-35050D02*
X-34751D01*
X-35651D02*
X-35350D01*
X-36250D02*
X-35950D01*
X-38750D02*
X-38350D01*
X-22251Y-147025D02*
X-21850D01*
X-23450D02*
X-23051D01*
X-24050D02*
X-23651D01*
X-24651D02*
X-24250D01*
X-25951D02*
X-25451D01*
X-26450D02*
X-26050D01*
X-27051D02*
X-26651D01*
X-31451D02*
X-28350D01*
X-32050D02*
X-31751D01*
X-32651D02*
X-32250D01*
X-35151D02*
X-34650D01*
X-35750D02*
X-35250D01*
X-36351D02*
X-35851D01*
X-38851D02*
X-38350D01*
X-22251Y-146925D02*
X-21850D01*
X-23450D02*
X-23051D01*
X-24050D02*
X-23651D01*
X-24651D02*
X-24250D01*
X-25951D02*
X-25451D01*
X-26450D02*
X-26050D01*
X-27051D02*
X-26651D01*
X-31550D02*
X-28251D01*
X-32050D02*
X-31751D01*
X-32651D02*
X-32250D01*
X-35050D02*
X-34650D01*
X-35750D02*
X-35250D01*
X-36351D02*
X-35851D01*
X-38851D02*
X-38350D01*
X-22251Y-146825D02*
X-21850D01*
X-23450D02*
X-23051D01*
X-24050D02*
X-23651D01*
X-24651D02*
X-24250D01*
X-25850D02*
X-25550D01*
X-26450D02*
X-26050D01*
X-26950D02*
X-26750D01*
X-31550D02*
X-28251D01*
X-31951D02*
X-31850D01*
X-32651D02*
X-32250D01*
X-35050D02*
X-34751D01*
X-35750D02*
X-35350D01*
X-36250D02*
X-35950D01*
X-38750D02*
X-38350D01*
X-23350Y-146725D02*
X-23250D01*
X-23950D02*
X-23751D01*
X-31651D02*
X-28150D01*
X-34951D02*
X-34850D01*
X-36151D02*
X-36051D01*
X-31751Y-146625D02*
X-28150D01*
X-32550D02*
X-32351D01*
X-36851D02*
X-36751D01*
X-22251Y-146525D02*
X-21850D01*
X-24651D02*
X-24250D01*
X-25850D02*
X-25451D01*
X-26450D02*
X-26050D01*
X-31751D02*
X-28150D01*
X-32651D02*
X-32250D01*
X-36250D02*
X-35950D01*
X-36950D02*
X-36551D01*
X-37551D02*
X-37150D01*
X-38750D02*
X-38451D01*
X-22251Y-146425D02*
X-21850D01*
X-24651D02*
X-24250D01*
X-25951D02*
X-25451D01*
X-26450D02*
X-26050D01*
X-31751D02*
X-28051D01*
X-32750D02*
X-32250D01*
X-36351D02*
X-35851D01*
X-37051D02*
X-36551D01*
X-37551D02*
X-37150D01*
X-38851D02*
X-38350D01*
X-22251Y-146325D02*
X-21850D01*
X-24651D02*
X-24250D01*
X-25951D02*
X-25451D01*
X-26450D02*
X-26050D01*
X-28550D02*
X-28051D01*
X-29351D02*
X-28850D01*
X-29950D02*
X-29451D01*
X-30850D02*
X-30051D01*
X-31850D02*
X-30950D01*
X-32651D02*
X-32250D01*
X-36351D02*
X-35851D01*
X-37051D02*
X-36551D01*
X-37551D02*
X-37150D01*
X-38851D02*
X-38350D01*
X-22151Y-146225D02*
X-21850D01*
X-24651D02*
X-24250D01*
X-25850D02*
X-25550D01*
X-26450D02*
X-26050D01*
X-28350D02*
X-28051D01*
X-29250D02*
X-29050D01*
X-29651D02*
X-29451D01*
X-30551D02*
X-30351D01*
X-31850D02*
X-31451D01*
X-32550D02*
X-32351D01*
X-36250D02*
X-35950D01*
X-36950D02*
X-36650D01*
X-37451D02*
X-37251D01*
X-38750D02*
X-38451D01*
X-28350Y-146125D02*
X-27951D01*
X-29250D02*
X-29050D01*
X-29651D02*
X-29451D01*
X-30051D02*
X-29950D01*
X-30650D02*
X-30450D01*
X-31850D02*
X-31350D01*
X-28251Y-146025D02*
X-27951D01*
X-28850D02*
X-28550D01*
X-29250D02*
X-29151D01*
X-29550D02*
X-29451D01*
X-30250D02*
X-29851D01*
X-31051D02*
X-30450D01*
X-31850D02*
X-31251D01*
X-21551Y-145925D02*
X-21250D01*
X-22151D02*
X-21850D01*
X-22750D02*
X-22451D01*
X-25150D02*
X-24850D01*
X-26351D02*
X-26151D01*
X-26950D02*
X-26750D01*
X-28251D02*
X-27951D01*
X-28951D02*
X-28451D01*
X-29250D02*
X-29151D01*
X-29550D02*
X-29451D01*
X-30250D02*
X-29750D01*
X-30950D02*
X-30450D01*
X-31951D02*
X-31150D01*
X-34451D02*
X-34150D01*
X-34951D02*
X-34751D01*
X-35651D02*
X-35350D01*
X-37551D02*
X-37251D01*
X-38151D02*
X-37850D01*
X-38651D02*
X-38451D01*
X-21551Y-145825D02*
X-21150D01*
X-22251D02*
X-21750D01*
X-22851D02*
X-22351D01*
X-25251D02*
X-24850D01*
X-26450D02*
X-26050D01*
X-27051D02*
X-26651D01*
X-28251D02*
X-27951D01*
X-28951D02*
X-28451D01*
X-29250D02*
X-29151D01*
X-29550D02*
X-29451D01*
X-30250D02*
X-29750D01*
X-30850D02*
X-30450D01*
X-31951D02*
X-31150D01*
X-34550D02*
X-34051D01*
X-35050D02*
X-34650D01*
X-35750D02*
X-35350D01*
X-37551D02*
X-37150D01*
X-38250D02*
X-37751D01*
X-38750D02*
X-38350D01*
X-21551Y-145725D02*
X-21150D01*
X-22251D02*
X-21750D01*
X-22851D02*
X-22351D01*
X-25251D02*
X-24850D01*
X-26450D02*
X-26050D01*
X-27051D02*
X-26651D01*
X-28251D02*
X-27951D01*
X-28850D02*
X-28550D01*
X-29250D02*
X-29151D01*
X-29550D02*
X-29451D01*
X-30250D02*
X-29851D01*
X-30850D02*
X-30450D01*
X-31951D02*
X-31051D01*
X-34550D02*
X-34051D01*
X-35050D02*
X-34650D01*
X-35750D02*
X-35250D01*
X-37650D02*
X-37150D01*
X-38250D02*
X-37751D01*
X-38851D02*
X-38350D01*
X-21551Y-145625D02*
X-21150D01*
X-22251D02*
X-21850D01*
X-22851D02*
X-22351D01*
X-25251D02*
X-24850D01*
X-26450D02*
X-26050D01*
X-27051D02*
X-26651D01*
X-28350D02*
X-27951D01*
X-29250D02*
X-29050D01*
X-29651D02*
X-29451D01*
X-30751D02*
X-30351D01*
X-31951D02*
X-30950D01*
X-34451D02*
X-34051D01*
X-35050D02*
X-34650D01*
X-35750D02*
X-35350D01*
X-37551D02*
X-37150D01*
X-38151D02*
X-37850D01*
X-38750D02*
X-38350D01*
X-21451Y-145525D02*
X-21250D01*
X-22151D02*
X-21950D01*
X-22650D02*
X-22550D01*
X-25150D02*
X-24950D01*
X-26351D02*
X-26151D01*
X-26950D02*
X-26750D01*
X-28451D02*
X-27951D01*
X-29250D02*
X-28951D01*
X-29651D02*
X-29451D01*
X-30650D02*
X-30250D01*
X-31951D02*
X-30850D01*
X-34350D02*
X-34150D01*
X-34951D02*
X-34850D01*
X-35651D02*
X-35451D01*
X-37451D02*
X-37251D01*
X-38050D02*
X-37951D01*
X-38651D02*
X-38550D01*
X-29250Y-145425D02*
X-27951D01*
X-30650D02*
X-29451D01*
X-31850D02*
X-31251D01*
X-21551Y-145325D02*
X-21250D01*
X-22151D02*
X-21850D01*
X-22750D02*
X-22451D01*
X-25251D02*
X-24850D01*
X-25850D02*
X-25550D01*
X-26351D02*
X-26151D01*
X-26950D02*
X-26651D01*
X-27650D02*
X-27351D01*
X-29250D02*
X-27951D01*
X-30551D02*
X-29451D01*
X-31850D02*
X-31451D01*
X-33151D02*
X-32851D01*
X-33751D02*
X-33450D01*
X-34451D02*
X-34150D01*
X-37551D02*
X-37150D01*
X-38750D02*
X-38451D01*
X-21551Y-145225D02*
X-21150D01*
X-22251D02*
X-21750D01*
X-22851D02*
X-22351D01*
X-25251D02*
X-24850D01*
X-25850D02*
X-25451D01*
X-26450D02*
X-26050D01*
X-27051D02*
X-26651D01*
X-27751D02*
X-27250D01*
X-29250D02*
X-28051D01*
X-30551D02*
X-29451D01*
X-31850D02*
X-31451D01*
X-33250D02*
X-32750D01*
X-33850D02*
X-33351D01*
X-34451D02*
X-34051D01*
X-37551D02*
X-37150D01*
X-38750D02*
X-38350D01*
X-21551Y-145125D02*
X-21150D01*
X-22251D02*
X-21750D01*
X-22851D02*
X-22351D01*
X-25251D02*
X-24850D01*
X-25951D02*
X-25451D01*
X-26450D02*
X-26050D01*
X-27051D02*
X-26550D01*
X-27751D02*
X-27250D01*
X-31850D02*
X-28051D01*
X-33250D02*
X-32851D01*
X-33850D02*
X-33351D01*
X-34451D02*
X-34051D01*
X-37551D02*
X-37150D01*
X-38851D02*
X-38350D01*
X-21551Y-145025D02*
X-21150D01*
X-22251D02*
X-21850D01*
X-22750D02*
X-22351D01*
X-25251D02*
X-24850D01*
X-25850D02*
X-25451D01*
X-26450D02*
X-26050D01*
X-27051D02*
X-26651D01*
X-27650D02*
X-27250D01*
X-31751D02*
X-28051D01*
X-33151D02*
X-32851D01*
X-33850D02*
X-33450D01*
X-34451D02*
X-34150D01*
X-37551D02*
X-37150D01*
X-38750D02*
X-38350D01*
X-21451Y-144925D02*
X-21350D01*
X-26851D02*
X-26750D01*
X-31751D02*
X-28150D01*
X-38651D02*
X-38550D01*
X-31651Y-144825D02*
X-28150D01*
X-22750Y-144725D02*
X-22451D01*
X-23250D02*
X-23151D01*
X-27551D02*
X-27351D01*
X-31651D02*
X-28251D01*
X-33151D02*
X-32950D01*
X-33751D02*
X-33450D01*
X-34451D02*
X-34150D01*
X-35050D02*
X-34751D01*
X-36250D02*
X-35950D01*
X-36851D02*
X-36650D01*
X-37451D02*
X-37251D01*
X-38050D02*
X-37951D01*
X-38651D02*
X-38550D01*
X-22851Y-144625D02*
X-22351D01*
X-23450D02*
X-23051D01*
X-26950D02*
X-26651D01*
X-27650D02*
X-27250D01*
X-31550D02*
X-28251D01*
X-32050D02*
X-31850D01*
X-33250D02*
X-32851D01*
X-33850D02*
X-33450D01*
X-34451D02*
X-34051D01*
X-35151D02*
X-34650D01*
X-36351D02*
X-35851D01*
X-36950D02*
X-36551D01*
X-37551D02*
X-37150D01*
X-38151D02*
X-37751D01*
X-38750D02*
X-38350D01*
X-22851Y-144525D02*
X-22351D01*
X-23450D02*
X-23051D01*
X-27051D02*
X-26550D01*
X-27751D02*
X-27250D01*
X-28051D02*
X-27850D01*
X-31451D02*
X-28350D01*
X-32050D02*
X-31751D01*
X-33250D02*
X-32851D01*
X-33850D02*
X-33351D01*
X-34550D02*
X-34051D01*
X-35151D02*
X-34650D01*
X-36351D02*
X-35851D01*
X-37051D02*
X-36551D01*
X-37551D02*
X-37150D01*
X-38250D02*
X-37751D01*
X-38851D02*
X-38350D01*
X-22750Y-144425D02*
X-22351D01*
X-23450D02*
X-23051D01*
X-27051D02*
X-26651D01*
X-27751D02*
X-27250D01*
X-28150D02*
X-27850D01*
X-31451D02*
X-28451D01*
X-32050D02*
X-31751D01*
X-33250D02*
X-32851D01*
X-33850D02*
X-33450D01*
X-34451D02*
X-34051D01*
X-35050D02*
X-34650D01*
X-36351D02*
X-35851D01*
X-36950D02*
X-36551D01*
X-37551D02*
X-37150D01*
X-38151D02*
X-37751D01*
X-38750D02*
X-38350D01*
X-22750Y-144325D02*
X-22451D01*
X-23350D02*
X-23151D01*
X-26950D02*
X-26651D01*
X-27650D02*
X-27351D01*
X-28150D02*
X-27951D01*
X-31251D02*
X-28550D01*
X-31951D02*
X-31751D01*
X-33151D02*
X-32950D01*
X-33751D02*
X-33551D01*
X-34350D02*
X-34150D01*
X-34951D02*
X-34850D01*
X-36151D02*
X-36051D01*
X-36851D02*
X-36650D01*
X-37451D02*
X-37251D01*
X-38050D02*
X-37850D01*
X-38750D02*
X-38451D01*
X-31150Y-144225D02*
X-28651D01*
X-21551Y-144125D02*
X-21250D01*
X-24050D02*
X-23651D01*
X-24651D02*
X-24250D01*
X-25150D02*
X-24850D01*
X-25850D02*
X-25550D01*
X-26450D02*
X-26151D01*
X-27551D02*
X-27351D01*
X-31051D02*
X-28751D01*
X-31951D02*
X-31651D01*
X-33151D02*
X-32950D01*
X-34451D02*
X-34150D01*
X-35651D02*
X-35350D01*
X-36250D02*
X-35950D01*
X-36950D02*
X-36650D01*
X-37451D02*
X-37251D01*
X-38651D02*
X-38451D01*
X-21551Y-144025D02*
X-21150D01*
X-24050D02*
X-23651D01*
X-24651D02*
X-24250D01*
X-25251D02*
X-24850D01*
X-25850D02*
X-25451D01*
X-26450D02*
X-26050D01*
X-27650D02*
X-27250D01*
X-30850D02*
X-28951D01*
X-32050D02*
X-31550D01*
X-33250D02*
X-32851D01*
X-34451D02*
X-34051D01*
X-35750D02*
X-35350D01*
X-36351D02*
X-35950D01*
X-36950D02*
X-36551D01*
X-37551D02*
X-37150D01*
X-38750D02*
X-38350D01*
X-21551Y-143925D02*
X-21150D01*
X-24050D02*
X-23651D01*
X-24651D02*
X-24250D01*
X-25251D02*
X-24850D01*
X-25850D02*
X-25451D01*
X-26450D02*
X-26050D01*
X-27650D02*
X-27250D01*
X-28751D02*
X-28550D01*
X-30751D02*
X-29151D01*
X-32050D02*
X-31550D01*
X-33250D02*
X-32750D01*
X-34451D02*
X-34051D01*
X-35750D02*
X-35350D01*
X-36351D02*
X-35851D01*
X-36950D02*
X-36551D01*
X-37551D02*
X-37150D01*
X-38750D02*
X-38350D01*
X-21551Y-143825D02*
X-21150D01*
X-24050D02*
X-23651D01*
X-24651D02*
X-24250D01*
X-25251D02*
X-24850D01*
X-25850D02*
X-25550D01*
X-26450D02*
X-26050D01*
X-27650D02*
X-27250D01*
X-28850D02*
X-28550D01*
X-30351D02*
X-29451D01*
X-32050D02*
X-31550D01*
X-33250D02*
X-32851D01*
X-34451D02*
X-34051D01*
X-35750D02*
X-35350D01*
X-36250D02*
X-35950D01*
X-36950D02*
X-36650D01*
X-37551D02*
X-37150D01*
X-38750D02*
X-38350D01*
X-27650Y-143725D02*
X-27351D01*
X-28850D02*
X-28651D01*
X-33051D02*
X-32950D01*
X-34350D02*
X-34150D01*
X-35550D02*
X-35451D01*
X-38651D02*
X-38451D01*
X-22050Y-143525D02*
X-21950D01*
X-34951D02*
X-34751D01*
X-22151Y-143425D02*
X-21750D01*
X-22750D02*
X-22451D01*
X-24050D02*
X-23651D01*
X-27650D02*
X-27351D01*
X-28951D02*
X-28550D01*
X-30751D02*
X-30351D01*
X-31951D02*
X-31651D01*
X-32651D02*
X-32351D01*
X-35050D02*
X-34650D01*
X-37451D02*
X-37150D01*
X-38750D02*
X-38451D01*
X-22251Y-143325D02*
X-21750D01*
X-22851D02*
X-22351D01*
X-24050D02*
X-23550D01*
X-27751D02*
X-27250D01*
X-28951D02*
X-28550D01*
X-30751D02*
X-30351D01*
X-32050D02*
X-31550D01*
X-32651D02*
X-32250D01*
X-35151D02*
X-34650D01*
X-37551D02*
X-37150D01*
X-38851D02*
X-38350D01*
X-22251Y-143225D02*
X-21750D01*
X-22851D02*
X-22351D01*
X-24050D02*
X-23550D01*
X-27751D02*
X-27250D01*
X-28951D02*
X-28550D01*
X-30751D02*
X-30351D01*
X-32050D02*
X-31550D01*
X-32651D02*
X-32250D01*
X-35050D02*
X-34650D01*
X-37551D02*
X-37150D01*
X-38851D02*
X-38350D01*
X-22151Y-143125D02*
X-21850D01*
X-22750D02*
X-22451D01*
X-23950D02*
X-23651D01*
X-27650D02*
X-27250D01*
X-28951D02*
X-28550D01*
X-30751D02*
X-30351D01*
X-31951D02*
X-31651D01*
X-32651D02*
X-32351D01*
X-35050D02*
X-34751D01*
X-37451D02*
X-37150D01*
X-38750D02*
X-38451D01*
X-27551Y-143025D02*
X-27450D01*
X-23851Y-142925D02*
X-23751D01*
X-24551D02*
X-24351D01*
X-25150D02*
X-24950D01*
X-25850D02*
X-25550D01*
X-26351D02*
X-26151D01*
X-27551D02*
X-27450D01*
X-28150D02*
X-27951D01*
X-33751D02*
X-33551D01*
X-34350D02*
X-34150D01*
X-36151D02*
X-36051D01*
X-36851D02*
X-36650D01*
X-21551Y-142825D02*
X-21150D01*
X-24050D02*
X-23651D01*
X-24651D02*
X-24250D01*
X-25251D02*
X-24850D01*
X-25850D02*
X-25451D01*
X-26450D02*
X-26050D01*
X-27051D02*
X-26651D01*
X-27650D02*
X-27250D01*
X-28251D02*
X-27850D01*
X-28951D02*
X-28550D01*
X-30751D02*
X-30351D01*
X-32050D02*
X-31651D01*
X-33850D02*
X-33351D01*
X-34451D02*
X-34051D01*
X-36250D02*
X-35851D01*
X-36950D02*
X-36551D01*
X-21551Y-142725D02*
X-21150D01*
X-24050D02*
X-23550D01*
X-24651D02*
X-24250D01*
X-25251D02*
X-24850D01*
X-25951D02*
X-25451D01*
X-26550D02*
X-26050D01*
X-27051D02*
X-26651D01*
X-27650D02*
X-27250D01*
X-28350D02*
X-27850D01*
X-28951D02*
X-28550D01*
X-30751D02*
X-30351D01*
X-32050D02*
X-31550D01*
X-33850D02*
X-33351D01*
X-34451D02*
X-34051D01*
X-36351D02*
X-35851D01*
X-36950D02*
X-36551D01*
X-21551Y-142625D02*
X-21150D01*
X-24050D02*
X-23651D01*
X-24651D02*
X-24250D01*
X-25251D02*
X-24850D01*
X-25850D02*
X-25451D01*
X-26450D02*
X-26050D01*
X-27051D02*
X-26651D01*
X-27650D02*
X-27250D01*
X-28251D02*
X-27850D01*
X-28951D02*
X-28550D01*
X-30751D02*
X-30351D01*
X-32050D02*
X-31550D01*
X-33850D02*
X-33351D01*
X-34451D02*
X-34051D01*
X-36351D02*
X-35851D01*
X-36950D02*
X-36551D01*
X-21451Y-142525D02*
X-21150D01*
X-23950D02*
X-23651D01*
X-24551D02*
X-24351D01*
X-25150D02*
X-24950D01*
X-25750D02*
X-25651D01*
X-26351D02*
X-26151D01*
X-27051D02*
X-26651D01*
X-27551D02*
X-27351D01*
X-28251D02*
X-27951D01*
X-28850D02*
X-28550D01*
X-30751D02*
X-30450D01*
X-31951D02*
X-31651D01*
X-33650D02*
X-33450D01*
X-34350D02*
X-34150D01*
X-36250D02*
X-35950D01*
X-36851D02*
X-36650D01*
X-21451Y-142325D02*
X-21250D01*
X-22151D02*
X-21850D01*
X-23350D02*
X-23051D01*
X-25150D02*
X-24850D01*
X-26450D02*
X-26151D01*
X-26950D02*
X-26750D01*
X-28150D02*
X-27951D01*
X-28850D02*
X-28550D01*
X-30650D02*
X-30450D01*
X-31350D02*
X-31150D01*
X-31850D02*
X-31751D01*
X-32550D02*
X-32351D01*
X-34451D02*
X-34150D01*
X-35050D02*
X-34751D01*
X-35651D02*
X-35451D01*
X-36851D02*
X-36650D01*
X-37451D02*
X-37251D01*
X-38750D02*
X-38451D01*
X-21551Y-142225D02*
X-21150D01*
X-22151D02*
X-21850D01*
X-23450D02*
X-23051D01*
X-25251D02*
X-24850D01*
X-26450D02*
X-26050D01*
X-27051D02*
X-26651D01*
X-28251D02*
X-27850D01*
X-28951D02*
X-28550D01*
X-30751D02*
X-30351D01*
X-31451D02*
X-31051D01*
X-32050D02*
X-31651D01*
X-32651D02*
X-32250D01*
X-34451D02*
X-34051D01*
X-35151D02*
X-34650D01*
X-35750D02*
X-35350D01*
X-36950D02*
X-36551D01*
X-37551D02*
X-37150D01*
X-38750D02*
X-38350D01*
X-21551Y-142125D02*
X-21150D01*
X-22251D02*
X-21750D01*
X-23450D02*
X-23051D01*
X-25251D02*
X-24850D01*
X-26550D02*
X-26050D01*
X-27051D02*
X-26651D01*
X-28251D02*
X-27850D01*
X-28951D02*
X-28550D01*
X-30751D02*
X-30351D01*
X-31451D02*
X-30950D01*
X-32050D02*
X-31550D01*
X-32651D02*
X-32250D01*
X-34550D02*
X-34051D01*
X-35151D02*
X-34650D01*
X-35750D02*
X-35350D01*
X-36950D02*
X-36551D01*
X-37551D02*
X-37150D01*
X-38851D02*
X-38350D01*
X-21551Y-142025D02*
X-21150D01*
X-22251D02*
X-21750D01*
X-23450D02*
X-23051D01*
X-25251D02*
X-24850D01*
X-26450D02*
X-26050D01*
X-27051D02*
X-26651D01*
X-28251D02*
X-27850D01*
X-28951D02*
X-28550D01*
X-30751D02*
X-30351D01*
X-31451D02*
X-30950D01*
X-32050D02*
X-31651D01*
X-32651D02*
X-32250D01*
X-34451D02*
X-34051D01*
X-35050D02*
X-34650D01*
X-35750D02*
X-35350D01*
X-36950D02*
X-36551D01*
X-37551D02*
X-37150D01*
X-38750D02*
X-38350D01*
X-21451Y-141925D02*
X-21250D01*
X-22151D02*
X-21950D01*
X-23350D02*
X-23151D01*
X-25150D02*
X-24950D01*
X-26351D02*
X-26151D01*
X-28051D02*
X-27951D01*
X-30650D02*
X-30450D01*
X-31350D02*
X-31051D01*
X-31850D02*
X-31751D01*
X-32451D02*
X-32351D01*
X-34350D02*
X-34251D01*
X-34951D02*
X-34850D01*
X-35651D02*
X-35451D01*
X-36851D02*
X-36751D01*
X-37451D02*
X-37251D01*
X-38651D02*
X-38451D01*
X-26450Y-141625D02*
X-26050D01*
X-28251D02*
X-27850D01*
X-28850D02*
X-28550D01*
X-29451D02*
X-29151D01*
X-31350D02*
X-31051D01*
X-32651D02*
X-32250D01*
X-33751D02*
X-33450D01*
X-26450Y-141525D02*
X-26050D01*
X-28251D02*
X-27850D01*
X-28951D02*
X-28550D01*
X-29550D02*
X-29050D01*
X-31451D02*
X-31051D01*
X-32651D02*
X-32250D01*
X-33850D02*
X-33351D01*
X-26450Y-141425D02*
X-26050D01*
X-28251D02*
X-27850D01*
X-28951D02*
X-28550D01*
X-29550D02*
X-29050D01*
X-31451D02*
X-31051D01*
X-32651D02*
X-32250D01*
X-33850D02*
X-33351D01*
X-26450Y-141325D02*
X-26151D01*
X-28150D02*
X-27951D01*
X-28951D02*
X-28550D01*
X-29451D02*
X-29151D01*
X-31451D02*
X-31051D01*
X-32651D02*
X-32250D01*
X-33751D02*
X-33450D01*
X-24651Y-141125D02*
X-21750D01*
X-26351D02*
X-26250D01*
X-38151D02*
X-35350D01*
X-24850Y-141025D02*
X-21551D01*
X-26450D02*
X-26050D01*
X-27650D02*
X-27250D01*
X-28951D02*
X-28550D01*
X-30150D02*
X-29750D01*
X-31451D02*
X-31051D01*
X-32651D02*
X-32250D01*
X-33751D02*
X-33450D01*
X-38451D02*
X-35050D01*
X-25051Y-140925D02*
X-21451D01*
X-26450D02*
X-26050D01*
X-27650D02*
X-27250D01*
X-28951D02*
X-28550D01*
X-30250D02*
X-29750D01*
X-31451D02*
X-31051D01*
X-32651D02*
X-32250D01*
X-33850D02*
X-33351D01*
X-38550D02*
X-34951D01*
X-25150Y-140825D02*
X-21350D01*
X-26450D02*
X-26050D01*
X-27650D02*
X-27250D01*
X-28951D02*
X-28550D01*
X-30250D02*
X-29750D01*
X-31451D02*
X-31051D01*
X-32651D02*
X-32250D01*
X-33850D02*
X-33351D01*
X-38651D02*
X-34850D01*
X-25150Y-140725D02*
X-21250D01*
X-26450D02*
X-26151D01*
X-27650D02*
X-27351D01*
X-28850D02*
X-28550D01*
X-30150D02*
X-29750D01*
X-31350D02*
X-31051D01*
X-32651D02*
X-32250D01*
X-33751D02*
X-33450D01*
X-38750D02*
X-34751D01*
X-25251Y-140625D02*
X-21150D01*
X-38750D02*
X-34650D01*
X-22151Y-140525D02*
X-21150D01*
X-22550D02*
X-22451D01*
X-25251D02*
X-22750D01*
X-35651D02*
X-34650D01*
X-36151D02*
X-35950D01*
X-38851D02*
X-36751D01*
X-21850Y-140425D02*
X-21150D01*
X-25350D02*
X-24551D01*
X-26450D02*
X-26151D01*
X-26950D02*
X-26651D01*
X-28850D02*
X-28651D01*
X-30650D02*
X-30450D01*
X-31951D02*
X-31751D01*
X-35350D02*
X-34650D01*
X-38851D02*
X-38050D01*
X-21750Y-140325D02*
X-21050D01*
X-25350D02*
X-24651D01*
X-26450D02*
X-26050D01*
X-27051D02*
X-26651D01*
X-28951D02*
X-28550D01*
X-30751D02*
X-30351D01*
X-32050D02*
X-31651D01*
X-35350D02*
X-34550D01*
X-38851D02*
X-38151D01*
X-21750Y-140225D02*
X-21050D01*
X-25350D02*
X-24651D01*
X-26450D02*
X-26050D01*
X-27051D02*
X-26651D01*
X-28951D02*
X-28550D01*
X-30751D02*
X-30351D01*
X-32050D02*
X-31651D01*
X-35250D02*
X-34550D01*
X-38851D02*
X-38250D01*
X-21750Y-140125D02*
X-21050D01*
X-25350D02*
X-24750D01*
X-26450D02*
X-26050D01*
X-27051D02*
X-26651D01*
X-28951D02*
X-28550D01*
X-30751D02*
X-30351D01*
X-32050D02*
X-31651D01*
X-35250D02*
X-34550D01*
X-38950D02*
X-38250D01*
X-21750Y-140025D02*
X-21050D01*
X-25350D02*
X-24750D01*
X-28850D02*
X-28651D01*
X-30650D02*
X-30551D01*
X-31951D02*
X-31751D01*
X-35250D02*
X-34550D01*
X-38950D02*
X-38250D01*
X-21750Y-139925D02*
X-21050D01*
X-23851D02*
X-22650D01*
X-25350D02*
X-24750D01*
X-35250D02*
X-34550D01*
X-37350D02*
X-36151D01*
X-38851D02*
X-38250D01*
X-21750Y-139825D02*
X-21050D01*
X-24050D02*
X-22451D01*
X-25350D02*
X-24750D01*
X-27051D02*
X-26651D01*
X-27650D02*
X-27351D01*
X-28251D02*
X-27850D01*
X-28850D02*
X-28550D01*
X-29451D02*
X-29151D01*
X-31350D02*
X-31051D01*
X-31951D02*
X-31651D01*
X-32651D02*
X-32351D01*
X-33151D02*
X-32851D01*
X-35250D02*
X-34550D01*
X-37551D02*
X-35950D01*
X-38950D02*
X-38250D01*
X-21750Y-139725D02*
X-21050D01*
X-24050D02*
X-22351D01*
X-25350D02*
X-24750D01*
X-27051D02*
X-26651D01*
X-27751D02*
X-27250D01*
X-28251D02*
X-27850D01*
X-28951D02*
X-28550D01*
X-29550D02*
X-29050D01*
X-31451D02*
X-31051D01*
X-32050D02*
X-31651D01*
X-32651D02*
X-32250D01*
X-33250D02*
X-32851D01*
X-35250D02*
X-34550D01*
X-37650D02*
X-35851D01*
X-38950D02*
X-38250D01*
X-21750Y-139625D02*
X-21050D01*
X-24150D02*
X-22351D01*
X-25350D02*
X-24750D01*
X-27051D02*
X-26651D01*
X-27751D02*
X-27250D01*
X-28251D02*
X-27850D01*
X-28951D02*
X-28550D01*
X-29550D02*
X-29050D01*
X-31451D02*
X-31051D01*
X-32050D02*
X-31550D01*
X-32750D02*
X-32250D01*
X-33250D02*
X-32851D01*
X-35250D02*
X-34550D01*
X-37650D02*
X-35851D01*
X-38950D02*
X-38250D01*
X-21750Y-139525D02*
X-21050D01*
X-24150D02*
X-22351D01*
X-25350D02*
X-24750D01*
X-26950D02*
X-26651D01*
X-27650D02*
X-27351D01*
X-28251D02*
X-27850D01*
X-28850D02*
X-28550D01*
X-29451D02*
X-29151D01*
X-31451D02*
X-31051D01*
X-31951D02*
X-31651D01*
X-32651D02*
X-32351D01*
X-33151D02*
X-32851D01*
X-35250D02*
X-34550D01*
X-37650D02*
X-35851D01*
X-38950D02*
X-38250D01*
X-21750Y-139425D02*
X-21050D01*
X-24150D02*
X-22351D01*
X-25350D02*
X-24750D01*
X-35250D02*
X-34550D01*
X-37650D02*
X-35851D01*
X-38950D02*
X-38250D01*
X-21750Y-139325D02*
X-21050D01*
X-24150D02*
X-22351D01*
X-25350D02*
X-24750D01*
X-35250D02*
X-34550D01*
X-37650D02*
X-35851D01*
X-38950D02*
X-38250D01*
X-21750Y-139225D02*
X-21050D01*
X-24150D02*
X-22351D01*
X-25350D02*
X-24750D01*
X-26351D02*
X-26151D01*
X-28150D02*
X-27951D01*
X-29351D02*
X-29250D01*
X-31850D02*
X-31751D01*
X-33650D02*
X-33450D01*
X-35250D02*
X-34550D01*
X-37650D02*
X-35851D01*
X-38851D02*
X-38250D01*
X-21750Y-139125D02*
X-21050D01*
X-24150D02*
X-22351D01*
X-25350D02*
X-24750D01*
X-26450D02*
X-26050D01*
X-28251D02*
X-27850D01*
X-29451D02*
X-29151D01*
X-30751D02*
X-30351D01*
X-32050D02*
X-31651D01*
X-32651D02*
X-32250D01*
X-33751D02*
X-33351D01*
X-35250D02*
X-34550D01*
X-37650D02*
X-35851D01*
X-38851D02*
X-38250D01*
X-21750Y-139025D02*
X-21050D01*
X-24150D02*
X-22351D01*
X-25350D02*
X-24750D01*
X-26550D02*
X-26050D01*
X-28251D02*
X-27850D01*
X-29550D02*
X-29050D01*
X-30751D02*
X-30351D01*
X-32050D02*
X-31550D01*
X-32651D02*
X-32250D01*
X-33850D02*
X-33351D01*
X-35250D02*
X-34550D01*
X-37650D02*
X-35851D01*
X-38851D02*
X-38250D01*
X-21750Y-138925D02*
X-21050D01*
X-24150D02*
X-22351D01*
X-25350D02*
X-24750D01*
X-26450D02*
X-26050D01*
X-28251D02*
X-27850D01*
X-29451D02*
X-29151D01*
X-30751D02*
X-30351D01*
X-32050D02*
X-31651D01*
X-32651D02*
X-32250D01*
X-33751D02*
X-33351D01*
X-35250D02*
X-34550D01*
X-37650D02*
X-35851D01*
X-38851D02*
X-38250D01*
X-21750Y-138825D02*
X-21050D01*
X-24150D02*
X-22351D01*
X-25350D02*
X-24750D01*
X-26351D02*
X-26151D01*
X-28150D02*
X-27951D01*
X-29351D02*
X-29250D01*
X-30650D02*
X-30450D01*
X-31951D02*
X-31751D01*
X-32550D02*
X-32351D01*
X-33751D02*
X-33551D01*
X-35250D02*
X-34550D01*
X-37650D02*
X-35851D01*
X-38851D02*
X-38250D01*
X-21750Y-138725D02*
X-21050D01*
X-24150D02*
X-22351D01*
X-25350D02*
X-24750D01*
X-35250D02*
X-34550D01*
X-37650D02*
X-35851D01*
X-38851D02*
X-38250D01*
X-21750Y-138625D02*
X-21050D01*
X-24150D02*
X-22351D01*
X-25350D02*
X-24750D01*
X-27650D02*
X-27351D01*
X-30751D02*
X-30450D01*
X-32550D02*
X-32351D01*
X-35250D02*
X-34550D01*
X-37650D02*
X-35851D01*
X-38851D02*
X-38250D01*
X-21750Y-138525D02*
X-21050D01*
X-24150D02*
X-22351D01*
X-25350D02*
X-24750D01*
X-27650D02*
X-27250D01*
X-30751D02*
X-30351D01*
X-32651D02*
X-32250D01*
X-35250D02*
X-34550D01*
X-37650D02*
X-35851D01*
X-38851D02*
X-38250D01*
X-21750Y-138425D02*
X-21050D01*
X-24150D02*
X-22351D01*
X-25350D02*
X-24750D01*
X-27751D02*
X-27250D01*
X-30751D02*
X-30351D01*
X-32651D02*
X-32250D01*
X-35250D02*
X-34550D01*
X-37650D02*
X-35851D01*
X-38851D02*
X-38250D01*
X-21750Y-138325D02*
X-21050D01*
X-24050D02*
X-22351D01*
X-25350D02*
X-24750D01*
X-27650D02*
X-27351D01*
X-30751D02*
X-30351D01*
X-32651D02*
X-32250D01*
X-35250D02*
X-34550D01*
X-37551D02*
X-35950D01*
X-38851D02*
X-38250D01*
X-21750Y-138225D02*
X-21050D01*
X-23950D02*
X-22451D01*
X-25350D02*
X-24750D01*
X-32550D02*
X-32351D01*
X-35250D02*
X-34550D01*
X-37451D02*
X-36051D01*
X-38851D02*
X-38250D01*
X-21750Y-138125D02*
X-21050D01*
X-23751D02*
X-22750D01*
X-25350D02*
X-24750D01*
X-35250D02*
X-34550D01*
X-36950D02*
X-36851D01*
X-38851D02*
X-38250D01*
X-21750Y-138025D02*
X-21050D01*
X-25350D02*
X-24750D01*
X-35250D02*
X-34550D01*
X-38851D02*
X-38250D01*
X-21750Y-137925D02*
X-21050D01*
X-25350D02*
X-24750D01*
X-26450D02*
X-26050D01*
X-27650D02*
X-27351D01*
X-30150D02*
X-29750D01*
X-31951D02*
X-31651D01*
X-33151D02*
X-32851D01*
X-33751D02*
X-33450D01*
X-35250D02*
X-34550D01*
X-38851D02*
X-38250D01*
X-21750Y-137825D02*
X-21050D01*
X-25350D02*
X-24651D01*
X-26450D02*
X-26050D01*
X-27650D02*
X-27250D01*
X-30250D02*
X-29750D01*
X-32050D02*
X-31651D01*
X-33250D02*
X-32750D01*
X-33850D02*
X-33351D01*
X-35250D02*
X-34650D01*
X-38851D02*
X-38151D01*
X-21850Y-137725D02*
X-21150D01*
X-25350D02*
X-24651D01*
X-26450D02*
X-26050D01*
X-27650D02*
X-27250D01*
X-30150D02*
X-29750D01*
X-32050D02*
X-31651D01*
X-33250D02*
X-32750D01*
X-33850D02*
X-33351D01*
X-35350D02*
X-34650D01*
X-38851D02*
X-38151D01*
X-21950Y-137625D02*
X-21150D01*
X-25251D02*
X-24551D01*
X-26450D02*
X-26050D01*
X-27650D02*
X-27351D01*
X-30150D02*
X-29851D01*
X-31951D02*
X-31651D01*
X-33151D02*
X-32851D01*
X-33751D02*
X-33450D01*
X-35451D02*
X-34650D01*
X-38851D02*
X-38050D01*
X-25251Y-137525D02*
X-21150D01*
X-38750D02*
X-34751D01*
X-25251Y-137425D02*
X-21250D01*
X-26950D02*
X-26750D01*
X-27650D02*
X-27351D01*
X-28150D02*
X-27951D01*
X-30051D02*
X-29851D01*
X-30751D02*
X-30450D01*
X-31350D02*
X-31150D01*
X-32451D02*
X-32351D01*
X-33051D02*
X-32950D01*
X-33751D02*
X-33551D01*
X-38750D02*
X-34751D01*
X-25150Y-137325D02*
X-21350D01*
X-27051D02*
X-26651D01*
X-27650D02*
X-27250D01*
X-28251D02*
X-27850D01*
X-30150D02*
X-29750D01*
X-30751D02*
X-30351D01*
X-31451D02*
X-31051D01*
X-32550D02*
X-32250D01*
X-33151D02*
X-32851D01*
X-33751D02*
X-33450D01*
X-38651D02*
X-34850D01*
X-25051Y-137225D02*
X-21350D01*
X-27051D02*
X-26651D01*
X-27751D02*
X-27250D01*
X-28251D02*
X-27850D01*
X-30250D02*
X-29750D01*
X-30751D02*
X-30351D01*
X-31451D02*
X-31051D01*
X-32651D02*
X-32250D01*
X-33250D02*
X-32750D01*
X-33850D02*
X-33351D01*
X-38550D02*
X-34951D01*
X-24950Y-137125D02*
X-21451D01*
X-27051D02*
X-26651D01*
X-27650D02*
X-27250D01*
X-28251D02*
X-27850D01*
X-30150D02*
X-29750D01*
X-30751D02*
X-30351D01*
X-31451D02*
X-31051D01*
X-32550D02*
X-32250D01*
X-33151D02*
X-32750D01*
X-33751D02*
X-33351D01*
X-38451D02*
X-35050D01*
X-24750Y-137025D02*
X-21651D01*
X-26950D02*
X-26651D01*
X-27551D02*
X-27351D01*
X-28150D02*
X-27951D01*
X-30150D02*
X-29851D01*
X-30650D02*
X-30450D01*
X-31350D02*
X-31150D01*
X-32550D02*
X-32351D01*
X-33151D02*
X-32851D01*
X-33751D02*
X-33450D01*
X-38350D02*
X-35151D01*
X-24451Y-136925D02*
X-21950D01*
X-38050D02*
X-35451D01*
X-10900Y-152025D02*
X-10801D01*
X-10900Y-151925D02*
X-10701D01*
X-10900Y-151825D02*
X-10600D01*
X-10900Y-151725D02*
X-10501D01*
X-10900Y-151625D02*
X-10401D01*
X-10900Y-151525D02*
X-10300D01*
X-10900Y-151425D02*
X-10200D01*
X-10900Y-151325D02*
X-10101D01*
X-10900Y-151225D02*
X-10001D01*
X-10900Y-151125D02*
X-9900D01*
X-10900Y-151025D02*
X-9800D01*
X-10900Y-150925D02*
X-9701D01*
X-10900Y-150825D02*
X-9601D01*
X-10900Y-150725D02*
X-9500D01*
X-10900Y-150625D02*
X-9401D01*
X-10900Y-150525D02*
X-9301D01*
X-10900Y-150425D02*
X-9301D01*
X-10900Y-150325D02*
X-9301D01*
X-10900Y-150225D02*
X-9301D01*
X-13201D02*
X-13001D01*
X-10900Y-150125D02*
X-9301D01*
X-13300D02*
X-12700D01*
X-10900Y-150025D02*
X-9301D01*
X-13400D02*
X-12501D01*
X-10900Y-149925D02*
X-9301D01*
X-13500D02*
X-12301D01*
X-10900Y-149825D02*
X-9301D01*
X-13600D02*
X-12100D01*
X-10900Y-149725D02*
X-9301D01*
X-13701D02*
X-11901D01*
X-10900Y-149625D02*
X-9301D01*
X-13801D02*
X-11801D01*
X-10900Y-149525D02*
X-9301D01*
X-13901D02*
X-11700D01*
X-10900Y-149425D02*
X-9301D01*
X-13901D02*
X-11501D01*
X-10900Y-149325D02*
X-9301D01*
X-14001D02*
X-11400D01*
X-10801Y-149225D02*
X-9301D01*
X-14100D02*
X-11300D01*
X-10701Y-149125D02*
X-9301D01*
X-14200D02*
X-11201D01*
X-10600Y-149025D02*
X-9301D01*
X-14300D02*
X-11201D01*
X-10600Y-148925D02*
X-9301D01*
X-14401D02*
X-11101D01*
X-10501Y-148825D02*
X-9301D01*
X-14501D02*
X-11000D01*
X-10501Y-148725D02*
X-9301D01*
X-13300D02*
X-11000D01*
X-14601D02*
X-14300D01*
X-10401Y-148625D02*
X-9301D01*
X-13001D02*
X-10900D01*
X-14701D02*
X-14501D01*
X-10401Y-148525D02*
X-9301D01*
X-12800D02*
X-10801D01*
X-14800D02*
X-14701D01*
X-10300Y-148425D02*
X-9301D01*
X-12700D02*
X-10801D01*
X-10300Y-148325D02*
X-9301D01*
X-12600D02*
X-10801D01*
X-10200Y-148225D02*
X-9301D01*
X-12400D02*
X-10701D01*
X-10200Y-148125D02*
X-9301D01*
X-12400D02*
X-10701D01*
X-10200Y-148025D02*
X-9301D01*
X-12301D02*
X-10701D01*
X-10101Y-147925D02*
X-9301D01*
X-12201D02*
X-10600D01*
X-15401D02*
X-15301D01*
X-10101Y-147825D02*
X-9301D01*
X-12201D02*
X-10600D01*
X-15500D02*
X-15401D01*
X-10101Y-147725D02*
X-9301D01*
X-12100D02*
X-10600D01*
X-15600D02*
X-15401D01*
X-10101Y-147625D02*
X-9301D01*
X-12100D02*
X-10501D01*
X-15700D02*
X-15500D01*
X-6401Y-147525D02*
X-6301D01*
X-10101D02*
X-9301D01*
X-12100D02*
X-10501D01*
X-15800D02*
X-15500D01*
X-6401Y-147425D02*
X-6200D01*
X-10001D02*
X-9301D01*
X-12000D02*
X-10501D01*
X-15901D02*
X-15500D01*
X-6500Y-147325D02*
X-6101D01*
X-10001D02*
X-9301D01*
X-12000D02*
X-10501D01*
X-16001D02*
X-15500D01*
X-6600Y-147225D02*
X-6001D01*
X-10001D02*
X-9301D01*
X-12000D02*
X-10501D01*
X-16101D02*
X-15500D01*
X-6701Y-147125D02*
X-5900D01*
X-10001D02*
X-9301D01*
X-12000D02*
X-10501D01*
X-16201D02*
X-15600D01*
X-6701Y-147025D02*
X-5801D01*
X-10001D02*
X-9301D01*
X-12000D02*
X-10501D01*
X-16300D02*
X-15500D01*
X-6801Y-146925D02*
X-5700D01*
X-10001D02*
X-9301D01*
X-12000D02*
X-10501D01*
X-16400D02*
X-15500D01*
X-6900Y-146825D02*
X-5601D01*
X-10001D02*
X-9301D01*
X-12100D02*
X-10501D01*
X-13801D02*
X-13701D01*
X-16500D02*
X-15500D01*
X-7000Y-146725D02*
X-5500D01*
X-10101D02*
X-9301D01*
X-12100D02*
X-10501D01*
X-13901D02*
X-13701D01*
X-16500D02*
X-15401D01*
X-7000Y-146625D02*
X-5401D01*
X-10101D02*
X-9301D01*
X-12100D02*
X-10501D01*
X-14001D02*
X-13600D01*
X-16601D02*
X-15401D01*
X-7101Y-146525D02*
X-5300D01*
X-10101D02*
X-9301D01*
X-12201D02*
X-10501D01*
X-14100D02*
X-13500D01*
X-16701D02*
X-15301D01*
X-7201Y-146425D02*
X-5201D01*
X-10101D02*
X-9301D01*
X-12400D02*
X-10600D01*
X-13701D02*
X-13400D01*
X-14200D02*
X-13801D01*
X-16801D02*
X-15201D01*
X-7300Y-146325D02*
X-5100D01*
X-10101D02*
X-9301D01*
X-12501D02*
X-10600D01*
X-13600D02*
X-13201D01*
X-14401D02*
X-13901D01*
X-16901D02*
X-15000D01*
X-7300Y-146225D02*
X-5001D01*
X-10200D02*
X-9301D01*
X-13400D02*
X-10600D01*
X-17000D02*
X-14100D01*
X-7401Y-146125D02*
X-5001D01*
X-10200D02*
X-9301D01*
X-13300D02*
X-10600D01*
X-17100D02*
X-14300D01*
X-7501Y-146025D02*
X-4901D01*
X-10200D02*
X-9301D01*
X-12501D02*
X-10701D01*
X-17200D02*
X-15100D01*
X-7600Y-145925D02*
X-4800D01*
X-10200D02*
X-9301D01*
X-12600D02*
X-10701D01*
X-17200D02*
X-15201D01*
X-7600Y-145825D02*
X-4701D01*
X-10300D02*
X-9301D01*
X-12700D02*
X-10801D01*
X-17300D02*
X-15301D01*
X-7700Y-145725D02*
X-4600D01*
X-10300D02*
X-9301D01*
X-12800D02*
X-10801D01*
X-17401D02*
X-15401D01*
X-7801Y-145625D02*
X-4600D01*
X-10401D02*
X-9301D01*
X-13001D02*
X-10900D01*
X-17501D02*
X-15500D01*
X-7901Y-145525D02*
X-4501D01*
X-10401D02*
X-9301D01*
X-14900D02*
X-10900D01*
X-17501D02*
X-15600D01*
X-7901Y-145425D02*
X-4400D01*
X-10501D02*
X-9301D01*
X-15100D02*
X-11000D01*
X-17601D02*
X-15700D01*
X-8000Y-145325D02*
X-4400D01*
X-10501D02*
X-9301D01*
X-15201D02*
X-11101D01*
X-17601D02*
X-15700D01*
X-8100Y-145225D02*
X-4301D01*
X-10600D02*
X-9301D01*
X-15301D02*
X-11201D01*
X-17700D02*
X-15800D01*
X-8201Y-145125D02*
X-4301D01*
X-10701D02*
X-9301D01*
X-15401D02*
X-11300D01*
X-17800D02*
X-15901D01*
X-6101Y-145025D02*
X-4200D01*
X-8301D02*
X-6301D01*
X-10801D02*
X-9301D01*
X-15401D02*
X-11300D01*
X-17800D02*
X-16001D01*
X-6001Y-144925D02*
X-4200D01*
X-8301D02*
X-6401D01*
X-10801D02*
X-9301D01*
X-15500D02*
X-11400D01*
X-17800D02*
X-16101D01*
X-5900Y-144825D02*
X-4101D01*
X-8400D02*
X-6500D01*
X-10900D02*
X-9301D01*
X-15600D02*
X-11501D01*
X-17900D02*
X-16101D01*
X-5801Y-144725D02*
X-4101D01*
X-8501D02*
X-6600D01*
X-10900D02*
X-9301D01*
X-15700D02*
X-11700D01*
X-17900D02*
X-16201D01*
X-5801Y-144625D02*
X-4101D01*
X-8601D02*
X-6600D01*
X-10900D02*
X-9301D01*
X-15700D02*
X-11700D01*
X-18000D02*
X-16300D01*
X-5700Y-144525D02*
X-4000D01*
X-8700D02*
X-6701D01*
X-10900D02*
X-9301D01*
X-15800D02*
X-11700D01*
X-18000D02*
X-16300D01*
X-5700Y-144425D02*
X-4000D01*
X-8700D02*
X-6801D01*
X-10900D02*
X-9301D01*
X-15901D02*
X-11700D01*
X-18101D02*
X-16400D01*
X-5601Y-144325D02*
X-4000D01*
X-8800D02*
X-6900D01*
X-10900D02*
X-9301D01*
X-15901D02*
X-11601D01*
X-18101D02*
X-16400D01*
X-5601Y-144225D02*
X-3901D01*
X-8901D02*
X-7000D01*
X-10900D02*
X-9301D01*
X-16001D02*
X-11501D01*
X-18101D02*
X-16500D01*
X-5500Y-144125D02*
X-3901D01*
X-9001D02*
X-7000D01*
X-10900D02*
X-9301D01*
X-16001D02*
X-11400D01*
X-18101D02*
X-16500D01*
X-5500Y-144025D02*
X-3901D01*
X-9100D02*
X-7101D01*
X-10900D02*
X-9301D01*
X-16101D02*
X-11300D01*
X-18201D02*
X-16500D01*
X-5401Y-143925D02*
X-3901D01*
X-9100D02*
X-7201D01*
X-10801D02*
X-9301D01*
X-13600D02*
X-11300D01*
X-18201D02*
X-16601D01*
X-5401Y-143825D02*
X-3801D01*
X-10801D02*
X-7300D01*
X-13300D02*
X-11201D01*
X-18201D02*
X-16601D01*
X-5401Y-143725D02*
X-3801D01*
X-10701D02*
X-7300D01*
X-13101D02*
X-11201D01*
X-18201D02*
X-16601D01*
X-5401Y-143625D02*
X-3801D01*
X-10701D02*
X-7401D01*
X-13001D02*
X-11101D01*
X-18201D02*
X-16601D01*
X-5300Y-143525D02*
X-3801D01*
X-10600D02*
X-7501D01*
X-12900D02*
X-11101D01*
X-18201D02*
X-16701D01*
X-5300Y-143425D02*
X-3801D01*
X-10600D02*
X-7600D01*
X-12800D02*
X-11101D01*
X-18201D02*
X-16701D01*
X-5300Y-143325D02*
X-3801D01*
X-10600D02*
X-7700D01*
X-12700D02*
X-11000D01*
X-18201D02*
X-16701D01*
X-5300Y-143225D02*
X-3801D01*
X-10501D02*
X-7700D01*
X-12600D02*
X-11000D01*
X-18201D02*
X-16701D01*
X-5300Y-143125D02*
X-3801D01*
X-10501D02*
X-7801D01*
X-12600D02*
X-11000D01*
X-18201D02*
X-16701D01*
X-5300Y-143025D02*
X-3801D01*
X-10501D02*
X-7901D01*
X-12501D02*
X-11000D01*
X-18201D02*
X-16701D01*
X-5300Y-142925D02*
X-3801D01*
X-10501D02*
X-8000D01*
X-12501D02*
X-10900D01*
X-18301D02*
X-16701D01*
X-5300Y-142825D02*
X-3801D01*
X-10501D02*
X-8100D01*
X-12501D02*
X-10900D01*
X-18301D02*
X-16701D01*
X-5300Y-142725D02*
X-3801D01*
X-10501D02*
X-8100D01*
X-12501D02*
X-10900D01*
X-18201D02*
X-16701D01*
X-5401Y-142625D02*
X-3801D01*
X-10501D02*
X-8201D01*
X-12400D02*
X-10900D01*
X-18201D02*
X-16701D01*
X-5401Y-142525D02*
X-3801D01*
X-10501D02*
X-8301D01*
X-12400D02*
X-10900D01*
X-18201D02*
X-16701D01*
X-5401Y-142425D02*
X-3801D01*
X-10501D02*
X-8400D01*
X-12400D02*
X-10900D01*
X-18201D02*
X-16601D01*
X-5401Y-142325D02*
X-3901D01*
X-10501D02*
X-8501D01*
X-12400D02*
X-10900D01*
X-18201D02*
X-16601D01*
X-5500Y-142225D02*
X-3901D01*
X-10501D02*
X-8501D01*
X-12400D02*
X-10900D01*
X-18201D02*
X-16601D01*
X-5500Y-142125D02*
X-3901D01*
X-10501D02*
X-8601D01*
X-12501D02*
X-10900D01*
X-18101D02*
X-16500D01*
X-5601Y-142025D02*
X-3901D01*
X-10501D02*
X-8700D01*
X-12501D02*
X-10900D01*
X-18101D02*
X-16500D01*
X-5601Y-141925D02*
X-4000D01*
X-10501D02*
X-8800D01*
X-12501D02*
X-10900D01*
X-18101D02*
X-16400D01*
X-5700Y-141825D02*
X-4000D01*
X-10501D02*
X-8800D01*
X-12501D02*
X-11000D01*
X-18101D02*
X-16400D01*
X-5700Y-141725D02*
X-4000D01*
X-10501D02*
X-8901D01*
X-12600D02*
X-11000D01*
X-18000D02*
X-16300D01*
X-5801Y-141625D02*
X-4101D01*
X-10501D02*
X-9001D01*
X-12700D02*
X-11000D01*
X-18000D02*
X-16201D01*
X-5900Y-141525D02*
X-4101D01*
X-10600D02*
X-9100D01*
X-12700D02*
X-11000D01*
X-18000D02*
X-16201D01*
X-6001Y-141425D02*
X-4101D01*
X-10600D02*
X-9100D01*
X-12800D02*
X-11101D01*
X-17900D02*
X-16101D01*
X-6101Y-141325D02*
X-4200D01*
X-10600D02*
X-9200D01*
X-12900D02*
X-11101D01*
X-17900D02*
X-16001D01*
X-6200Y-141225D02*
X-4200D01*
X-10600D02*
X-9301D01*
X-13001D02*
X-11101D01*
X-17800D02*
X-15800D01*
X-6401Y-141125D02*
X-4301D01*
X-10701D02*
X-9401D01*
X-13201D02*
X-11201D01*
X-17800D02*
X-15700D01*
X-6600Y-141025D02*
X-4301D01*
X-8901D02*
X-8700D01*
X-10701D02*
X-9401D01*
X-13300D02*
X-11201D01*
X-17700D02*
X-15500D01*
X-6801Y-140925D02*
X-4400D01*
X-9001D02*
X-8400D01*
X-10801D02*
X-9500D01*
X-13600D02*
X-11300D01*
X-17601D02*
X-15201D01*
X-7201Y-140825D02*
X-4501D01*
X-9001D02*
X-8100D01*
X-10801D02*
X-9601D01*
X-14001D02*
X-11400D01*
X-17601D02*
X-14800D01*
X-9100Y-140725D02*
X-4501D01*
X-10801D02*
X-9701D01*
X-17501D02*
X-11400D01*
X-9200Y-140625D02*
X-4600D01*
X-10701D02*
X-9701D01*
X-17401D02*
X-11501D01*
X-9301Y-140525D02*
X-4701D01*
X-10600D02*
X-9800D01*
X-17300D02*
X-11601D01*
X-9301Y-140425D02*
X-4800D01*
X-10501D02*
X-9900D01*
X-17300D02*
X-11700D01*
X-9401Y-140325D02*
X-4901D01*
X-10401D02*
X-10001D01*
X-17200D02*
X-11801D01*
X-9500Y-140225D02*
X-5001D01*
X-10300D02*
X-10001D01*
X-17000D02*
X-11901D01*
X-9601Y-140125D02*
X-5100D01*
X-16901D02*
X-12000D01*
X-9601Y-140025D02*
X-5201D01*
X-16801D02*
X-12100D01*
X-9701Y-139925D02*
X-5401D01*
X-16701D02*
X-12201D01*
X-9701Y-139825D02*
X-5500D01*
X-16500D02*
X-12400D01*
X-9601Y-139725D02*
X-5700D01*
X-16300D02*
X-12501D01*
X-9401Y-139625D02*
X-5900D01*
X-16201D02*
X-12700D01*
X-9200Y-139525D02*
X-6101D01*
X-15901D02*
X-12900D01*
X-8901Y-139425D02*
X-6401D01*
X-15600D02*
X-13201D01*
X-8501Y-139325D02*
X-6900D01*
X-15201D02*
X-13701D01*
D18*
X107672Y44183D02*
D03*
D19*
X103735Y49301D02*
D03*
X88774D02*
D03*
X80900Y43396D02*
D03*
X71255Y49301D02*
D03*
D20*
X99798Y46349D02*
D03*
X92711D02*
D03*
X84837D02*
D03*
X76963D02*
D03*
D21*
X95663Y43396D02*
D03*
D22*
X70270Y43396D02*
D03*
X65743D02*
D03*
M02*
