G04*
G04 #@! TF.GenerationSoftware,Altium Limited,Altium Designer,24.10.1 (45)*
G04*
G04 Layer_Color=8421504*
%FSLAX25Y25*%
%MOIN*%
G70*
G04*
G04 #@! TF.SameCoordinates,2527C48D-E229-4BF9-9412-56DB5BB32D7D*
G04*
G04*
G04 #@! TF.FilePolarity,Positive*
G04*
G01*
G75*
%ADD23R,0.05709X0.05709*%
%ADD24R,0.03150X0.01575*%
%ADD25R,0.01575X0.03150*%
%ADD26R,0.02756X0.02756*%
%ADD27R,0.13780X0.04724*%
%ADD28R,0.12205X0.07874*%
%ADD29O,0.02362X0.07087*%
%ADD30R,0.09449X0.19291*%
%ADD31R,0.03150X0.03150*%
%ADD32R,0.03150X0.06693*%
%ADD33R,0.05118X0.07874*%
%ADD34R,0.07874X0.07874*%
%ADD35R,0.06693X0.04724*%
%ADD36R,0.03150X0.03543*%
%ADD37R,0.03543X0.03150*%
%ADD38R,0.04724X0.13780*%
G36*
X80034Y-17439D02*
Y-20589D01*
X79837Y-20786D01*
X78884D01*
Y-19329D01*
X77585D01*
Y-20786D01*
X76687D01*
X76490Y-20589D01*
Y-17439D01*
X76687Y-17242D01*
X79837D01*
X80034Y-17439D01*
D02*
G37*
G36*
X110034Y-17473D02*
Y-20623D01*
X109837Y-20820D01*
X108884D01*
Y-19363D01*
X107585D01*
Y-20820D01*
X106687D01*
X106490Y-20623D01*
Y-17473D01*
X106687Y-17277D01*
X109837D01*
X110034Y-17473D01*
D02*
G37*
G36*
X86034D02*
Y-20623D01*
X85837Y-20820D01*
X84884D01*
Y-19363D01*
X83585D01*
Y-20820D01*
X82687D01*
X82490Y-20623D01*
Y-17473D01*
X82687Y-17277D01*
X85837D01*
X86034Y-17473D01*
D02*
G37*
G36*
X74034D02*
Y-20623D01*
X73837Y-20820D01*
X72884D01*
Y-19363D01*
X71585D01*
Y-20820D01*
X70687D01*
X70490Y-20623D01*
Y-17473D01*
X70687Y-17277D01*
X73837D01*
X74034Y-17473D01*
D02*
G37*
G36*
X68034D02*
Y-20623D01*
X67837Y-20820D01*
X66884D01*
Y-19363D01*
X65585D01*
Y-20820D01*
X64687D01*
X64490Y-20623D01*
Y-17473D01*
X64687Y-17277D01*
X67837D01*
X68034Y-17473D01*
D02*
G37*
G36*
X104034Y-17508D02*
Y-20658D01*
X103837Y-20854D01*
X102884D01*
Y-19398D01*
X101585D01*
Y-20854D01*
X100687D01*
X100490Y-20658D01*
Y-17508D01*
X100687Y-17311D01*
X103837D01*
X104034Y-17508D01*
D02*
G37*
G36*
X98034D02*
Y-20658D01*
X97837Y-20854D01*
X96884D01*
Y-19398D01*
X95585D01*
Y-20854D01*
X94687D01*
X94490Y-20658D01*
Y-17508D01*
X94687Y-17311D01*
X97837D01*
X98034Y-17508D01*
D02*
G37*
G36*
X92034D02*
Y-20658D01*
X91837Y-20854D01*
X90884D01*
Y-19398D01*
X89585D01*
Y-20854D01*
X88687D01*
X88490Y-20658D01*
Y-17508D01*
X88687Y-17311D01*
X91837D01*
X92034Y-17508D01*
D02*
G37*
G36*
X80033Y-23699D02*
Y-26849D01*
X79837Y-27045D01*
X76687D01*
X76490Y-26849D01*
Y-23699D01*
X76687Y-23502D01*
X77640D01*
Y-24959D01*
X78939D01*
Y-23502D01*
X79837D01*
X80033Y-23699D01*
D02*
G37*
G36*
X110034Y-23733D02*
Y-26883D01*
X109837Y-27080D01*
X106687D01*
X106490Y-26883D01*
Y-23733D01*
X106687Y-23537D01*
X107640D01*
Y-24993D01*
X108939D01*
Y-23537D01*
X109837D01*
X110034Y-23733D01*
D02*
G37*
G36*
X86033D02*
Y-26883D01*
X85837Y-27080D01*
X82687D01*
X82490Y-26883D01*
Y-23733D01*
X82687Y-23537D01*
X83640D01*
Y-24993D01*
X84939D01*
Y-23537D01*
X85837D01*
X86033Y-23733D01*
D02*
G37*
G36*
X74033D02*
Y-26883D01*
X73837Y-27080D01*
X70687D01*
X70490Y-26883D01*
Y-23733D01*
X70687Y-23537D01*
X71640D01*
Y-24993D01*
X72939D01*
Y-23537D01*
X73837D01*
X74033Y-23733D01*
D02*
G37*
G36*
X68033D02*
Y-26883D01*
X67837Y-27080D01*
X64687D01*
X64490Y-26883D01*
Y-23733D01*
X64687Y-23537D01*
X65640D01*
Y-24993D01*
X66939D01*
Y-23537D01*
X67837D01*
X68033Y-23733D01*
D02*
G37*
G36*
X104034Y-23768D02*
Y-26918D01*
X103837Y-27114D01*
X100687D01*
X100490Y-26918D01*
Y-23768D01*
X100687Y-23571D01*
X101640D01*
Y-25028D01*
X102939D01*
Y-23571D01*
X103837D01*
X104034Y-23768D01*
D02*
G37*
G36*
X98033D02*
Y-26918D01*
X97837Y-27114D01*
X94687D01*
X94490Y-26918D01*
Y-23768D01*
X94687Y-23571D01*
X95640D01*
Y-25028D01*
X96939D01*
Y-23571D01*
X97837D01*
X98033Y-23768D01*
D02*
G37*
G36*
X92033D02*
Y-26918D01*
X91837Y-27114D01*
X88687D01*
X88490Y-26918D01*
Y-23768D01*
X88687Y-23571D01*
X89640D01*
Y-25028D01*
X90939D01*
Y-23571D01*
X91837D01*
X92033Y-23768D01*
D02*
G37*
G36*
X-43313Y-26182D02*
Y-27135D01*
X-44769D01*
Y-28434D01*
X-43313D01*
Y-29332D01*
X-43510Y-29529D01*
X-46659D01*
X-46856Y-29332D01*
Y-26182D01*
X-46659Y-25986D01*
X-43510D01*
X-43313Y-26182D01*
D02*
G37*
G36*
X-37053Y-26182D02*
Y-29332D01*
X-37250Y-29529D01*
X-40399D01*
X-40596Y-29332D01*
Y-28379D01*
X-39140D01*
Y-27080D01*
X-40596D01*
Y-26182D01*
X-40399Y-25986D01*
X-37250D01*
X-37053Y-26182D01*
D02*
G37*
G36*
X86198Y-44392D02*
Y-47542D01*
X86001Y-47739D01*
X85048D01*
Y-46282D01*
X83749D01*
Y-47739D01*
X82852D01*
X82655Y-47542D01*
Y-44392D01*
X82852Y-44196D01*
X86001D01*
X86198Y-44392D01*
D02*
G37*
G36*
X105202Y-44412D02*
Y-47561D01*
X105005Y-47758D01*
X104052D01*
Y-46301D01*
X102753D01*
Y-47758D01*
X101856D01*
X101659Y-47561D01*
Y-44412D01*
X101856Y-44215D01*
X105005D01*
X105202Y-44412D01*
D02*
G37*
G36*
X98431D02*
Y-47561D01*
X98234Y-47758D01*
X97281D01*
Y-46301D01*
X95982D01*
Y-47758D01*
X95084D01*
X94887Y-47561D01*
Y-44412D01*
X95084Y-44215D01*
X98234D01*
X98431Y-44412D01*
D02*
G37*
G36*
X92431D02*
Y-47561D01*
X92234Y-47758D01*
X91281D01*
Y-46301D01*
X89982D01*
Y-47758D01*
X89084D01*
X88887Y-47561D01*
Y-44412D01*
X89084Y-44215D01*
X92234D01*
X92431Y-44412D01*
D02*
G37*
G36*
X72619D02*
Y-47561D01*
X72423Y-47758D01*
X71470D01*
Y-46301D01*
X70171D01*
Y-47758D01*
X69273D01*
X69076Y-47561D01*
Y-44412D01*
X69273Y-44215D01*
X72423D01*
X72619Y-44412D01*
D02*
G37*
G36*
X66619D02*
Y-47561D01*
X66423Y-47758D01*
X65470D01*
Y-46301D01*
X64171D01*
Y-47758D01*
X63273D01*
X63076Y-47561D01*
Y-44412D01*
X63273Y-44215D01*
X66423D01*
X66619Y-44412D01*
D02*
G37*
G36*
X86198Y-50652D02*
Y-53802D01*
X86001Y-53999D01*
X82851D01*
X82655Y-53802D01*
Y-50652D01*
X82851Y-50455D01*
X83804D01*
Y-51912D01*
X85104D01*
Y-50455D01*
X86001D01*
X86198Y-50652D01*
D02*
G37*
G36*
X105202Y-50672D02*
Y-53821D01*
X105005Y-54018D01*
X101856D01*
X101659Y-53821D01*
Y-50672D01*
X101856Y-50475D01*
X102808D01*
Y-51931D01*
X104108D01*
Y-50475D01*
X105005D01*
X105202Y-50672D01*
D02*
G37*
G36*
X98430D02*
Y-53821D01*
X98233Y-54018D01*
X95084D01*
X94887Y-53821D01*
Y-50672D01*
X95084Y-50475D01*
X96037D01*
Y-51931D01*
X97336D01*
Y-50475D01*
X98233D01*
X98430Y-50672D01*
D02*
G37*
G36*
X92430D02*
Y-53821D01*
X92234Y-54018D01*
X89084D01*
X88887Y-53821D01*
Y-50672D01*
X89084Y-50475D01*
X90037D01*
Y-51931D01*
X91336D01*
Y-50475D01*
X92234D01*
X92430Y-50672D01*
D02*
G37*
G36*
X72619D02*
Y-53821D01*
X72422Y-54018D01*
X69273D01*
X69076Y-53821D01*
Y-50672D01*
X69273Y-50475D01*
X70226D01*
Y-51931D01*
X71525D01*
Y-50475D01*
X72422D01*
X72619Y-50672D01*
D02*
G37*
G36*
X66619D02*
Y-53821D01*
X66422Y-54018D01*
X63273D01*
X63076Y-53821D01*
Y-50672D01*
X63273Y-50475D01*
X64226D01*
Y-51931D01*
X65525D01*
Y-50475D01*
X66422D01*
X66619Y-50672D01*
D02*
G37*
G36*
X-44186Y-72017D02*
Y-72969D01*
X-45643D01*
Y-74269D01*
X-44186D01*
Y-75166D01*
X-44383Y-75363D01*
X-47532D01*
X-47729Y-75166D01*
Y-72017D01*
X-47532Y-71820D01*
X-44383D01*
X-44186Y-72017D01*
D02*
G37*
G36*
X-37926Y-72017D02*
Y-75166D01*
X-38123Y-75363D01*
X-41272D01*
X-41469Y-75166D01*
Y-74213D01*
X-40013D01*
Y-72914D01*
X-41469D01*
Y-72017D01*
X-41272Y-71820D01*
X-38123D01*
X-37926Y-72017D01*
D02*
G37*
D23*
X79030Y17904D02*
D03*
X86805D02*
D03*
X94581D02*
D03*
Y10129D02*
D03*
Y2353D02*
D03*
X86805D02*
D03*
X79030D02*
D03*
Y10129D02*
D03*
X86805D02*
D03*
D24*
X63577Y25877D02*
D03*
Y22727D02*
D03*
Y19578D02*
D03*
Y16428D02*
D03*
Y13278D02*
D03*
Y10129D02*
D03*
Y6979D02*
D03*
Y3830D02*
D03*
Y680D02*
D03*
Y-2470D02*
D03*
Y-5619D02*
D03*
X110034D02*
D03*
Y-2470D02*
D03*
Y680D02*
D03*
Y3830D02*
D03*
Y6979D02*
D03*
Y10129D02*
D03*
Y13278D02*
D03*
Y16428D02*
D03*
Y19578D02*
D03*
Y22727D02*
D03*
Y25877D02*
D03*
D25*
X67908Y-9162D02*
D03*
X71057D02*
D03*
X74207D02*
D03*
X77356D02*
D03*
X80506D02*
D03*
X83656D02*
D03*
X86805D02*
D03*
X89955D02*
D03*
X93104D02*
D03*
X96254D02*
D03*
X99404D02*
D03*
X102553D02*
D03*
X105703D02*
D03*
Y29420D02*
D03*
X102553D02*
D03*
X99404D02*
D03*
X96254D02*
D03*
X93104D02*
D03*
X89955D02*
D03*
X86805D02*
D03*
X83656D02*
D03*
X80506D02*
D03*
X77356D02*
D03*
X74207D02*
D03*
X71057D02*
D03*
X67908D02*
D03*
D26*
X110230Y29617D02*
D03*
Y-9359D02*
D03*
X63380D02*
D03*
Y29617D02*
D03*
D27*
X110111Y-71624D02*
D03*
X89088D02*
D03*
D28*
X72034Y-75580D02*
D03*
D29*
X79599Y-64794D02*
D03*
X74599D02*
D03*
X69599D02*
D03*
X64600D02*
D03*
X79599Y-86625D02*
D03*
X74599D02*
D03*
X69599D02*
D03*
X64600D02*
D03*
D30*
X108686Y-99000D02*
D03*
X89000D02*
D03*
D31*
X110439Y-45985D02*
D03*
X110467Y-52280D02*
D03*
D32*
X-34857Y-37625D02*
D03*
X-48243D02*
D03*
X-48605Y-63625D02*
D03*
X-35219D02*
D03*
D33*
X130333Y-49706D02*
D03*
X121277D02*
D03*
D34*
X125805Y-65454D02*
D03*
D35*
X162000Y-6138D02*
D03*
Y6067D02*
D03*
X4Y-6072D02*
D03*
Y6133D02*
D03*
X162010Y-113109D02*
D03*
Y-100903D02*
D03*
X38Y-113132D02*
D03*
Y-100927D02*
D03*
D36*
X100489Y-115000D02*
D03*
X106000D02*
D03*
X-39156Y-54624D02*
D03*
X-44667D02*
D03*
X-39039Y-46625D02*
D03*
X-44550D02*
D03*
D37*
X76240Y-101083D02*
D03*
Y-95572D02*
D03*
X68240D02*
D03*
Y-101083D02*
D03*
X48262Y19311D02*
D03*
Y24822D02*
D03*
X56262D02*
D03*
Y19311D02*
D03*
X77205Y-51948D02*
D03*
Y-46437D02*
D03*
X171000Y-109511D02*
D03*
Y-104000D02*
D03*
X171000Y2755D02*
D03*
Y-2756D02*
D03*
X9000Y-110511D02*
D03*
Y-105000D02*
D03*
Y2511D02*
D03*
Y-3000D02*
D03*
X58034Y-78336D02*
D03*
Y-72825D02*
D03*
D38*
X64001Y-126788D02*
D03*
Y-147811D02*
D03*
M02*
