G04*
G04 #@! TF.GenerationSoftware,Altium Limited,Altium Designer,24.10.1 (45)*
G04*
G04 Layer_Color=16711935*
%FSLAX25Y25*%
%MOIN*%
G70*
G04*
G04 #@! TF.SameCoordinates,2527C48D-E229-4BF9-9412-56DB5BB32D7D*
G04*
G04*
G04 #@! TF.FilePolarity,Negative*
G04*
G01*
G75*
%ADD58C,0.03556*%
%ADD59R,0.06706X0.06706*%
%ADD60C,0.06706*%
%ADD61C,0.11800*%
%ADD62C,0.19685*%
%ADD63C,0.05131*%
%ADD64C,0.08674*%
%ADD65C,0.05800*%
%ADD66C,0.03200*%
D58*
X126750Y450D02*
D03*
X1076Y-71751D02*
D03*
X35249Y-1076D02*
D03*
X163076Y-71751D02*
D03*
X113064Y-9386D02*
D03*
X40000Y-46000D02*
D03*
X41000Y-62000D02*
D03*
X104000Y7000D02*
D03*
X117000Y16428D02*
D03*
X-46708Y-54624D02*
D03*
Y-46625D02*
D03*
X40600Y-30625D02*
D03*
X102600Y-2625D02*
D03*
X5599Y-57625D02*
D03*
X54599Y3375D02*
D03*
X6600Y-47625D02*
D03*
X83600Y-30625D02*
D03*
X125600Y-74184D02*
D03*
X102600Y-30625D02*
D03*
X90600Y-31625D02*
D03*
X99599Y2375D02*
D03*
Y10375D02*
D03*
Y18375D02*
D03*
X95034Y23420D02*
D03*
X84034D02*
D03*
X78034D02*
D03*
X89034D02*
D03*
D59*
X121599Y45375D02*
D03*
X173000D02*
D03*
X136600Y-146625D02*
D03*
D60*
X131599Y45375D02*
D03*
X141600D02*
D03*
X151600D02*
D03*
X161600D02*
D03*
X183000D02*
D03*
X126600Y-146625D02*
D03*
D61*
X110001Y-137811D02*
D03*
X90001D02*
D03*
D62*
X214599Y40375D02*
D03*
X215599Y-147625D02*
D03*
X-51401Y-148625D02*
D03*
X-52400Y41375D02*
D03*
D63*
X-5815Y6062D02*
D03*
X155816Y6068D02*
D03*
X68187Y-104658D02*
D03*
X61905Y-78276D02*
D03*
X84310Y-55627D02*
D03*
X71048Y-42401D02*
D03*
X90661Y-42436D02*
D03*
X114147Y-52277D02*
D03*
X68606Y-143779D02*
D03*
X96733Y-114953D02*
D03*
X82899Y-85899D02*
D03*
X89000Y-76000D02*
D03*
X112000Y-114000D02*
D03*
X111000Y-81000D02*
D03*
X19600Y-151446D02*
D03*
X-43945Y-64045D02*
D03*
X-41550Y-37625D02*
D03*
X52600Y-94625D02*
D03*
X59825Y-102155D02*
D03*
X59600Y-86625D02*
D03*
X103430Y-66456D02*
D03*
X155952Y-113097D02*
D03*
X-5916Y-113182D02*
D03*
D64*
X30882Y-141604D02*
D03*
X54405Y-141159D02*
D03*
D65*
X56207Y29348D02*
D03*
X48231Y29276D02*
D03*
D66*
X74068Y-73741D02*
D03*
Y-77678D02*
D03*
X70131D02*
D03*
Y-73741D02*
D03*
M02*
