G04*
G04 #@! TF.GenerationSoftware,Altium Limited,Altium Designer,24.10.1 (45)*
G04*
G04 Layer_Color=8421504*
%FSLAX25Y25*%
%MOIN*%
G70*
G04*
G04 #@! TF.SameCoordinates,D125F1F0-FD59-41E9-894A-6D37F1295767*
G04*
G04*
G04 #@! TF.FilePolarity,Positive*
G04*
G01*
G75*
%ADD23R,0.05709X0.05709*%
%ADD24R,0.03150X0.01575*%
%ADD25R,0.01575X0.03150*%
%ADD26R,0.02756X0.02756*%
%ADD27R,0.13780X0.04724*%
%ADD28R,0.12205X0.07874*%
%ADD29O,0.02362X0.07087*%
%ADD30R,0.09449X0.19291*%
%ADD31R,0.03150X0.03150*%
%ADD32R,0.03150X0.06693*%
%ADD33R,0.05118X0.07874*%
%ADD34R,0.07874X0.07874*%
%ADD35R,0.06693X0.04724*%
%ADD36R,0.03150X0.03543*%
%ADD37R,0.03543X0.03150*%
%ADD38R,0.04724X0.13780*%
G36*
X140628Y141809D02*
Y138660D01*
X140431Y138463D01*
X139478D01*
Y139919D01*
X138179D01*
Y138463D01*
X137281D01*
X137084Y138660D01*
Y141809D01*
X137281Y142006D01*
X140431D01*
X140628Y141809D01*
D02*
G37*
G36*
X170628Y141775D02*
Y138625D01*
X170431Y138428D01*
X169478D01*
Y139885D01*
X168179D01*
Y138428D01*
X167281D01*
X167084Y138625D01*
Y141775D01*
X167281Y141972D01*
X170431D01*
X170628Y141775D01*
D02*
G37*
G36*
X146628D02*
Y138625D01*
X146431Y138428D01*
X145478D01*
Y139885D01*
X144179D01*
Y138428D01*
X143281D01*
X143084Y138625D01*
Y141775D01*
X143281Y141972D01*
X146431D01*
X146628Y141775D01*
D02*
G37*
G36*
X134628D02*
Y138625D01*
X134431Y138428D01*
X133478D01*
Y139885D01*
X132179D01*
Y138428D01*
X131281D01*
X131084Y138625D01*
Y141775D01*
X131281Y141972D01*
X134431D01*
X134628Y141775D01*
D02*
G37*
G36*
X128628D02*
Y138625D01*
X128431Y138428D01*
X127478D01*
Y139885D01*
X126179D01*
Y138428D01*
X125281D01*
X125084Y138625D01*
Y141775D01*
X125281Y141972D01*
X128431D01*
X128628Y141775D01*
D02*
G37*
G36*
X164628Y141740D02*
Y138591D01*
X164431Y138394D01*
X163478D01*
Y139850D01*
X162179D01*
Y138394D01*
X161281D01*
X161084Y138591D01*
Y141740D01*
X161281Y141937D01*
X164431D01*
X164628Y141740D01*
D02*
G37*
G36*
X158628D02*
Y138591D01*
X158431Y138394D01*
X157478D01*
Y139850D01*
X156179D01*
Y138394D01*
X155281D01*
X155084Y138591D01*
Y141740D01*
X155281Y141937D01*
X158431D01*
X158628Y141740D01*
D02*
G37*
G36*
X152628D02*
Y138591D01*
X152431Y138394D01*
X151478D01*
Y139850D01*
X150179D01*
Y138394D01*
X149281D01*
X149084Y138591D01*
Y141740D01*
X149281Y141937D01*
X152431D01*
X152628Y141740D01*
D02*
G37*
G36*
X140628Y135549D02*
Y132400D01*
X140431Y132203D01*
X137281D01*
X137084Y132400D01*
Y135549D01*
X137281Y135746D01*
X138234D01*
Y134289D01*
X139533D01*
Y135746D01*
X140431D01*
X140628Y135549D01*
D02*
G37*
G36*
X170627Y135515D02*
Y132365D01*
X170431Y132168D01*
X167281D01*
X167084Y132365D01*
Y135515D01*
X167281Y135712D01*
X168234D01*
Y134255D01*
X169533D01*
Y135712D01*
X170431D01*
X170627Y135515D01*
D02*
G37*
G36*
X146627D02*
Y132365D01*
X146431Y132168D01*
X143281D01*
X143084Y132365D01*
Y135515D01*
X143281Y135712D01*
X144234D01*
Y134255D01*
X145533D01*
Y135712D01*
X146431D01*
X146627Y135515D01*
D02*
G37*
G36*
X134627D02*
Y132365D01*
X134431Y132168D01*
X131281D01*
X131084Y132365D01*
Y135515D01*
X131281Y135712D01*
X132234D01*
Y134255D01*
X133533D01*
Y135712D01*
X134431D01*
X134627Y135515D01*
D02*
G37*
G36*
X128628D02*
Y132365D01*
X128431Y132168D01*
X125281D01*
X125084Y132365D01*
Y135515D01*
X125281Y135712D01*
X126234D01*
Y134255D01*
X127533D01*
Y135712D01*
X128431D01*
X128628Y135515D01*
D02*
G37*
G36*
X164628Y135480D02*
Y132331D01*
X164431Y132134D01*
X161281D01*
X161084Y132331D01*
Y135480D01*
X161281Y135677D01*
X162234D01*
Y134220D01*
X163533D01*
Y135677D01*
X164431D01*
X164628Y135480D01*
D02*
G37*
G36*
X158627D02*
Y132331D01*
X158431Y132134D01*
X155281D01*
X155084Y132331D01*
Y135480D01*
X155281Y135677D01*
X156234D01*
Y134220D01*
X157533D01*
Y135677D01*
X158431D01*
X158627Y135480D01*
D02*
G37*
G36*
X152628D02*
Y132331D01*
X152431Y132134D01*
X149281D01*
X149084Y132331D01*
Y135480D01*
X149281Y135677D01*
X150234D01*
Y134220D01*
X151533D01*
Y135677D01*
X152431D01*
X152628Y135480D01*
D02*
G37*
G36*
X17281Y133066D02*
Y132113D01*
X15824D01*
Y130814D01*
X17281D01*
Y129916D01*
X17084Y129719D01*
X13935D01*
X13738Y129916D01*
Y133066D01*
X13935Y133263D01*
X17084D01*
X17281Y133066D01*
D02*
G37*
G36*
X23541Y133066D02*
Y129916D01*
X23344Y129719D01*
X20195D01*
X19998Y129916D01*
Y130869D01*
X21454D01*
Y132168D01*
X19998D01*
Y133066D01*
X20195Y133263D01*
X23344D01*
X23541Y133066D01*
D02*
G37*
G36*
X146792Y114856D02*
Y111706D01*
X146595Y111509D01*
X145642D01*
Y112966D01*
X144343D01*
Y111509D01*
X143446D01*
X143249Y111706D01*
Y114856D01*
X143446Y115053D01*
X146595D01*
X146792Y114856D01*
D02*
G37*
G36*
X165796Y114837D02*
Y111687D01*
X165599Y111490D01*
X164646D01*
Y112947D01*
X163347D01*
Y111490D01*
X162450D01*
X162253Y111687D01*
Y114837D01*
X162450Y115033D01*
X165599D01*
X165796Y114837D01*
D02*
G37*
G36*
X159025D02*
Y111687D01*
X158828Y111490D01*
X157875D01*
Y112947D01*
X156576D01*
Y111490D01*
X155678D01*
X155481Y111687D01*
Y114837D01*
X155678Y115033D01*
X158828D01*
X159025Y114837D01*
D02*
G37*
G36*
X153024D02*
Y111687D01*
X152828Y111490D01*
X151875D01*
Y112947D01*
X150576D01*
Y111490D01*
X149678D01*
X149481Y111687D01*
Y114837D01*
X149678Y115033D01*
X152828D01*
X153024Y114837D01*
D02*
G37*
G36*
X133214D02*
Y111687D01*
X133017Y111490D01*
X132064D01*
Y112947D01*
X130765D01*
Y111490D01*
X129867D01*
X129670Y111687D01*
Y114837D01*
X129867Y115033D01*
X133017D01*
X133214Y114837D01*
D02*
G37*
G36*
X127214D02*
Y111687D01*
X127017Y111490D01*
X126064D01*
Y112947D01*
X124765D01*
Y111490D01*
X123867D01*
X123670Y111687D01*
Y114837D01*
X123867Y115033D01*
X127017D01*
X127214Y114837D01*
D02*
G37*
G36*
X146792Y108596D02*
Y105446D01*
X146595Y105249D01*
X143446D01*
X143249Y105446D01*
Y108596D01*
X143446Y108793D01*
X144398D01*
Y107336D01*
X145698D01*
Y108793D01*
X146595D01*
X146792Y108596D01*
D02*
G37*
G36*
X165796Y108577D02*
Y105427D01*
X165599Y105230D01*
X162450D01*
X162253Y105427D01*
Y108577D01*
X162450Y108774D01*
X163402D01*
Y107317D01*
X164702D01*
Y108774D01*
X165599D01*
X165796Y108577D01*
D02*
G37*
G36*
X159024D02*
Y105427D01*
X158827Y105230D01*
X155678D01*
X155481Y105427D01*
Y108577D01*
X155678Y108774D01*
X156631D01*
Y107317D01*
X157930D01*
Y108774D01*
X158827D01*
X159024Y108577D01*
D02*
G37*
G36*
X153024D02*
Y105427D01*
X152828Y105230D01*
X149678D01*
X149481Y105427D01*
Y108577D01*
X149678Y108774D01*
X150631D01*
Y107317D01*
X151930D01*
Y108774D01*
X152828D01*
X153024Y108577D01*
D02*
G37*
G36*
X133213D02*
Y105427D01*
X133017Y105230D01*
X129867D01*
X129670Y105427D01*
Y108577D01*
X129867Y108774D01*
X130820D01*
Y107317D01*
X132119D01*
Y108774D01*
X133017D01*
X133213Y108577D01*
D02*
G37*
G36*
X127214D02*
Y105427D01*
X127017Y105230D01*
X123867D01*
X123670Y105427D01*
Y108577D01*
X123867Y108774D01*
X124820D01*
Y107317D01*
X126119D01*
Y108774D01*
X127017D01*
X127214Y108577D01*
D02*
G37*
G36*
X16408Y87232D02*
Y86279D01*
X14951D01*
Y84979D01*
X16408D01*
Y84082D01*
X16211Y83885D01*
X13062D01*
X12865Y84082D01*
Y87232D01*
X13062Y87428D01*
X16211D01*
X16408Y87232D01*
D02*
G37*
G36*
X22668Y87231D02*
Y84082D01*
X22471Y83885D01*
X19322D01*
X19125Y84082D01*
Y85035D01*
X20581D01*
Y86334D01*
X19125D01*
Y87231D01*
X19322Y87428D01*
X22471D01*
X22668Y87231D01*
D02*
G37*
D23*
X139623Y177153D02*
D03*
X147399D02*
D03*
X155175D02*
D03*
Y169377D02*
D03*
Y161601D02*
D03*
X147399D02*
D03*
X139623D02*
D03*
Y169377D02*
D03*
X147399D02*
D03*
D24*
X124171Y185125D02*
D03*
Y181975D02*
D03*
Y178826D02*
D03*
Y175676D02*
D03*
Y172527D02*
D03*
Y169377D02*
D03*
Y166227D02*
D03*
Y163078D02*
D03*
Y159928D02*
D03*
Y156779D02*
D03*
Y153629D02*
D03*
X170627D02*
D03*
Y156779D02*
D03*
Y159928D02*
D03*
Y163078D02*
D03*
Y166227D02*
D03*
Y169377D02*
D03*
Y172527D02*
D03*
Y175676D02*
D03*
Y178826D02*
D03*
Y181975D02*
D03*
Y185125D02*
D03*
D25*
X128501Y150086D02*
D03*
X131651D02*
D03*
X134801D02*
D03*
X137950D02*
D03*
X141100D02*
D03*
X144249D02*
D03*
X147399D02*
D03*
X150549D02*
D03*
X153698D02*
D03*
X156848D02*
D03*
X159997D02*
D03*
X163147D02*
D03*
X166297D02*
D03*
Y188668D02*
D03*
X163147D02*
D03*
X159997D02*
D03*
X156848D02*
D03*
X153698D02*
D03*
X150549D02*
D03*
X147399D02*
D03*
X144249D02*
D03*
X141100D02*
D03*
X137950D02*
D03*
X134801D02*
D03*
X131651D02*
D03*
X128501D02*
D03*
D26*
X170824Y188865D02*
D03*
Y149889D02*
D03*
X123974D02*
D03*
Y188865D02*
D03*
D27*
X170705Y87625D02*
D03*
X149682D02*
D03*
D28*
X132627Y83668D02*
D03*
D29*
X140193Y94454D02*
D03*
X135194D02*
D03*
X130193D02*
D03*
X125194D02*
D03*
X140193Y72623D02*
D03*
X135194D02*
D03*
X130193D02*
D03*
X125194D02*
D03*
D30*
X169280Y60248D02*
D03*
X149594D02*
D03*
D31*
X171033Y113263D02*
D03*
X171061Y106968D02*
D03*
D32*
X25736Y121624D02*
D03*
X12350D02*
D03*
X11989Y95624D02*
D03*
X25376D02*
D03*
D33*
X190927Y109542D02*
D03*
X181871D02*
D03*
D34*
X186399Y93794D02*
D03*
D35*
X222594Y153111D02*
D03*
Y165316D02*
D03*
X60598Y153176D02*
D03*
Y165381D02*
D03*
X222604Y46140D02*
D03*
Y58345D02*
D03*
X60632Y46116D02*
D03*
Y58321D02*
D03*
D36*
X161083Y44248D02*
D03*
X166594D02*
D03*
X21438Y104624D02*
D03*
X15927D02*
D03*
X21554Y112623D02*
D03*
X16044D02*
D03*
D37*
X136834Y58166D02*
D03*
Y63677D02*
D03*
X128834D02*
D03*
Y58166D02*
D03*
X108856Y178559D02*
D03*
Y184070D02*
D03*
X116856D02*
D03*
Y178559D02*
D03*
X137799Y107300D02*
D03*
Y112811D02*
D03*
X231594Y49737D02*
D03*
Y55248D02*
D03*
X231594Y162003D02*
D03*
Y156492D02*
D03*
X69594Y48737D02*
D03*
Y54248D02*
D03*
Y161759D02*
D03*
Y156248D02*
D03*
X118628Y80913D02*
D03*
Y86424D02*
D03*
D38*
X124595Y32460D02*
D03*
Y11437D02*
D03*
M02*
