G04*
G04 #@! TF.GenerationSoftware,Altium Limited,Altium Designer,24.10.1 (45)*
G04*
G04 Layer_Color=65535*
%FSLAX25Y25*%
%MOIN*%
G70*
G04*
G04 #@! TF.SameCoordinates,D125F1F0-FD59-41E9-894A-6D37F1295767*
G04*
G04*
G04 #@! TF.FilePolarity,Positive*
G04*
G01*
G75*
%ADD10C,0.00700*%
%ADD11C,0.01000*%
%ADD12C,0.01181*%
%ADD13C,0.00600*%
%ADD14C,0.00787*%
%ADD15C,0.00591*%
%ADD16C,0.00598*%
%ADD17C,0.00100*%
%ADD18R,0.01969X0.12205*%
%ADD19R,0.09843X0.01969*%
%ADD20R,0.01969X0.07874*%
%ADD21R,0.07874X0.01969*%
%ADD22R,0.01969X0.13780*%
G36*
X64122Y41443D02*
X57143D01*
Y42044D01*
X64122D01*
Y41443D01*
D02*
G37*
G36*
X119009Y32992D02*
X121217D01*
Y32212D01*
X119009D01*
Y31043D01*
X118229D01*
Y32212D01*
X116020D01*
Y32992D01*
X118229D01*
Y34161D01*
X119009D01*
Y32992D01*
D02*
G37*
G36*
Y9736D02*
X118229D01*
Y12854D01*
X119009D01*
Y9736D01*
D02*
G37*
G36*
X64087Y169454D02*
X57109D01*
Y170054D01*
X64087D01*
Y169454D01*
D02*
G37*
G36*
X61194Y161641D02*
X61779D01*
Y159869D01*
X63747D01*
Y158688D01*
X61194D01*
Y156180D01*
X60013D01*
Y158148D01*
X58241D01*
Y158688D01*
X57448D01*
Y159869D01*
X58241D01*
Y160510D01*
X59417D01*
Y161641D01*
X60013D01*
Y162479D01*
X61194D01*
Y161641D01*
D02*
G37*
G36*
X63662Y52809D02*
X63782D01*
Y51628D01*
X61813D01*
Y49857D01*
X59451D01*
Y49895D01*
X59332D01*
Y51628D01*
X57483D01*
Y51667D01*
X57363D01*
Y52848D01*
X63662D01*
Y52809D01*
D02*
G37*
G36*
X226082Y169388D02*
X219105D01*
Y169988D01*
X226082D01*
Y169388D01*
D02*
G37*
G36*
X223175Y161575D02*
X223775D01*
Y159804D01*
X225743D01*
Y158623D01*
X224947D01*
Y157360D01*
X223175D01*
Y155392D01*
X221994D01*
Y158623D01*
X219444D01*
Y159804D01*
X221412D01*
Y161575D01*
X221994D01*
Y161691D01*
X223175D01*
Y161575D01*
D02*
G37*
G36*
X151099Y93211D02*
X147981D01*
Y93991D01*
X151099D01*
Y93211D01*
D02*
G37*
G36*
X171237Y93991D02*
X172406D01*
Y93211D01*
X171237D01*
Y91003D01*
X170457D01*
Y93211D01*
X169288D01*
Y93991D01*
X170457D01*
Y96199D01*
X171237D01*
Y93991D01*
D02*
G37*
G36*
X225662Y52833D02*
X225754D01*
Y51652D01*
X223785D01*
Y49880D01*
X221423D01*
Y49895D01*
X221332D01*
Y51652D01*
X219455D01*
Y51667D01*
X219363D01*
Y52848D01*
X225662D01*
Y52833D01*
D02*
G37*
G36*
X226093Y41467D02*
X219115D01*
Y42067D01*
X226093D01*
Y41467D01*
D02*
G37*
G36*
X163245Y23687D02*
X161745D01*
Y21187D01*
X159745D01*
Y23687D01*
X158245D01*
X160745Y26187D01*
X163245Y23687D01*
D02*
G37*
D10*
X154478Y26060D02*
G03*
X154606Y25949I-3883J-4623D01*
G01*
X171395Y34237D02*
G03*
X171395Y34237I-640J0D01*
G01*
X151235D02*
G03*
X151235Y34237I-640J0D01*
G01*
X174469Y26067D02*
G03*
X174606Y25949I-3874J-4630D01*
G01*
X140595Y7337D02*
X180595D01*
X160795Y16237D02*
Y25137D01*
X139995Y32837D02*
Y35337D01*
X140595Y22337D02*
Y37337D01*
X180595D01*
Y35537D02*
Y37337D01*
X180095Y35537D02*
X180595D01*
X180095Y32437D02*
Y35537D01*
Y32437D02*
X180595D01*
Y7337D02*
Y32437D01*
X140595Y7337D02*
Y22337D01*
X140895Y30037D02*
X180595D01*
D11*
X116493Y192802D02*
G03*
X116493Y192802I-984J0D01*
G01*
X22194Y121624D02*
G03*
X22194Y121624I-3150J0D01*
G01*
X186399Y98554D02*
G03*
X186349Y98554I-25J3112D01*
G01*
X177670Y113479D02*
G03*
X177670Y113479I-1114J0D01*
G01*
X159586Y47044D02*
G03*
X158366Y45824I0J-1220D01*
G01*
Y42674D02*
G03*
X159586Y41454I1220J0D01*
G01*
X168091Y41453D02*
G03*
X169311Y42673I0J1220D01*
G01*
Y45822D02*
G03*
X168091Y47042I-1220J0D01*
G01*
X21833Y95624D02*
G03*
X21833Y95624I-3150J0D01*
G01*
X22935Y101828D02*
G03*
X24155Y103048I-0J1220D01*
G01*
Y106198D02*
G03*
X22935Y107417I-1220J0D01*
G01*
X14430Y107419D02*
G03*
X13210Y106199I0J-1220D01*
G01*
Y103050D02*
G03*
X14430Y101830I1220J-0D01*
G01*
X23051Y109828D02*
G03*
X24271Y111048I-0J1220D01*
G01*
Y114197D02*
G03*
X23051Y115417I-1220J0D01*
G01*
X14546Y115419D02*
G03*
X13327Y114199I0J-1220D01*
G01*
Y111049D02*
G03*
X14546Y109830I1220J-0D01*
G01*
X138408Y55449D02*
G03*
X139628Y56668I0J1220D01*
G01*
X134038D02*
G03*
X135258Y55449I1220J0D01*
G01*
X135260Y66393D02*
G03*
X134040Y65173I0J-1220D01*
G01*
X139629D02*
G03*
X138409Y66393I-1220J-0D01*
G01*
X127260Y66394D02*
G03*
X126040Y65174I-0J-1220D01*
G01*
X131629D02*
G03*
X130409Y66394I-1220J0D01*
G01*
X130408Y55449D02*
G03*
X131627Y56669I0J1220D01*
G01*
X126038D02*
G03*
X127258Y55449I1220J0D01*
G01*
X110430Y175842D02*
G03*
X111650Y177062I0J1220D01*
G01*
X106061D02*
G03*
X107280Y175842I1220J0D01*
G01*
X107282Y186786D02*
G03*
X106062Y185567I0J-1220D01*
G01*
X111652D02*
G03*
X110432Y186786I-1220J-0D01*
G01*
X115282Y186787D02*
G03*
X114062Y185567I-0J-1220D01*
G01*
X119651D02*
G03*
X118431Y186787I-1220J0D01*
G01*
X118430Y175842D02*
G03*
X119650Y177062I0J1220D01*
G01*
X114060D02*
G03*
X115280Y175842I1220J0D01*
G01*
X139373Y104583D02*
G03*
X140593Y105803I0J1220D01*
G01*
X135004D02*
G03*
X136223Y104583I1220J0D01*
G01*
X136225Y115527D02*
G03*
X135005Y114308I0J-1220D01*
G01*
X140595D02*
G03*
X139375Y115527I-1220J-0D01*
G01*
X233168Y47020D02*
G03*
X234388Y48240I0J1220D01*
G01*
X228799D02*
G03*
X230018Y47020I1220J0D01*
G01*
X230020Y57965D02*
G03*
X228800Y56745I0J-1220D01*
G01*
X234390D02*
G03*
X233170Y57965I-1220J-0D01*
G01*
X230020Y164720D02*
G03*
X228800Y163501I-0J-1220D01*
G01*
X234390D02*
G03*
X233170Y164720I-1220J0D01*
G01*
X233168Y153776D02*
G03*
X234388Y154996I0J1220D01*
G01*
X228799D02*
G03*
X230018Y153776I1220J0D01*
G01*
X71168Y46020D02*
G03*
X72388Y47240I0J1220D01*
G01*
X66799D02*
G03*
X68018Y46020I1220J0D01*
G01*
X68020Y56965D02*
G03*
X66800Y55745I0J-1220D01*
G01*
X72390D02*
G03*
X71170Y56965I-1220J-0D01*
G01*
X68020Y164476D02*
G03*
X66800Y163256I-0J-1220D01*
G01*
X72389D02*
G03*
X71170Y164476I-1220J0D01*
G01*
X71168Y153532D02*
G03*
X72388Y154751I0J1220D01*
G01*
X66798D02*
G03*
X68018Y153532I1220J0D01*
G01*
X115832Y79416D02*
G03*
X117052Y78196I1220J0D01*
G01*
X120202D02*
G03*
X121421Y79416I0J1220D01*
G01*
X121423Y87921D02*
G03*
X120203Y89141I-1220J0D01*
G01*
X117054D02*
G03*
X115834Y87921I-0J-1220D01*
G01*
X121415Y147330D02*
X173383D01*
X121415D02*
Y212684D01*
X173383Y147330D02*
Y212684D01*
X121415D02*
X173383D01*
X159437Y72059D02*
X171248D01*
Y70607D02*
Y72059D01*
Y48437D02*
Y49889D01*
X147626Y48437D02*
X171248D01*
X147626D02*
Y49889D01*
Y70607D02*
Y72059D01*
X159437D01*
X13138Y126545D02*
X24949Y126545D01*
X13138Y116702D02*
X24949Y116702D01*
X13138Y125880D02*
Y126545D01*
X24949D01*
Y125880D02*
Y126545D01*
Y116702D02*
Y117367D01*
X13138Y116702D02*
X24949D01*
X13138D02*
Y117344D01*
X191246Y92810D02*
X195257D01*
X177541D02*
X181552D01*
X177541Y110527D02*
X178402D01*
X185340D02*
X187458D01*
X194396D02*
X195257D01*
X177541Y92810D02*
Y110527D01*
X195257Y92810D02*
Y110527D01*
X186399Y98716D02*
Y104621D01*
X193289D02*
X195257D01*
X193289Y97731D02*
Y104621D01*
Y97731D02*
X195257D01*
X177541D02*
X179509D01*
Y104621D01*
X177541D02*
X179509D01*
X169311Y42672D02*
Y45822D01*
X158366Y42674D02*
Y45824D01*
X164942Y47042D02*
X168091D01*
X159586Y47044D02*
X162735D01*
X164942Y41453D02*
X168091D01*
X159586Y41454D02*
X162735D01*
X12777Y90702D02*
Y91345D01*
Y90702D02*
X24588D01*
Y91367D01*
Y99880D02*
Y100545D01*
X12777D02*
X24588D01*
X12777Y99880D02*
Y100545D01*
Y90702D02*
X24588Y90702D01*
X12777Y100545D02*
X24588Y100545D01*
X13210Y103050D02*
Y106200D01*
X24155Y103048D02*
Y106198D01*
X14430Y101830D02*
X17579D01*
X19786Y101828D02*
X22935D01*
X14430Y107419D02*
X17579D01*
X19786Y107417D02*
X22935D01*
X13327Y111049D02*
Y114199D01*
X24271Y111047D02*
Y114197D01*
X14546Y109830D02*
X17696D01*
X19902Y109828D02*
X23052D01*
X14546Y115419D02*
X17696D01*
X19902Y115417D02*
X23052D01*
X134040Y62024D02*
Y65174D01*
X134038Y56668D02*
Y59818D01*
X139629Y62024D02*
Y65174D01*
X139628Y56668D02*
Y59818D01*
X135260Y66393D02*
X138410D01*
X135258Y55449D02*
X138408D01*
X131627Y56668D02*
Y59818D01*
X131629Y62024D02*
Y65174D01*
X126038Y56668D02*
Y59818D01*
X126040Y62024D02*
Y65174D01*
X127258Y55449D02*
X130408D01*
X127260Y66394D02*
X130410D01*
X106062Y182418D02*
Y185567D01*
X106061Y177061D02*
Y180211D01*
X111652Y182418D02*
Y185567D01*
X111650Y177061D02*
Y180211D01*
X107282Y186786D02*
X110432D01*
X107280Y175842D02*
X110430D01*
X119650Y177062D02*
Y180211D01*
X119651Y182418D02*
Y185567D01*
X114060Y177062D02*
Y180211D01*
X114062Y182418D02*
Y185567D01*
X115280Y175842D02*
X118430D01*
X115282Y186787D02*
X118432D01*
X135005Y111158D02*
Y114308D01*
X135004Y105802D02*
Y108952D01*
X140595Y111158D02*
Y114308D01*
X140593Y105802D02*
Y108952D01*
X136225Y115527D02*
X139375D01*
X136223Y104583D02*
X139373D01*
X228800Y53596D02*
Y56745D01*
X228799Y48240D02*
Y51389D01*
X234390Y53596D02*
Y56745D01*
X234388Y48240D02*
Y51389D01*
X230020Y57965D02*
X233170D01*
X230018Y47020D02*
X233168D01*
X234388Y154995D02*
Y158145D01*
X234390Y160351D02*
Y163501D01*
X228799Y154995D02*
Y158145D01*
X228800Y160351D02*
Y163501D01*
X230018Y153776D02*
X233168D01*
X230020Y164720D02*
X233170D01*
X66800Y52596D02*
Y55745D01*
X66799Y47240D02*
Y50389D01*
X72390Y52596D02*
Y55745D01*
X72388Y47240D02*
Y50389D01*
X68020Y56965D02*
X71170D01*
X68018Y46020D02*
X71168D01*
X72388Y154751D02*
Y157901D01*
X72389Y160107D02*
Y163257D01*
X66798Y154751D02*
Y157901D01*
X66800Y160107D02*
Y163257D01*
X68018Y153532D02*
X71168D01*
X68020Y164476D02*
X71170D01*
X117054Y89141D02*
X120203D01*
X117052Y78196D02*
X120202D01*
X115834Y84772D02*
Y87921D01*
X115832Y79416D02*
Y82565D01*
X121423Y84772D02*
Y87921D01*
X121421Y79416D02*
Y82565D01*
X234530Y196248D02*
Y193624D01*
Y194936D01*
X230594D01*
X234530Y192312D02*
X230594Y189689D01*
X234530D02*
X230594Y192312D01*
X242594Y196248D02*
X246530D01*
Y194280D01*
X245874Y193624D01*
X244562D01*
X243906Y194280D01*
Y196248D01*
Y194936D02*
X242594Y193624D01*
X246530Y192312D02*
X242594Y189689D01*
X246530D02*
X242594Y192312D01*
X219548Y187006D02*
Y188318D01*
Y187662D01*
X223483D01*
Y187006D01*
Y188318D01*
X219548Y192253D02*
Y190942D01*
X220204Y190286D01*
X222828D01*
X223483Y190942D01*
Y192253D01*
X222828Y192910D01*
X220204D01*
X219548Y192253D01*
Y196845D02*
Y194221D01*
X221516D01*
X220860Y195533D01*
Y196189D01*
X221516Y196845D01*
X222828D01*
X223483Y196189D01*
Y194877D01*
X222828Y194221D01*
X210258Y182624D02*
Y183935D01*
Y183279D01*
X214194D01*
Y182624D01*
Y183935D01*
X210258Y187871D02*
Y186559D01*
X210914Y185903D01*
X213538D01*
X214194Y186559D01*
Y187871D01*
X213538Y188527D01*
X210914D01*
X210258Y187871D01*
X214194Y192463D02*
Y189839D01*
X211570Y192463D01*
X210914D01*
X210258Y191807D01*
Y190495D01*
X210914Y189839D01*
Y193775D02*
X210258Y194431D01*
Y195743D01*
X210914Y196399D01*
X211570D01*
X212226Y195743D01*
Y195087D01*
Y195743D01*
X212882Y196399D01*
X213538D01*
X214194Y195743D01*
Y194431D01*
X213538Y193775D01*
X200258Y182624D02*
Y183935D01*
Y183279D01*
X204193D01*
Y182624D01*
Y183935D01*
X200258Y187871D02*
Y186559D01*
X200914Y185903D01*
X203538D01*
X204193Y186559D01*
Y187871D01*
X203538Y188527D01*
X200914D01*
X200258Y187871D01*
X204193Y192463D02*
Y189839D01*
X201570Y192463D01*
X200914D01*
X200258Y191807D01*
Y190495D01*
X200914Y189839D01*
X204193Y196399D02*
Y193775D01*
X201570Y196399D01*
X200914D01*
X200258Y195743D01*
Y194431D01*
X200914Y193775D01*
X190258Y184624D02*
Y185935D01*
Y185279D01*
X194193D01*
Y184624D01*
Y185935D01*
X190258Y189871D02*
Y188559D01*
X190914Y187903D01*
X193538D01*
X194193Y188559D01*
Y189871D01*
X193538Y190527D01*
X190914D01*
X190258Y189871D01*
X194193Y194463D02*
Y191839D01*
X191570Y194463D01*
X190914D01*
X190258Y193807D01*
Y192495D01*
X190914Y191839D01*
X194193Y195775D02*
Y197087D01*
Y196431D01*
X190258D01*
X190914Y195775D01*
X183570Y194344D02*
X184226Y193688D01*
X185538D01*
X186194Y194344D01*
Y196967D01*
X185538Y197624D01*
X184226D01*
X183570Y196967D01*
Y195656D01*
X184882D01*
X182258Y197624D02*
Y193688D01*
X179634Y197624D01*
Y193688D01*
X178322D02*
Y197624D01*
X176354D01*
X175698Y196967D01*
Y194344D01*
X176354Y193688D01*
X178322D01*
X4258Y90623D02*
X8194D01*
Y92591D01*
X7538Y93247D01*
X6882D01*
X6226Y92591D01*
Y90623D01*
Y92591D01*
X5570Y93247D01*
X4914D01*
X4258Y92591D01*
Y90623D01*
Y96527D02*
Y95215D01*
X4914Y94559D01*
X7538D01*
X8194Y95215D01*
Y96527D01*
X7538Y97183D01*
X4914D01*
X4258Y96527D01*
Y100463D02*
Y99151D01*
X4914Y98495D01*
X7538D01*
X8194Y99151D01*
Y100463D01*
X7538Y101119D01*
X4914D01*
X4258Y100463D01*
Y102431D02*
Y105054D01*
Y103743D01*
X8194D01*
X4258Y119247D02*
Y116623D01*
X8194D01*
Y119247D01*
X6226Y116623D02*
Y117935D01*
X8194Y120559D02*
X4258D01*
X8194Y123183D01*
X4258D01*
X147381Y4820D02*
X146856Y5345D01*
X145807D01*
X145282Y4820D01*
Y2721D01*
X145807Y2196D01*
X146856D01*
X147381Y2721D01*
Y3770D01*
X146331D01*
X148430Y2196D02*
Y5345D01*
X150529Y2196D01*
Y5345D01*
X151579D02*
Y2196D01*
X153153D01*
X153678Y2721D01*
Y4820D01*
X153153Y5345D01*
X151579D01*
X168293Y4772D02*
X166193D01*
Y3198D01*
X167243Y3723D01*
X167768D01*
X168293Y3198D01*
Y2148D01*
X167768Y1623D01*
X166718D01*
X166193Y2148D01*
X169342Y4772D02*
Y2673D01*
X170392Y1623D01*
X171441Y2673D01*
Y4772D01*
X181193Y5247D02*
X181718Y5772D01*
X182768D01*
X183293Y5247D01*
Y4723D01*
X182768Y4198D01*
X182243D01*
X182768D01*
X183293Y3673D01*
Y3148D01*
X182768Y2623D01*
X181718D01*
X181193Y3148D01*
X184342Y5772D02*
Y3673D01*
X185392Y2623D01*
X186441Y3673D01*
Y5772D01*
X187491Y5247D02*
X188015Y5772D01*
X189065D01*
X189590Y5247D01*
Y4723D01*
X189065Y4198D01*
X188540D01*
X189065D01*
X189590Y3673D01*
Y3148D01*
X189065Y2623D01*
X188015D01*
X187491Y3148D01*
X196293Y5247D02*
X195768Y5772D01*
X194718D01*
X194193Y5247D01*
Y3148D01*
X194718Y2623D01*
X195768D01*
X196293Y3148D01*
Y4198D01*
X195243D01*
X197342Y2623D02*
Y5772D01*
X199441Y2623D01*
Y5772D01*
X200491D02*
Y2623D01*
X202065D01*
X202590Y3148D01*
Y5247D01*
X202065Y5772D01*
X200491D01*
X217970Y8674D02*
Y11822D01*
X219545D01*
X220069Y11298D01*
Y10248D01*
X219545Y9723D01*
X217970D01*
X221119Y11298D02*
X221644Y11822D01*
X222693D01*
X223218Y11298D01*
Y10773D01*
X222693Y10248D01*
X222168D01*
X222693D01*
X223218Y9723D01*
Y9199D01*
X222693Y8674D01*
X221644D01*
X221119Y9199D01*
X149594Y42936D02*
X150250Y42280D01*
X151562D01*
X152218Y42936D01*
Y45560D01*
X151562Y46216D01*
X150250D01*
X149594Y45560D01*
X148282Y46216D02*
X146970D01*
X147626D01*
Y42280D01*
X148282Y42936D01*
X80161Y105344D02*
X76226D01*
Y107312D01*
X76882Y107967D01*
X78193D01*
X78850Y107312D01*
Y105344D01*
Y106656D02*
X80161Y107967D01*
X76226Y109280D02*
Y111903D01*
X76882D01*
X79505Y109280D01*
X80161D01*
X74161Y105344D02*
X70226D01*
Y107312D01*
X70882Y107967D01*
X72193D01*
X72850Y107312D01*
Y105344D01*
Y106656D02*
X74161Y107967D01*
X70882Y109280D02*
X70226Y109935D01*
Y111247D01*
X70882Y111903D01*
X71538D01*
X72193Y111247D01*
Y110591D01*
Y111247D01*
X72850Y111903D01*
X73505D01*
X74161Y111247D01*
Y109935D01*
X73505Y109280D01*
X99194Y5656D02*
X100505D01*
X99849D01*
Y8935D01*
X100505Y9591D01*
X101161D01*
X101817Y8935D01*
X97882Y9591D02*
X96570D01*
X97226D01*
Y5656D01*
X97882Y6312D01*
X233914Y178591D02*
X236538D01*
X235226D01*
Y174656D01*
X239817D02*
Y178591D01*
X237849Y176623D01*
X240473D01*
X40914Y80591D02*
X43538D01*
X42226D01*
Y76656D01*
X44850Y79935D02*
X45505Y80591D01*
X46817D01*
X47473Y79935D01*
Y79279D01*
X46817Y78623D01*
X46161D01*
X46817D01*
X47473Y77968D01*
Y77312D01*
X46817Y76656D01*
X45505D01*
X44850Y77312D01*
X220314Y99216D02*
X222938D01*
X221626D01*
Y95280D01*
X226874D02*
X224250D01*
X226874Y97904D01*
Y98560D01*
X226218Y99216D01*
X224906D01*
X224250Y98560D01*
X22183Y205583D02*
X24807D01*
X23495D01*
Y201647D01*
X26118D02*
X27430D01*
X26774D01*
Y205583D01*
X26118Y204927D01*
X142888Y128990D02*
X146824D01*
Y127022D01*
X146168Y126366D01*
X144856D01*
X144200Y127022D01*
Y128990D01*
Y127678D02*
X142888Y126366D01*
Y125054D02*
Y123742D01*
Y124398D01*
X146824D01*
X146168Y125054D01*
X142888Y119150D02*
Y121774D01*
X145512Y119150D01*
X146168D01*
X146824Y119806D01*
Y121118D01*
X146168Y121774D01*
X224562Y146853D02*
X220626D01*
Y144229D01*
X224562Y140294D02*
Y142917D01*
X220626D01*
Y140294D01*
X222594Y142917D02*
Y141605D01*
X224562Y138981D02*
X220626D01*
Y137014D01*
X221282Y136358D01*
X223905D01*
X224562Y137014D01*
Y138981D01*
Y132422D02*
Y135046D01*
X222594D01*
X223250Y133734D01*
Y133078D01*
X222594Y132422D01*
X221282D01*
X220626Y133078D01*
Y134390D01*
X221282Y135046D01*
X57630Y176487D02*
X61566D01*
Y179111D01*
X57630Y183047D02*
Y180423D01*
X61566D01*
Y183047D01*
X59598Y180423D02*
Y181735D01*
X57630Y184359D02*
X61566D01*
Y186327D01*
X60910Y186983D01*
X58286D01*
X57630Y186327D01*
Y184359D01*
X58286Y188294D02*
X57630Y188951D01*
Y190262D01*
X58286Y190918D01*
X58942D01*
X59598Y190262D01*
Y189606D01*
Y190262D01*
X60254Y190918D01*
X60910D01*
X61566Y190262D01*
Y188951D01*
X60910Y188294D01*
X58665Y65579D02*
X62600D01*
Y68203D01*
X58665Y72138D02*
Y69515D01*
X62600D01*
Y72138D01*
X60632Y69515D02*
Y70827D01*
X58665Y73450D02*
X62600D01*
Y75418D01*
X61944Y76074D01*
X59320D01*
X58665Y75418D01*
Y73450D01*
X62600Y80010D02*
Y77386D01*
X59976Y80010D01*
X59320D01*
X58665Y79354D01*
Y78042D01*
X59320Y77386D01*
X68282Y65197D02*
X67626Y64541D01*
Y63229D01*
X68282Y62573D01*
X70906D01*
X71562Y63229D01*
Y64541D01*
X70906Y65197D01*
X71562Y66509D02*
Y67820D01*
Y67164D01*
X67626D01*
X68282Y66509D01*
X67626Y69788D02*
Y72412D01*
X68282D01*
X70906Y69788D01*
X71562D01*
X182545Y114765D02*
Y118701D01*
X184513D01*
X185169Y118045D01*
Y116733D01*
X184513Y116077D01*
X182545D01*
X183857D02*
X185169Y114765D01*
X189105Y118701D02*
X186481D01*
Y116733D01*
X187793Y117389D01*
X188449D01*
X189105Y116733D01*
Y115421D01*
X188449Y114765D01*
X187137D01*
X186481Y115421D01*
X186562Y31840D02*
X182626D01*
X184594D01*
Y29216D01*
X186562D01*
X182626D01*
X186562Y27904D02*
X182626D01*
Y25936D01*
X183282Y25280D01*
X185906D01*
X186562Y25936D01*
Y27904D01*
X182626Y23968D02*
Y22656D01*
Y23312D01*
X186562D01*
X185906Y23968D01*
X166888Y128990D02*
X170824D01*
Y127022D01*
X170168Y126366D01*
X168856D01*
X168200Y127022D01*
Y128990D01*
Y127678D02*
X166888Y126366D01*
Y125054D02*
Y123742D01*
Y124398D01*
X170824D01*
X170168Y125054D01*
X170824Y121774D02*
Y119150D01*
X170168D01*
X167544Y121774D01*
X166888D01*
X130888Y128990D02*
X134824D01*
Y127022D01*
X134168Y126366D01*
X132856D01*
X132200Y127022D01*
Y128990D01*
Y127678D02*
X130888Y126366D01*
Y125054D02*
Y123742D01*
Y124398D01*
X134824D01*
X134168Y125054D01*
X134824Y119150D02*
Y121774D01*
X132856D01*
X133512Y120462D01*
Y119806D01*
X132856Y119150D01*
X131544D01*
X130888Y119806D01*
Y121118D01*
X131544Y121774D01*
X160888Y128955D02*
X164824D01*
Y126987D01*
X164168Y126331D01*
X162856D01*
X162200Y126987D01*
Y128955D01*
Y127643D02*
X160888Y126331D01*
Y125019D02*
Y123707D01*
Y124363D01*
X164824D01*
X164168Y125019D01*
Y121739D02*
X164824Y121084D01*
Y119772D01*
X164168Y119116D01*
X163512D01*
X162856Y119772D01*
Y120428D01*
Y119772D01*
X162200Y119116D01*
X161544D01*
X160888Y119772D01*
Y121084D01*
X161544Y121739D01*
X123888Y129368D02*
X127824D01*
Y127400D01*
X127168Y126744D01*
X125856D01*
X125200Y127400D01*
Y129368D01*
Y128056D02*
X123888Y126744D01*
Y125432D02*
Y124120D01*
Y124776D01*
X127824D01*
X127168Y125432D01*
X123888Y122153D02*
Y120841D01*
Y121497D01*
X127824D01*
X127168Y122153D01*
X232906Y148788D02*
X233562Y149444D01*
Y150756D01*
X232906Y151412D01*
X230282D01*
X229626Y150756D01*
Y149444D01*
X230282Y148788D01*
X229626Y147476D02*
Y146165D01*
Y146820D01*
X233562D01*
X232906Y147476D01*
X230282Y144197D02*
X229626Y143541D01*
Y142229D01*
X230282Y141573D01*
X232906D01*
X233562Y142229D01*
Y143541D01*
X232906Y144197D01*
X232250D01*
X231594Y143541D01*
Y141573D01*
X230282Y64197D02*
X229626Y63541D01*
Y62229D01*
X230282Y61573D01*
X232906D01*
X233562Y62229D01*
Y63541D01*
X232906Y64197D01*
X233562Y65509D02*
Y66820D01*
Y66164D01*
X229626D01*
X230282Y65509D01*
Y68788D02*
X229626Y69444D01*
Y70756D01*
X230282Y71412D01*
X230938D01*
X231594Y70756D01*
X232250Y71412D01*
X232906D01*
X233562Y70756D01*
Y69444D01*
X232906Y68788D01*
X232250D01*
X231594Y69444D01*
X230938Y68788D01*
X230282D01*
X231594Y69444D02*
Y70756D01*
X68282Y169708D02*
X67626Y169052D01*
Y167740D01*
X68282Y167084D01*
X70906D01*
X71562Y167740D01*
Y169052D01*
X70906Y169708D01*
X71562Y171020D02*
Y172332D01*
Y171676D01*
X67626D01*
X68282Y171020D01*
X67626Y176924D02*
X68282Y175612D01*
X69594Y174300D01*
X70906D01*
X71562Y174956D01*
Y176268D01*
X70906Y176924D01*
X70250D01*
X69594Y176268D01*
Y174300D01*
X111570Y205591D02*
Y202312D01*
X112226Y201656D01*
X113538D01*
X114193Y202312D01*
Y205591D01*
X115505Y201656D02*
X116817D01*
X116161D01*
Y205591D01*
X115505Y204935D01*
X31570Y121935D02*
X30914Y122591D01*
X29602D01*
X28946Y121935D01*
Y121279D01*
X29602Y120624D01*
X30914D01*
X31570Y119967D01*
Y119312D01*
X30914Y118656D01*
X29602D01*
X28946Y119312D01*
X32882Y122591D02*
Y118656D01*
X34194Y119967D01*
X35505Y118656D01*
Y122591D01*
X39441Y118656D02*
X36817D01*
X39441Y121279D01*
Y121935D01*
X38785Y122591D01*
X37473D01*
X36817Y121935D01*
X32226Y96935D02*
X31570Y97591D01*
X30258D01*
X29602Y96935D01*
Y96279D01*
X30258Y95623D01*
X31570D01*
X32226Y94968D01*
Y94312D01*
X31570Y93656D01*
X30258D01*
X29602Y94312D01*
X33538Y97591D02*
Y93656D01*
X34850Y94968D01*
X36161Y93656D01*
Y97591D01*
X37473Y93656D02*
X38785D01*
X38129D01*
Y97591D01*
X37473Y96935D01*
X154888Y128955D02*
X158824D01*
Y126987D01*
X158168Y126331D01*
X156856D01*
X156200Y126987D01*
Y128955D01*
Y127643D02*
X154888Y126331D01*
Y125019D02*
Y123707D01*
Y124363D01*
X158824D01*
X158168Y125019D01*
X158824Y119116D02*
X158168Y120428D01*
X156856Y121739D01*
X155544D01*
X154888Y121084D01*
Y119772D01*
X155544Y119116D01*
X156200D01*
X156856Y119772D01*
Y121739D01*
X148888Y128955D02*
X152824D01*
Y126987D01*
X152168Y126331D01*
X150856D01*
X150200Y126987D01*
Y128955D01*
Y127643D02*
X148888Y126331D01*
Y125019D02*
Y123707D01*
Y124363D01*
X152824D01*
X152168Y125019D01*
X148888Y119772D02*
X152824D01*
X150856Y121739D01*
Y119116D01*
X136888Y128990D02*
X140824D01*
Y127022D01*
X140168Y126366D01*
X138856D01*
X138200Y127022D01*
Y128990D01*
Y127678D02*
X136888Y126366D01*
Y125054D02*
Y123742D01*
Y124398D01*
X140824D01*
X140168Y125054D01*
Y121774D02*
X140824Y121118D01*
Y119806D01*
X140168Y119150D01*
X137544D01*
X136888Y119806D01*
Y121118D01*
X137544Y121774D01*
X140168D01*
X92161Y105344D02*
X88226D01*
Y107312D01*
X88882Y107967D01*
X90193D01*
X90850Y107312D01*
Y105344D01*
Y106656D02*
X92161Y107967D01*
X91505Y109280D02*
X92161Y109935D01*
Y111247D01*
X91505Y111903D01*
X88882D01*
X88226Y111247D01*
Y109935D01*
X88882Y109280D01*
X89538D01*
X90193Y109935D01*
Y111903D01*
X98161Y105344D02*
X94226D01*
Y107312D01*
X94882Y107967D01*
X96193D01*
X96850Y107312D01*
Y105344D01*
Y106656D02*
X98161Y107967D01*
X94882Y109280D02*
X94226Y109935D01*
Y111247D01*
X94882Y111903D01*
X95538D01*
X96193Y111247D01*
X96850Y111903D01*
X97505D01*
X98161Y111247D01*
Y109935D01*
X97505Y109280D01*
X96850D01*
X96193Y109935D01*
X95538Y109280D01*
X94882D01*
X96193Y109935D02*
Y111247D01*
X105161Y105344D02*
X101226D01*
Y107312D01*
X101882Y107967D01*
X103193D01*
X103849Y107312D01*
Y105344D01*
Y106656D02*
X105161Y107967D01*
X101226Y111903D02*
X101882Y110591D01*
X103193Y109280D01*
X104505D01*
X105161Y109935D01*
Y111247D01*
X104505Y111903D01*
X103849D01*
X103193Y111247D01*
Y109280D01*
X112161Y105344D02*
X108226D01*
Y107312D01*
X108882Y107967D01*
X110194D01*
X110849Y107312D01*
Y105344D01*
Y106656D02*
X112161Y107967D01*
Y111247D02*
X108226D01*
X110194Y109280D01*
Y111903D01*
X8919Y133459D02*
Y129523D01*
X6951D01*
X6295Y130179D01*
Y131491D01*
X6951Y132147D01*
X8919D01*
X7607D02*
X6295Y133459D01*
X2360D02*
X4984D01*
X2360Y130835D01*
Y130179D01*
X3016Y129523D01*
X4328D01*
X4984Y130179D01*
X9240Y87625D02*
Y83689D01*
X7272D01*
X6616Y84345D01*
Y85657D01*
X7272Y86313D01*
X9240D01*
X7928D02*
X6616Y87625D01*
X5305D02*
X3993D01*
X4648D01*
Y83689D01*
X5305Y84345D01*
X251626Y204528D02*
X255562D01*
Y202560D01*
X254906Y201904D01*
X253594D01*
X252938Y202560D01*
Y204528D01*
X251626Y197968D02*
Y200592D01*
X254250Y197968D01*
X254906D01*
X255562Y198624D01*
Y199936D01*
X254906Y200592D01*
X251970Y194280D02*
Y198216D01*
X253938D01*
X254594Y197560D01*
Y196248D01*
X253938Y195592D01*
X251970D01*
X255906Y194280D02*
X257218D01*
X256562D01*
Y198216D01*
X255906Y197560D01*
X220636Y63924D02*
X224572D01*
Y66548D01*
X220636Y70484D02*
Y67860D01*
X224572D01*
Y70484D01*
X222604Y67860D02*
Y69172D01*
X220636Y71796D02*
X224572D01*
Y73763D01*
X223916Y74419D01*
X221292D01*
X220636Y73763D01*
Y71796D01*
X224572Y77699D02*
X220636D01*
X222604Y75731D01*
Y78355D01*
X114226Y105064D02*
X118161D01*
Y107688D01*
X114226Y111624D02*
Y109000D01*
X118161D01*
Y111624D01*
X116193Y109000D02*
Y110312D01*
X114226Y112935D02*
X118161D01*
Y114903D01*
X117505Y115559D01*
X114882D01*
X114226Y114903D01*
Y112935D01*
X118161Y116871D02*
Y118183D01*
Y117527D01*
X114226D01*
X114882Y116871D01*
X156970Y62216D02*
Y58280D01*
X159594D01*
X160906D02*
X162218D01*
X161562D01*
Y62216D01*
X160906Y61560D01*
X119597Y70802D02*
X118286D01*
X118941D01*
Y74738D01*
X119597D01*
X118286D01*
X113694Y71458D02*
X114350Y70802D01*
X115662D01*
X116318Y71458D01*
Y74082D01*
X115662Y74738D01*
X114350D01*
X113694Y74082D01*
X112382Y74738D02*
X111070D01*
X111726D01*
Y70802D01*
X112382Y71458D01*
X100544Y178774D02*
X99888Y178118D01*
Y176806D01*
X100544Y176150D01*
X103168D01*
X103824Y176806D01*
Y178118D01*
X103168Y178774D01*
X103824Y180086D02*
Y181398D01*
Y180742D01*
X99888D01*
X100544Y180086D01*
X99888Y185989D02*
Y183366D01*
X101856D01*
X101200Y184678D01*
Y185334D01*
X101856Y185989D01*
X103168D01*
X103824Y185334D01*
Y184022D01*
X103168Y183366D01*
X93544Y178774D02*
X92888Y178118D01*
Y176806D01*
X93544Y176150D01*
X96168D01*
X96824Y176806D01*
Y178118D01*
X96168Y178774D01*
X96824Y180086D02*
Y181398D01*
Y180742D01*
X92888D01*
X93544Y180086D01*
X96824Y185334D02*
X92888D01*
X94856Y183366D01*
Y185989D01*
X82882Y107984D02*
X82226Y107328D01*
Y106016D01*
X82882Y105360D01*
X85505D01*
X86161Y106016D01*
Y107328D01*
X85505Y107984D01*
X86161Y109295D02*
Y110607D01*
Y109951D01*
X82226D01*
X82882Y109295D01*
X86161Y112575D02*
Y113887D01*
Y113231D01*
X82226D01*
X82882Y112575D01*
X110316Y84012D02*
X109660Y83356D01*
Y82045D01*
X110316Y81388D01*
X112939D01*
X113595Y82045D01*
Y83356D01*
X112939Y84012D01*
X110316Y85324D02*
X109660Y85980D01*
Y87292D01*
X110316Y87948D01*
X110972D01*
X111627Y87292D01*
X112284Y87948D01*
X112939D01*
X113595Y87292D01*
Y85980D01*
X112939Y85324D01*
X112284D01*
X111627Y85980D01*
X110972Y85324D01*
X110316D01*
X111627Y85980D02*
Y87292D01*
X158882Y86967D02*
X158226Y86312D01*
Y85000D01*
X158882Y84344D01*
X161505D01*
X162161Y85000D01*
Y86312D01*
X161505Y86967D01*
X158226Y88279D02*
Y90903D01*
X158882D01*
X161505Y88279D01*
X162161D01*
X31538Y112935D02*
X30882Y113591D01*
X29570D01*
X28914Y112935D01*
Y110312D01*
X29570Y109656D01*
X30882D01*
X31538Y110312D01*
X35473Y113591D02*
X34161Y112935D01*
X32849Y111624D01*
Y110312D01*
X33505Y109656D01*
X34817D01*
X35473Y110312D01*
Y110968D01*
X34817Y111624D01*
X32849D01*
X31538Y104935D02*
X30882Y105591D01*
X29570D01*
X28914Y104935D01*
Y102312D01*
X29570Y101656D01*
X30882D01*
X31538Y102312D01*
X35473Y105591D02*
X32849D01*
Y103623D01*
X34161Y104279D01*
X34817D01*
X35473Y103623D01*
Y102312D01*
X34817Y101656D01*
X33505D01*
X32849Y102312D01*
X125908Y22605D02*
X126564Y23261D01*
Y24573D01*
X125908Y25229D01*
X123284D01*
X122628Y24573D01*
Y23261D01*
X123284Y22605D01*
X122628Y19325D02*
X126564D01*
X124596Y21293D01*
Y18669D01*
X129150Y50186D02*
X129806Y50842D01*
Y52154D01*
X129150Y52810D01*
X126526D01*
X125871Y52154D01*
Y50842D01*
X126526Y50186D01*
X129150Y48875D02*
X129806Y48219D01*
Y46907D01*
X129150Y46251D01*
X128494D01*
X127838Y46907D01*
Y47563D01*
Y46907D01*
X127182Y46251D01*
X126526D01*
X125871Y46907D01*
Y48219D01*
X126526Y48875D01*
X138146Y50332D02*
X138802Y50988D01*
Y52300D01*
X138146Y52956D01*
X135522D01*
X134866Y52300D01*
Y50988D01*
X135522Y50332D01*
X134866Y46397D02*
Y49020D01*
X137490Y46397D01*
X138146D01*
X138802Y47053D01*
Y48364D01*
X138146Y49020D01*
D12*
X122845Y72624D02*
G03*
X122845Y72624I-591J0D01*
G01*
X125285Y79539D02*
G03*
X125285Y79539I-591J0D01*
G01*
X142185Y60248D02*
G03*
X142185Y60248I-591J0D01*
G01*
X68194Y104623D02*
Y119623D01*
X121194D01*
Y117623D02*
Y119623D01*
Y117623D02*
X175194D01*
Y116623D02*
Y117623D01*
Y104623D02*
Y116623D01*
D13*
X20317Y128890D02*
X24093D01*
Y134092D01*
X20317D02*
X24093D01*
X13186Y128890D02*
X16962D01*
X13186D02*
Y134092D01*
X16962D01*
X146904Y100915D02*
X146982Y90535D01*
X146904Y100915D02*
X167993D01*
X173484Y95424D01*
X173431Y90324D02*
X173484Y95424D01*
X146902Y74332D02*
X146928Y84838D01*
X146902Y74332D02*
X167989D01*
X173486Y79829D01*
Y84925D01*
X122459Y77549D02*
Y89529D01*
X142144D01*
Y77549D02*
Y89529D01*
X122459Y77549D02*
X142144D01*
X219105Y168788D02*
X226083D01*
X218505Y168188D02*
X219105Y168788D01*
X218505Y149587D02*
X226683D01*
X226083Y168788D02*
X226683Y168188D01*
X128841Y104679D02*
Y108454D01*
Y104679D02*
X134043D01*
Y108454D01*
X128841Y111810D02*
Y115585D01*
X134043D01*
Y111810D02*
Y115585D01*
X12313Y88257D02*
X16088D01*
X12313Y83056D02*
Y88257D01*
Y83056D02*
X16088D01*
X19444Y88257D02*
X23220D01*
Y83056D02*
Y88257D01*
X19444Y83056D02*
X23220D01*
X165457Y138713D02*
Y142489D01*
X160255D02*
X165457D01*
X160255Y138713D02*
Y142489D01*
X165457Y131582D02*
Y135357D01*
X160255Y131582D02*
X165457D01*
X160255D02*
Y135357D01*
X148255Y131582D02*
Y135357D01*
Y131582D02*
X153457D01*
Y135357D01*
X148255Y138713D02*
Y142489D01*
X153457D01*
Y138713D02*
Y142489D01*
X154255Y131582D02*
Y135357D01*
Y131582D02*
X159457D01*
Y135357D01*
X154255Y138713D02*
Y142489D01*
X159457D01*
Y138713D02*
Y142489D01*
X130255Y131617D02*
Y135392D01*
Y131617D02*
X135457D01*
Y135392D01*
X130255Y138748D02*
Y142523D01*
X135457D01*
Y138748D02*
Y142523D01*
X129457Y138748D02*
Y142523D01*
X124255D02*
X129457D01*
X124255Y138748D02*
Y142523D01*
X129457Y131617D02*
Y135392D01*
X124255Y131617D02*
X129457D01*
X124255D02*
Y135392D01*
X147457Y138748D02*
Y142523D01*
X142255D02*
X147457D01*
X142255Y138748D02*
Y142523D01*
X147457Y131617D02*
Y135392D01*
X142255Y131617D02*
X147457D01*
X142255D02*
Y135392D01*
X166255Y131617D02*
Y135392D01*
Y131617D02*
X171457D01*
Y135392D01*
X166255Y138748D02*
Y142523D01*
X171457D01*
Y138748D02*
Y142523D01*
X136255Y131651D02*
Y135426D01*
Y131651D02*
X141457D01*
Y135426D01*
X136255Y138782D02*
Y142558D01*
X141457D01*
Y138782D02*
Y142558D01*
X122841Y104679D02*
Y108454D01*
Y104679D02*
X128043D01*
Y108454D01*
X122841Y111810D02*
Y115585D01*
X128043D01*
Y111810D02*
Y115585D01*
X166625Y111810D02*
Y115585D01*
X161424D02*
X166625D01*
X161424Y111810D02*
Y115585D01*
X166625Y104679D02*
Y108454D01*
X161424Y104679D02*
X166625D01*
X161424D02*
Y108454D01*
X154652Y104679D02*
Y108454D01*
Y104679D02*
X159854D01*
Y108454D01*
X154652Y111810D02*
Y115585D01*
X159854D01*
Y111810D02*
Y115585D01*
X153854Y111810D02*
Y115585D01*
X148652D02*
X153854D01*
X148652Y111810D02*
Y115585D01*
X153854Y104679D02*
Y108454D01*
X148652Y104679D02*
X153854D01*
X148652D02*
Y108454D01*
X142420Y104698D02*
Y108473D01*
Y104698D02*
X147621D01*
Y108473D01*
X142420Y111829D02*
Y115604D01*
X147621D01*
Y111829D02*
Y115604D01*
X57109Y168854D02*
X64087D01*
X56509Y168254D02*
X57109Y168854D01*
X56509Y149652D02*
X64687D01*
X64087Y168854D02*
X64687Y168254D01*
X218515Y43267D02*
X219115Y42667D01*
X218515Y61869D02*
X226693D01*
X226093Y42667D02*
X226693Y43267D01*
X219115Y42667D02*
X226093D01*
X56543Y43244D02*
X57143Y42644D01*
X56543Y61845D02*
X64722D01*
X64121Y42644D02*
X64722Y43244D01*
X57143Y42644D02*
X64121D01*
X111305Y8659D02*
X121685Y8738D01*
X111305Y8659D02*
Y29749D01*
X116795Y35239D01*
X121895Y35186D01*
X127381Y8683D02*
X137887Y8657D01*
Y29744D01*
X132391Y35241D02*
X137887Y29744D01*
X127295Y35241D02*
X132391D01*
D14*
X227193Y199624D02*
Y209624D01*
X177193Y199624D02*
X227193D01*
X177193Y209624D02*
X227193D01*
X177193Y199624D02*
Y209624D01*
X228594D02*
X248594D01*
X228594Y199624D02*
Y209624D01*
Y199624D02*
X248594D01*
Y209624D01*
X182194Y7623D02*
Y17624D01*
X202193D01*
Y7623D02*
Y17624D01*
X182194Y7623D02*
X202193D01*
D15*
X171021Y109644D02*
Y110983D01*
X168077Y105431D02*
Y109566D01*
Y105431D02*
X169258Y104251D01*
X169652D01*
X172408D01*
X172802D02*
X173983Y105431D01*
X172408Y104251D02*
X172802D01*
X173983Y105431D02*
Y109566D01*
X168068Y115590D02*
X173895D01*
X173974Y111062D02*
Y115590D01*
X168068Y111062D02*
Y115590D01*
X169643Y110983D02*
X172320D01*
X169683D02*
X171021Y109644D01*
X169643Y110983D02*
X169683D01*
X171021Y109644D02*
X172320Y110944D01*
Y110983D01*
D16*
X218505Y163713D02*
Y168188D01*
X226683Y163713D02*
Y168188D01*
X218505Y149587D02*
Y154910D01*
X226683Y149587D02*
Y154910D01*
X56509Y163778D02*
Y168254D01*
X64687Y163778D02*
Y168254D01*
X56509Y149652D02*
Y154975D01*
X64687Y149652D02*
Y154975D01*
X218515Y56545D02*
Y61869D01*
X226693Y56545D02*
Y61869D01*
X218515Y43267D02*
Y47742D01*
X226693Y43267D02*
Y47742D01*
X56543Y56522D02*
Y61845D01*
X64722Y56522D02*
Y61845D01*
X56543Y43244D02*
Y47719D01*
X64722Y43244D02*
Y47719D01*
D17*
X24644Y4623D02*
X24744D01*
X38443Y4724D02*
X38743D01*
X37244D02*
X37543D01*
X36643D02*
X36944D01*
X36044D02*
X36244D01*
X35443D02*
X35743D01*
X34143D02*
X34543D01*
X33643D02*
X33944D01*
X31743D02*
X32043D01*
X30444D02*
X30744D01*
X28644D02*
X28943D01*
X27944D02*
X28343D01*
X27444D02*
X27744D01*
X26844D02*
X27143D01*
X22343D02*
X25444D01*
X38344Y4823D02*
X38743D01*
X37143D02*
X37543D01*
X36544D02*
X37043D01*
X35943D02*
X36344D01*
X35344D02*
X35743D01*
X34143D02*
X34543D01*
X33544D02*
X33944D01*
X31644D02*
X32043D01*
X30444D02*
X30744D01*
X28543D02*
X29043D01*
X27944D02*
X28343D01*
X27343D02*
X27843D01*
X26744D02*
X27244D01*
X22143D02*
X25543D01*
X38344Y4924D02*
X38844D01*
X37143D02*
X37644D01*
X36544D02*
X37043D01*
X35943D02*
X36344D01*
X35344D02*
X35743D01*
X34143D02*
X34543D01*
X33544D02*
X34043D01*
X31644D02*
X32043D01*
X30343D02*
X30843D01*
X28543D02*
X29043D01*
X27944D02*
X28343D01*
X27343D02*
X27843D01*
X26744D02*
X27244D01*
X22043D02*
X25743D01*
X38344Y5023D02*
X38743D01*
X37143D02*
X37543D01*
X36643D02*
X36944D01*
X35943D02*
X36344D01*
X35344D02*
X35743D01*
X34143D02*
X34543D01*
X33544D02*
X33944D01*
X31644D02*
X32043D01*
X30444D02*
X30744D01*
X28644D02*
X28943D01*
X28043D02*
X28343D01*
X27444D02*
X27744D01*
X26844D02*
X27143D01*
X21944D02*
X25844D01*
X38543Y5124D02*
X38644D01*
X37343D02*
X37444D01*
X21844D02*
X25844D01*
X21844Y5223D02*
X25943D01*
X35544Y5324D02*
X35644D01*
X34244D02*
X34444D01*
X33044D02*
X33244D01*
X29243D02*
X29443D01*
X28043D02*
X28243D01*
X25144D02*
X25943D01*
X21744D02*
X22644D01*
X38443Y5424D02*
X38743D01*
X37244D02*
X37543D01*
X35344D02*
X35743D01*
X34143D02*
X34543D01*
X32943D02*
X33343D01*
X29144D02*
X29544D01*
X27944D02*
X28343D01*
X25243D02*
X25943D01*
X21744D02*
X22444D01*
X38344Y5523D02*
X38844D01*
X37143D02*
X37644D01*
X35344D02*
X35743D01*
X34143D02*
X34543D01*
X32844D02*
X33343D01*
X29144D02*
X29544D01*
X27944D02*
X28343D01*
X25343D02*
X25943D01*
X21744D02*
X22444D01*
X38344Y5624D02*
X38844D01*
X37143D02*
X37644D01*
X35344D02*
X35743D01*
X34143D02*
X34543D01*
X32943D02*
X33343D01*
X29144D02*
X29544D01*
X27944D02*
X28343D01*
X25343D02*
X26043D01*
X21744D02*
X22343D01*
X38443Y5723D02*
X38743D01*
X37244D02*
X37543D01*
X35344D02*
X35644D01*
X34143D02*
X34543D01*
X32943D02*
X33244D01*
X29243D02*
X29443D01*
X28043D02*
X28243D01*
X25343D02*
X26043D01*
X21744D02*
X22343D01*
X25343Y5824D02*
X26043D01*
X21744D02*
X22343D01*
X39143Y5923D02*
X39344D01*
X37944D02*
X38043D01*
X36044D02*
X36244D01*
X33643D02*
X33843D01*
X32443D02*
X32643D01*
X30544D02*
X30744D01*
X29243D02*
X29544D01*
X28043D02*
X28243D01*
X27444D02*
X27643D01*
X27044D02*
X27143D01*
X25343D02*
X26043D01*
X23144D02*
X24543D01*
X21744D02*
X22343D01*
X39044Y6024D02*
X39443D01*
X37843D02*
X38144D01*
X35943D02*
X36344D01*
X33544D02*
X33944D01*
X32344D02*
X32743D01*
X30444D02*
X30843D01*
X29144D02*
X29544D01*
X27944D02*
X28343D01*
X27343D02*
X27843D01*
X26744D02*
X27244D01*
X25343D02*
X26043D01*
X23043D02*
X24644D01*
X21744D02*
X22343D01*
X39044Y6123D02*
X39443D01*
X37743D02*
X38243D01*
X35844D02*
X36344D01*
X33544D02*
X33944D01*
X32344D02*
X32743D01*
X30444D02*
X30843D01*
X29144D02*
X29643D01*
X27944D02*
X28343D01*
X27343D02*
X27843D01*
X26744D02*
X27244D01*
X25343D02*
X26043D01*
X22943D02*
X24744D01*
X21744D02*
X22343D01*
X39044Y6224D02*
X39443D01*
X37843D02*
X38243D01*
X35943D02*
X36344D01*
X33544D02*
X33944D01*
X32344D02*
X32743D01*
X30444D02*
X30843D01*
X29144D02*
X29544D01*
X27944D02*
X28343D01*
X27343D02*
X27744D01*
X26744D02*
X27244D01*
X25343D02*
X26043D01*
X22943D02*
X24744D01*
X21744D02*
X22343D01*
X39143Y6323D02*
X39344D01*
X37843D02*
X38144D01*
X36044D02*
X36244D01*
X33643D02*
X33843D01*
X32443D02*
X32643D01*
X30544D02*
X30744D01*
X29243D02*
X29544D01*
X28043D02*
X28243D01*
X27444D02*
X27643D01*
X26943D02*
X27044D01*
X25343D02*
X26043D01*
X22943D02*
X24744D01*
X21744D02*
X22343D01*
X25343Y6424D02*
X26043D01*
X22943D02*
X24744D01*
X21744D02*
X22343D01*
X33044Y6523D02*
X33143D01*
X31844D02*
X31944D01*
X25343D02*
X26043D01*
X22943D02*
X24744D01*
X21744D02*
X22343D01*
X39044Y6623D02*
X39344D01*
X37143D02*
X37543D01*
X36544D02*
X36944D01*
X35943D02*
X36344D01*
X33643D02*
X33944D01*
X32943D02*
X33343D01*
X32344D02*
X32743D01*
X31644D02*
X32043D01*
X31144D02*
X31444D01*
X29844D02*
X30244D01*
X29243D02*
X29544D01*
X28644D02*
X28943D01*
X27444D02*
X27744D01*
X26844D02*
X27143D01*
X25343D02*
X26043D01*
X22943D02*
X24744D01*
X21744D02*
X22343D01*
X39044Y6724D02*
X39443D01*
X37143D02*
X37543D01*
X36544D02*
X37043D01*
X35943D02*
X36344D01*
X33544D02*
X33944D01*
X32844D02*
X33343D01*
X32243D02*
X32743D01*
X31644D02*
X32043D01*
X31043D02*
X31543D01*
X29743D02*
X30244D01*
X29144D02*
X29544D01*
X28543D02*
X29043D01*
X27343D02*
X27744D01*
X26744D02*
X27244D01*
X25343D02*
X26043D01*
X22943D02*
X24744D01*
X21744D02*
X22343D01*
X39044Y6824D02*
X39443D01*
X37143D02*
X37543D01*
X36544D02*
X37043D01*
X35943D02*
X36344D01*
X33544D02*
X34043D01*
X32844D02*
X33343D01*
X32243D02*
X32743D01*
X31644D02*
X32043D01*
X31043D02*
X31543D01*
X29743D02*
X30244D01*
X29144D02*
X29544D01*
X28543D02*
X29043D01*
X27343D02*
X27843D01*
X26744D02*
X27244D01*
X25343D02*
X26043D01*
X22943D02*
X24744D01*
X21744D02*
X22343D01*
X39044Y6923D02*
X39443D01*
X37143D02*
X37543D01*
X36643D02*
X36944D01*
X35943D02*
X36244D01*
X33643D02*
X33944D01*
X32943D02*
X33244D01*
X32344D02*
X32643D01*
X31644D02*
X32043D01*
X31144D02*
X31444D01*
X29844D02*
X30244D01*
X29144D02*
X29544D01*
X28644D02*
X28943D01*
X27444D02*
X27744D01*
X26844D02*
X27143D01*
X25343D02*
X26043D01*
X22943D02*
X24744D01*
X21744D02*
X22343D01*
X25343Y7023D02*
X26043D01*
X22943D02*
X24744D01*
X21744D02*
X22343D01*
X36744Y7124D02*
X36843D01*
X36044D02*
X36143D01*
X31244D02*
X31343D01*
X27544D02*
X27643D01*
X25343D02*
X26043D01*
X22943D02*
X24744D01*
X21744D02*
X22343D01*
X37843Y7224D02*
X38144D01*
X36544D02*
X36944D01*
X35943D02*
X36244D01*
X35344D02*
X35743D01*
X34743D02*
X35043D01*
X34143D02*
X34543D01*
X32943D02*
X33244D01*
X32344D02*
X32643D01*
X31043D02*
X31444D01*
X29243D02*
X29544D01*
X28644D02*
X28943D01*
X27444D02*
X27744D01*
X25343D02*
X26043D01*
X22943D02*
X24744D01*
X21744D02*
X22343D01*
X37743Y7323D02*
X38243D01*
X36544D02*
X36944D01*
X35844D02*
X36344D01*
X35344D02*
X35743D01*
X34644D02*
X35144D01*
X34143D02*
X34543D01*
X32844D02*
X33343D01*
X32243D02*
X32743D01*
X31043D02*
X31543D01*
X29144D02*
X29544D01*
X28543D02*
X29043D01*
X27343D02*
X27843D01*
X25343D02*
X26043D01*
X22943D02*
X24744D01*
X21744D02*
X22343D01*
X37743Y7423D02*
X38144D01*
X36544D02*
X36944D01*
X35943D02*
X36344D01*
X35344D02*
X35743D01*
X34644D02*
X35144D01*
X34143D02*
X34543D01*
X32844D02*
X33343D01*
X32344D02*
X32743D01*
X31043D02*
X31444D01*
X29144D02*
X29544D01*
X28644D02*
X29043D01*
X27343D02*
X27843D01*
X25343D02*
X26043D01*
X23043D02*
X24744D01*
X21744D02*
X22343D01*
X37843Y7524D02*
X38144D01*
X36643D02*
X36843D01*
X36044D02*
X36244D01*
X35443D02*
X35644D01*
X34743D02*
X35043D01*
X34244D02*
X34444D01*
X32943D02*
X33244D01*
X32344D02*
X32643D01*
X31144D02*
X31444D01*
X29243D02*
X29544D01*
X28743D02*
X28943D01*
X27444D02*
X27744D01*
X25343D02*
X26043D01*
X23043D02*
X24644D01*
X21744D02*
X22343D01*
X25343Y7623D02*
X26043D01*
X23244D02*
X24543D01*
X21744D02*
X22343D01*
X25343Y7723D02*
X26043D01*
X21744D02*
X22343D01*
X37143Y7824D02*
X37543D01*
X36643D02*
X36843D01*
X34244D02*
X34444D01*
X32943D02*
X33244D01*
X31644D02*
X32043D01*
X30444D02*
X30744D01*
X29844D02*
X30143D01*
X27444D02*
X27744D01*
X26844D02*
X27143D01*
X25343D02*
X26043D01*
X21744D02*
X22343D01*
X37143Y7924D02*
X37543D01*
X36544D02*
X36944D01*
X34143D02*
X34543D01*
X32943D02*
X33343D01*
X31644D02*
X32144D01*
X30343D02*
X30843D01*
X29844D02*
X30244D01*
X27343D02*
X27843D01*
X26744D02*
X27244D01*
X25343D02*
X26043D01*
X21744D02*
X22343D01*
X37143Y8023D02*
X37543D01*
X36544D02*
X36944D01*
X34143D02*
X34543D01*
X32844D02*
X33343D01*
X31644D02*
X32144D01*
X30343D02*
X30843D01*
X29844D02*
X30244D01*
X27343D02*
X27843D01*
X26744D02*
X27244D01*
X25343D02*
X26043D01*
X21744D02*
X22444D01*
X37143Y8123D02*
X37543D01*
X36544D02*
X36944D01*
X34143D02*
X34543D01*
X32943D02*
X33343D01*
X31644D02*
X32043D01*
X30444D02*
X30843D01*
X29844D02*
X30244D01*
X27343D02*
X27843D01*
X26844D02*
X27143D01*
X25243D02*
X25943D01*
X21744D02*
X22444D01*
X37343Y8224D02*
X37444D01*
X34244D02*
X34444D01*
X33044D02*
X33143D01*
X30544D02*
X30744D01*
X27544D02*
X27643D01*
X25144D02*
X25943D01*
X21744D02*
X22644D01*
X26943Y8324D02*
X27044D01*
X21844D02*
X25943D01*
X38443Y8423D02*
X38743D01*
X37143D02*
X37543D01*
X36643D02*
X36944D01*
X35344D02*
X35743D01*
X34143D02*
X34444D01*
X33643D02*
X33944D01*
X32943D02*
X33244D01*
X31743D02*
X31944D01*
X30444D02*
X30843D01*
X29243D02*
X29544D01*
X27944D02*
X28343D01*
X27444D02*
X27744D01*
X26844D02*
X27143D01*
X21844D02*
X25844D01*
X38344Y8523D02*
X38743D01*
X37143D02*
X37543D01*
X36544D02*
X36944D01*
X35344D02*
X35743D01*
X34043D02*
X34543D01*
X33544D02*
X33944D01*
X32844D02*
X33343D01*
X31644D02*
X32043D01*
X30343D02*
X30843D01*
X29144D02*
X29643D01*
X27944D02*
X28343D01*
X27343D02*
X27843D01*
X26744D02*
X27244D01*
X21944D02*
X25743D01*
X38344Y8624D02*
X38844D01*
X37143D02*
X37543D01*
X36544D02*
X36944D01*
X35344D02*
X35743D01*
X34043D02*
X34543D01*
X33544D02*
X33944D01*
X32844D02*
X33343D01*
X31644D02*
X32043D01*
X30343D02*
X30843D01*
X29144D02*
X29643D01*
X27944D02*
X28343D01*
X27343D02*
X27843D01*
X26744D02*
X27244D01*
X22043D02*
X25644D01*
X38344Y8724D02*
X38743D01*
X37143D02*
X37543D01*
X36544D02*
X36944D01*
X35344D02*
X35743D01*
X34143D02*
X34543D01*
X33643D02*
X33944D01*
X32943D02*
X33244D01*
X31644D02*
X32043D01*
X30444D02*
X30843D01*
X29243D02*
X29544D01*
X27944D02*
X28343D01*
X27444D02*
X27744D01*
X26844D02*
X27143D01*
X22143D02*
X25543D01*
X38543Y8823D02*
X38644D01*
X37343D02*
X37444D01*
X22343D02*
X25343D01*
X39244Y9024D02*
X39344D01*
X38543D02*
X38644D01*
X37944D02*
X38043D01*
X37244D02*
X37444D01*
X36744D02*
X36843D01*
X31743D02*
X31944D01*
X29243D02*
X29544D01*
X27444D02*
X27643D01*
X26844D02*
X27044D01*
X39044Y9123D02*
X39443D01*
X38443D02*
X38743D01*
X37843D02*
X38243D01*
X37143D02*
X37543D01*
X36544D02*
X36944D01*
X34143D02*
X34444D01*
X31644D02*
X32043D01*
X29144D02*
X29544D01*
X27343D02*
X27744D01*
X26744D02*
X27143D01*
X39044Y9223D02*
X39443D01*
X38344D02*
X38844D01*
X37743D02*
X38243D01*
X37143D02*
X37543D01*
X36544D02*
X36944D01*
X34043D02*
X34543D01*
X31644D02*
X32043D01*
X29144D02*
X29643D01*
X27343D02*
X27843D01*
X26744D02*
X27244D01*
X39044Y9324D02*
X39443D01*
X38344D02*
X38844D01*
X37743D02*
X38243D01*
X37143D02*
X37543D01*
X36544D02*
X36944D01*
X34143D02*
X34543D01*
X31644D02*
X32043D01*
X29144D02*
X29544D01*
X27343D02*
X27843D01*
X26744D02*
X27244D01*
X39143Y9424D02*
X39443D01*
X38443D02*
X38743D01*
X37843D02*
X38144D01*
X37244D02*
X37444D01*
X36643D02*
X36944D01*
X34143D02*
X34444D01*
X31743D02*
X31944D01*
X29243D02*
X29443D01*
X27444D02*
X27744D01*
X26844D02*
X27044D01*
X37843Y9623D02*
X38144D01*
X37244D02*
X37444D01*
X36643D02*
X36843D01*
X36044D02*
X36244D01*
X35443D02*
X35644D01*
X34743D02*
X35043D01*
X34244D02*
X34343D01*
X32344D02*
X32643D01*
X30444D02*
X30744D01*
X29844D02*
X30143D01*
X28644D02*
X28943D01*
X27444D02*
X27643D01*
X25644D02*
X25844D01*
X24943D02*
X25144D01*
X24343D02*
X24543D01*
X23743D02*
X23944D01*
X22444D02*
X22743D01*
X37743Y9724D02*
X38243D01*
X37143D02*
X37543D01*
X36544D02*
X36944D01*
X35943D02*
X36344D01*
X35344D02*
X35743D01*
X34644D02*
X35043D01*
X34143D02*
X34444D01*
X32344D02*
X32743D01*
X30343D02*
X30843D01*
X29844D02*
X30244D01*
X28543D02*
X29043D01*
X27343D02*
X27744D01*
X25543D02*
X25943D01*
X24844D02*
X25243D01*
X24243D02*
X24644D01*
X23543D02*
X24044D01*
X23043D02*
X23444D01*
X22343D02*
X22843D01*
X37743Y9824D02*
X38243D01*
X37143D02*
X37543D01*
X36544D02*
X36944D01*
X35844D02*
X36344D01*
X35344D02*
X35743D01*
X34644D02*
X35144D01*
X34043D02*
X34543D01*
X32243D02*
X32743D01*
X30343D02*
X30843D01*
X29844D02*
X30244D01*
X28543D02*
X29043D01*
X27343D02*
X27744D01*
X25444D02*
X25943D01*
X24844D02*
X25243D01*
X24243D02*
X24744D01*
X23543D02*
X24044D01*
X23043D02*
X23444D01*
X22343D02*
X22843D01*
X37743Y9923D02*
X38243D01*
X37143D02*
X37543D01*
X36544D02*
X36944D01*
X35943D02*
X36344D01*
X35344D02*
X35743D01*
X34644D02*
X35043D01*
X34143D02*
X34543D01*
X32344D02*
X32743D01*
X30444D02*
X30843D01*
X29844D02*
X30244D01*
X28644D02*
X28943D01*
X27343D02*
X27744D01*
X25444D02*
X25943D01*
X24844D02*
X25243D01*
X24243D02*
X24644D01*
X23643D02*
X24044D01*
X23043D02*
X23444D01*
X22343D02*
X22743D01*
X37843Y10024D02*
X38144D01*
X37244D02*
X37444D01*
X36643D02*
X36843D01*
X36044D02*
X36244D01*
X35443D02*
X35644D01*
X34844D02*
X34944D01*
X34244D02*
X34444D01*
X27544D02*
X27643D01*
X25543D02*
X25844D01*
X24943D02*
X25144D01*
X24343D02*
X24644D01*
X23643D02*
X23944D01*
X23144D02*
X23344D01*
X22444D02*
X22644D01*
X30544Y10124D02*
X30643D01*
X37843Y10223D02*
X38243D01*
X35943D02*
X36244D01*
X33544D02*
X33944D01*
X32344D02*
X32743D01*
X31644D02*
X32043D01*
X31144D02*
X31444D01*
X30444D02*
X30744D01*
X29844D02*
X30244D01*
X29144D02*
X29544D01*
X28644D02*
X28943D01*
X26844D02*
X27143D01*
X26144D02*
X26443D01*
X23643D02*
X23944D01*
X23144D02*
X23344D01*
X37743Y10323D02*
X38243D01*
X35943D02*
X36344D01*
X33544D02*
X33944D01*
X32243D02*
X32743D01*
X31644D02*
X32043D01*
X31043D02*
X31444D01*
X30343D02*
X30843D01*
X29844D02*
X30244D01*
X29144D02*
X29544D01*
X28543D02*
X29043D01*
X26744D02*
X27244D01*
X26144D02*
X26544D01*
X23643D02*
X24044D01*
X23043D02*
X23444D01*
X37743Y10424D02*
X38243D01*
X35844D02*
X36344D01*
X33544D02*
X33944D01*
X32243D02*
X32743D01*
X31644D02*
X32043D01*
X31043D02*
X31543D01*
X30343D02*
X30843D01*
X29743D02*
X30244D01*
X29144D02*
X29544D01*
X28543D02*
X28943D01*
X26744D02*
X27244D01*
X26043D02*
X26544D01*
X23543D02*
X24044D01*
X23043D02*
X23444D01*
X37843Y10524D02*
X38243D01*
X35943D02*
X36344D01*
X33643D02*
X33944D01*
X32344D02*
X32743D01*
X31644D02*
X32043D01*
X31144D02*
X31444D01*
X30444D02*
X30744D01*
X29844D02*
X30143D01*
X29243D02*
X29544D01*
X28644D02*
X28943D01*
X26844D02*
X27143D01*
X26144D02*
X26544D01*
X23643D02*
X24044D01*
X23043D02*
X23444D01*
X26243Y10623D02*
X26443D01*
X23743D02*
X23944D01*
X23244D02*
X23344D01*
X30544Y10824D02*
X30643D01*
X37843Y10924D02*
X38144D01*
X36544D02*
X36944D01*
X35943D02*
X36344D01*
X34743D02*
X35043D01*
X34143D02*
X34543D01*
X32344D02*
X32743D01*
X31043D02*
X31444D01*
X30444D02*
X30843D01*
X29844D02*
X30244D01*
X29243D02*
X29544D01*
X27343D02*
X27744D01*
X26144D02*
X26544D01*
X25543D02*
X25943D01*
X24844D02*
X25243D01*
X24243D02*
X24644D01*
X23643D02*
X23944D01*
X21944D02*
X22143D01*
X37743Y11023D02*
X38243D01*
X36544D02*
X36944D01*
X35943D02*
X36344D01*
X34644D02*
X35144D01*
X34143D02*
X34543D01*
X32344D02*
X32743D01*
X31043D02*
X31543D01*
X30343D02*
X30843D01*
X29844D02*
X30244D01*
X29144D02*
X29544D01*
X27343D02*
X27744D01*
X26144D02*
X26544D01*
X25543D02*
X25943D01*
X24844D02*
X25243D01*
X24243D02*
X24744D01*
X23543D02*
X24044D01*
X21844D02*
X22243D01*
X37743Y11124D02*
X38243D01*
X36544D02*
X36944D01*
X35943D02*
X36344D01*
X34743D02*
X35144D01*
X34143D02*
X34543D01*
X32344D02*
X32743D01*
X31043D02*
X31543D01*
X30444D02*
X30843D01*
X29844D02*
X30244D01*
X29144D02*
X29544D01*
X27343D02*
X27744D01*
X26144D02*
X26544D01*
X25543D02*
X25943D01*
X24844D02*
X25343D01*
X24243D02*
X24744D01*
X23543D02*
X24044D01*
X21844D02*
X22243D01*
X37843Y11224D02*
X38144D01*
X36544D02*
X36944D01*
X35943D02*
X36344D01*
X34743D02*
X35043D01*
X34244D02*
X34444D01*
X32443D02*
X32743D01*
X31144D02*
X31444D01*
X30444D02*
X30744D01*
X29844D02*
X30143D01*
X29243D02*
X29544D01*
X27444D02*
X27744D01*
X26144D02*
X26443D01*
X25543D02*
X25943D01*
X24943D02*
X25243D01*
X24343D02*
X24644D01*
X23643D02*
X23944D01*
X21844D02*
X22243D01*
X37944Y11423D02*
X38043D01*
X37244D02*
X37444D01*
X34844D02*
X35043D01*
X34244D02*
X34444D01*
X33044D02*
X33143D01*
X31743D02*
X32043D01*
X28644D02*
X28943D01*
X28043D02*
X28243D01*
X27444D02*
X27643D01*
X23743D02*
X23944D01*
X23144D02*
X23344D01*
X38344Y11524D02*
X38743D01*
X37743D02*
X38144D01*
X37143D02*
X37543D01*
X35943D02*
X36344D01*
X34644D02*
X35144D01*
X34143D02*
X34543D01*
X32943D02*
X33343D01*
X31743D02*
X32144D01*
X28543D02*
X29043D01*
X27944D02*
X28343D01*
X27343D02*
X27744D01*
X23643D02*
X24044D01*
X23043D02*
X23444D01*
X22343D02*
X22743D01*
X38344Y11624D02*
X38743D01*
X37743D02*
X38243D01*
X37143D02*
X37543D01*
X35844D02*
X36344D01*
X34644D02*
X35144D01*
X34143D02*
X34543D01*
X32943D02*
X33343D01*
X31844D02*
X32144D01*
X30143D02*
X31244D01*
X28543D02*
X29043D01*
X27944D02*
X28343D01*
X27343D02*
X27843D01*
X23643D02*
X24044D01*
X23043D02*
X23444D01*
X22343D02*
X22843D01*
X38344Y11723D02*
X38743D01*
X37743D02*
X38144D01*
X37143D02*
X37543D01*
X35943D02*
X36344D01*
X34644D02*
X35144D01*
X34143D02*
X34543D01*
X32943D02*
X33343D01*
X29844D02*
X31543D01*
X28644D02*
X28943D01*
X27944D02*
X28343D01*
X27343D02*
X27744D01*
X23643D02*
X24044D01*
X23043D02*
X23444D01*
X22343D02*
X22743D01*
X38443Y11823D02*
X38743D01*
X37843D02*
X38144D01*
X37244D02*
X37543D01*
X35943D02*
X36244D01*
X34844D02*
X34944D01*
X34343D02*
X34444D01*
X33044D02*
X33143D01*
X29743D02*
X31743D01*
X28743D02*
X28844D01*
X27544D02*
X27643D01*
X23643D02*
X23944D01*
X23144D02*
X23344D01*
X22444D02*
X22743D01*
X29544Y11924D02*
X31844D01*
X29443Y12024D02*
X32043D01*
X38344Y12123D02*
X38743D01*
X37244D02*
X37444D01*
X36643D02*
X36944D01*
X35943D02*
X36344D01*
X34743D02*
X35144D01*
X34143D02*
X34543D01*
X33544D02*
X33944D01*
X29344D02*
X32144D01*
X28644D02*
X28943D01*
X27944D02*
X28343D01*
X25543D02*
X25844D01*
X24943D02*
X25243D01*
X24343D02*
X24644D01*
X21844D02*
X22243D01*
X38344Y12224D02*
X38743D01*
X37143D02*
X37543D01*
X36544D02*
X36944D01*
X35943D02*
X36344D01*
X34644D02*
X35144D01*
X34143D02*
X34543D01*
X33544D02*
X33944D01*
X29144D02*
X32243D01*
X28543D02*
X28844D01*
X27944D02*
X28343D01*
X25444D02*
X25943D01*
X24844D02*
X25343D01*
X24243D02*
X24744D01*
X21744D02*
X22243D01*
X38344Y12324D02*
X38743D01*
X37143D02*
X37543D01*
X36544D02*
X36944D01*
X35943D02*
X36344D01*
X34644D02*
X35144D01*
X34143D02*
X34543D01*
X33544D02*
X33944D01*
X29043D02*
X32344D01*
X28543D02*
X28844D01*
X27944D02*
X28343D01*
X25543D02*
X25943D01*
X24844D02*
X25343D01*
X24243D02*
X24744D01*
X21744D02*
X22243D01*
X38344Y12423D02*
X38743D01*
X37143D02*
X37543D01*
X36544D02*
X36944D01*
X35943D02*
X36344D01*
X34743D02*
X35043D01*
X34143D02*
X34543D01*
X33643D02*
X33843D01*
X29043D02*
X32344D01*
X28644D02*
X28743D01*
X27944D02*
X28343D01*
X25543D02*
X25844D01*
X24844D02*
X25243D01*
X24343D02*
X24644D01*
X21844D02*
X22243D01*
X37244Y12524D02*
X37343D01*
X36643D02*
X36843D01*
X28943D02*
X32443D01*
X25644D02*
X25743D01*
X24443D02*
X24543D01*
X28844Y12623D02*
X32443D01*
X28043D02*
X28243D01*
X23743D02*
X23844D01*
X38344Y12723D02*
X38743D01*
X35943D02*
X36344D01*
X34743D02*
X35144D01*
X34143D02*
X34543D01*
X28844D02*
X32443D01*
X27944D02*
X28343D01*
X24343D02*
X24644D01*
X23643D02*
X24044D01*
X23043D02*
X23444D01*
X21844D02*
X22143D01*
X38344Y12823D02*
X38743D01*
X35943D02*
X36344D01*
X34644D02*
X35144D01*
X34143D02*
X34543D01*
X28844D02*
X32544D01*
X27843D02*
X28343D01*
X24243D02*
X24744D01*
X23543D02*
X24044D01*
X23043D02*
X23444D01*
X21744D02*
X22243D01*
X38344Y12923D02*
X38743D01*
X35943D02*
X36344D01*
X34644D02*
X35144D01*
X34143D02*
X34543D01*
X32043D02*
X32544D01*
X31244D02*
X31743D01*
X30643D02*
X31144D01*
X29743D02*
X30544D01*
X28743D02*
X29643D01*
X27944D02*
X28343D01*
X24243D02*
X24744D01*
X23543D02*
X24044D01*
X23043D02*
X23444D01*
X21744D02*
X22243D01*
X38443Y13024D02*
X38743D01*
X35943D02*
X36344D01*
X34743D02*
X35043D01*
X34143D02*
X34543D01*
X32243D02*
X32544D01*
X31343D02*
X31543D01*
X30944D02*
X31144D01*
X30044D02*
X30244D01*
X28743D02*
X29144D01*
X28043D02*
X28243D01*
X24343D02*
X24644D01*
X23643D02*
X23944D01*
X23144D02*
X23344D01*
X21844D02*
X22143D01*
X32243Y13124D02*
X32643D01*
X31343D02*
X31543D01*
X30944D02*
X31144D01*
X30544D02*
X30643D01*
X29943D02*
X30143D01*
X28743D02*
X29243D01*
X32344Y13224D02*
X32643D01*
X31743D02*
X32043D01*
X31343D02*
X31444D01*
X31043D02*
X31144D01*
X30343D02*
X30744D01*
X29544D02*
X30143D01*
X28743D02*
X29344D01*
X39044Y13323D02*
X39344D01*
X38443D02*
X38743D01*
X37843D02*
X38144D01*
X35443D02*
X35743D01*
X34244D02*
X34444D01*
X33643D02*
X33843D01*
X32344D02*
X32643D01*
X31644D02*
X32144D01*
X31343D02*
X31444D01*
X31043D02*
X31144D01*
X30343D02*
X30843D01*
X29643D02*
X30143D01*
X28644D02*
X29443D01*
X26144D02*
X26443D01*
X25644D02*
X25844D01*
X24943D02*
X25243D01*
X23043D02*
X23344D01*
X22444D02*
X22743D01*
X21944D02*
X22143D01*
X39044Y13423D02*
X39443D01*
X38344D02*
X38844D01*
X37743D02*
X38243D01*
X35344D02*
X35743D01*
X34143D02*
X34543D01*
X33544D02*
X33944D01*
X32344D02*
X32643D01*
X31644D02*
X32144D01*
X31343D02*
X31444D01*
X31043D02*
X31144D01*
X30343D02*
X30843D01*
X29743D02*
X30143D01*
X28644D02*
X29443D01*
X26043D02*
X26544D01*
X25543D02*
X25943D01*
X24844D02*
X25243D01*
X23043D02*
X23444D01*
X22343D02*
X22843D01*
X21844D02*
X22243D01*
X39044Y13523D02*
X39443D01*
X38344D02*
X38844D01*
X37743D02*
X38243D01*
X35344D02*
X35743D01*
X34143D02*
X34543D01*
X33544D02*
X33944D01*
X32344D02*
X32643D01*
X31743D02*
X32043D01*
X31343D02*
X31444D01*
X31043D02*
X31144D01*
X30343D02*
X30744D01*
X29743D02*
X30143D01*
X28644D02*
X29544D01*
X26043D02*
X26544D01*
X25543D02*
X25943D01*
X24844D02*
X25343D01*
X22943D02*
X23444D01*
X22343D02*
X22843D01*
X21744D02*
X22243D01*
X39044Y13623D02*
X39443D01*
X38344D02*
X38743D01*
X37743D02*
X38243D01*
X35344D02*
X35743D01*
X34143D02*
X34543D01*
X33544D02*
X33944D01*
X32243D02*
X32643D01*
X31343D02*
X31543D01*
X30944D02*
X31144D01*
X29844D02*
X30244D01*
X28644D02*
X29643D01*
X26144D02*
X26544D01*
X25543D02*
X25943D01*
X24844D02*
X25243D01*
X23043D02*
X23444D01*
X22444D02*
X22743D01*
X21844D02*
X22243D01*
X39143Y13724D02*
X39344D01*
X38443D02*
X38644D01*
X37944D02*
X38043D01*
X35443D02*
X35644D01*
X34244D02*
X34444D01*
X33643D02*
X33843D01*
X32144D02*
X32643D01*
X31343D02*
X31644D01*
X30944D02*
X31144D01*
X29943D02*
X30343D01*
X28644D02*
X29743D01*
X26243D02*
X26443D01*
X25644D02*
X25743D01*
X24943D02*
X25144D01*
X23144D02*
X23344D01*
X22544D02*
X22644D01*
X21944D02*
X22043D01*
X31343Y13824D02*
X32643D01*
X29943D02*
X31144D01*
X28743D02*
X29344D01*
X39044Y13924D02*
X39344D01*
X38443D02*
X38743D01*
X37843D02*
X38144D01*
X35344D02*
X35743D01*
X34743D02*
X35043D01*
X34244D02*
X34444D01*
X33643D02*
X33944D01*
X32943D02*
X33244D01*
X31343D02*
X32643D01*
X30044D02*
X31144D01*
X28743D02*
X29144D01*
X27444D02*
X27744D01*
X26844D02*
X27143D01*
X26144D02*
X26443D01*
X23043D02*
X23444D01*
X21844D02*
X22143D01*
X39044Y14024D02*
X39443D01*
X38344D02*
X38844D01*
X37743D02*
X38243D01*
X35344D02*
X35743D01*
X34743D02*
X35144D01*
X34143D02*
X34543D01*
X33544D02*
X33944D01*
X32844D02*
X33343D01*
X31343D02*
X32544D01*
X30044D02*
X31144D01*
X28743D02*
X29144D01*
X27343D02*
X27843D01*
X26744D02*
X27244D01*
X26144D02*
X26544D01*
X23043D02*
X23444D01*
X21844D02*
X22243D01*
X39044Y14123D02*
X39443D01*
X38344D02*
X38844D01*
X37743D02*
X38243D01*
X35344D02*
X35743D01*
X34644D02*
X35144D01*
X34143D02*
X34543D01*
X33544D02*
X34043D01*
X32844D02*
X33343D01*
X28743D02*
X32544D01*
X27343D02*
X27744D01*
X26744D02*
X27244D01*
X26144D02*
X26544D01*
X23043D02*
X23444D01*
X21744D02*
X22243D01*
X39044Y14223D02*
X39443D01*
X38344D02*
X38743D01*
X37843D02*
X38243D01*
X35344D02*
X35743D01*
X34743D02*
X35144D01*
X34143D02*
X34543D01*
X33544D02*
X33944D01*
X32943D02*
X33343D01*
X28844D02*
X32544D01*
X27444D02*
X27744D01*
X26744D02*
X27143D01*
X26144D02*
X26443D01*
X23043D02*
X23444D01*
X21844D02*
X22243D01*
X39143Y14323D02*
X39244D01*
X33744D02*
X33843D01*
X28844D02*
X32443D01*
X21944D02*
X22043D01*
X28943Y14424D02*
X32443D01*
X37843Y14524D02*
X38144D01*
X37343D02*
X37444D01*
X33044D02*
X33244D01*
X28943D02*
X32344D01*
X27444D02*
X27643D01*
X26844D02*
X27143D01*
X26144D02*
X26443D01*
X25543D02*
X25844D01*
X24343D02*
X24644D01*
X23743D02*
X23944D01*
X23144D02*
X23344D01*
X22544D02*
X22644D01*
X21944D02*
X22043D01*
X37743Y14624D02*
X38243D01*
X37143D02*
X37543D01*
X33643D02*
X33944D01*
X32943D02*
X33343D01*
X29043D02*
X32344D01*
X28543D02*
X28743D01*
X27343D02*
X27744D01*
X26744D02*
X27143D01*
X26144D02*
X26544D01*
X25444D02*
X25943D01*
X24243D02*
X24744D01*
X23643D02*
X24044D01*
X23043D02*
X23444D01*
X22444D02*
X22843D01*
X21844D02*
X22243D01*
X37743Y14724D02*
X38243D01*
X37143D02*
X37543D01*
X33544D02*
X34043D01*
X32844D02*
X33343D01*
X32544D02*
X32743D01*
X29144D02*
X32243D01*
X28543D02*
X28844D01*
X27343D02*
X27744D01*
X26744D02*
X27244D01*
X26043D02*
X26544D01*
X25444D02*
X25943D01*
X24243D02*
X24744D01*
X23543D02*
X24044D01*
X23043D02*
X23444D01*
X22343D02*
X22843D01*
X21744D02*
X22243D01*
X37843Y14823D02*
X38243D01*
X37143D02*
X37543D01*
X33544D02*
X33944D01*
X32844D02*
X33343D01*
X32443D02*
X32743D01*
X29144D02*
X32144D01*
X28543D02*
X28844D01*
X27343D02*
X27744D01*
X26744D02*
X27143D01*
X26144D02*
X26544D01*
X25543D02*
X25943D01*
X24243D02*
X24744D01*
X23643D02*
X24044D01*
X23043D02*
X23444D01*
X22444D02*
X22843D01*
X21844D02*
X22243D01*
X37843Y14923D02*
X38144D01*
X37244D02*
X37444D01*
X33643D02*
X33944D01*
X32943D02*
X33244D01*
X32443D02*
X32643D01*
X29344D02*
X32043D01*
X28644D02*
X28844D01*
X27444D02*
X27643D01*
X26844D02*
X27044D01*
X26243D02*
X26443D01*
X25644D02*
X25743D01*
X24443D02*
X24543D01*
X23743D02*
X23944D01*
X23144D02*
X23344D01*
X22544D02*
X22743D01*
X21844D02*
X22143D01*
X29443Y15023D02*
X31944D01*
X39044Y15123D02*
X39344D01*
X36544D02*
X36944D01*
X35943D02*
X36344D01*
X35443D02*
X35743D01*
X34743D02*
X35043D01*
X34143D02*
X34444D01*
X33044D02*
X33244D01*
X29544D02*
X31844D01*
X28644D02*
X28943D01*
X27444D02*
X27643D01*
X26144D02*
X26443D01*
X24943D02*
X25243D01*
X24343D02*
X24644D01*
X23643D02*
X23944D01*
X23144D02*
X23344D01*
X21944D02*
X22143D01*
X39044Y15224D02*
X39443D01*
X36544D02*
X36944D01*
X35943D02*
X36344D01*
X35344D02*
X35743D01*
X34743D02*
X35144D01*
X34143D02*
X34543D01*
X32943D02*
X33343D01*
X29743D02*
X31644D01*
X28543D02*
X29043D01*
X27343D02*
X27744D01*
X26144D02*
X26544D01*
X24844D02*
X25243D01*
X24243D02*
X24644D01*
X23643D02*
X24044D01*
X23043D02*
X23444D01*
X21844D02*
X22243D01*
X39044Y15324D02*
X39443D01*
X36544D02*
X36944D01*
X35943D02*
X36344D01*
X35344D02*
X35743D01*
X34743D02*
X35144D01*
X34143D02*
X34543D01*
X32943D02*
X33343D01*
X31844D02*
X32043D01*
X29844D02*
X31444D01*
X28543D02*
X29043D01*
X27343D02*
X27843D01*
X26144D02*
X26544D01*
X24844D02*
X25243D01*
X24243D02*
X24744D01*
X23643D02*
X24044D01*
X23043D02*
X23444D01*
X21844D02*
X22243D01*
X39044Y15424D02*
X39443D01*
X36544D02*
X36944D01*
X35943D02*
X36344D01*
X35344D02*
X35743D01*
X34743D02*
X35043D01*
X34143D02*
X34543D01*
X32943D02*
X33343D01*
X31743D02*
X32043D01*
X30244D02*
X31144D01*
X28543D02*
X29043D01*
X27343D02*
X27744D01*
X26144D02*
X26544D01*
X24844D02*
X25243D01*
X24343D02*
X24644D01*
X23643D02*
X23944D01*
X23043D02*
X23444D01*
X21844D02*
X22243D01*
X32943Y15524D02*
X33244D01*
X31743D02*
X31944D01*
X27544D02*
X27643D01*
X26243D02*
X26443D01*
X25043D02*
X25144D01*
X21944D02*
X22143D01*
X38543Y15723D02*
X38644D01*
X25644D02*
X25844D01*
X38443Y15823D02*
X38844D01*
X37843D02*
X38144D01*
X36544D02*
X36944D01*
X32943D02*
X33244D01*
X31644D02*
X32043D01*
X29844D02*
X30244D01*
X28644D02*
X28943D01*
X27944D02*
X28243D01*
X25543D02*
X25943D01*
X23144D02*
X23444D01*
X21844D02*
X22143D01*
X38344Y15924D02*
X38844D01*
X37743D02*
X38243D01*
X36544D02*
X37043D01*
X32844D02*
X33343D01*
X31644D02*
X32043D01*
X29844D02*
X30244D01*
X28543D02*
X29043D01*
X27944D02*
X28343D01*
X25444D02*
X25943D01*
X23043D02*
X23444D01*
X21744D02*
X22243D01*
X38344Y16024D02*
X38844D01*
X37743D02*
X38243D01*
X36544D02*
X37043D01*
X32844D02*
X33343D01*
X31644D02*
X32043D01*
X29844D02*
X30244D01*
X28543D02*
X29043D01*
X27944D02*
X28343D01*
X25543D02*
X25943D01*
X23043D02*
X23444D01*
X21744D02*
X22243D01*
X38443Y16124D02*
X38743D01*
X37843D02*
X38144D01*
X36643D02*
X36944D01*
X32943D02*
X33343D01*
X31644D02*
X32043D01*
X29844D02*
X30244D01*
X28644D02*
X28943D01*
X27944D02*
X28243D01*
X25543D02*
X25844D01*
X23144D02*
X23444D01*
X21844D02*
X22143D01*
X33044Y16224D02*
X33143D01*
X36744Y16323D02*
X36843D01*
X36044D02*
X36244D01*
X35443D02*
X35644D01*
X34743D02*
X35043D01*
X34244D02*
X34444D01*
X33044D02*
X33143D01*
X32443D02*
X32643D01*
X26844D02*
X27044D01*
X26243D02*
X26443D01*
X24443D02*
X24543D01*
X23743D02*
X23944D01*
X39044Y16423D02*
X39443D01*
X36544D02*
X36944D01*
X35943D02*
X36344D01*
X35344D02*
X35743D01*
X34743D02*
X35144D01*
X34143D02*
X34543D01*
X33544D02*
X33944D01*
X32943D02*
X33343D01*
X32344D02*
X32743D01*
X31644D02*
X32043D01*
X29844D02*
X30244D01*
X28543D02*
X28943D01*
X26744D02*
X27244D01*
X26144D02*
X26544D01*
X24343D02*
X24744D01*
X23643D02*
X24044D01*
X39044Y16523D02*
X39443D01*
X36544D02*
X37043D01*
X35943D02*
X36344D01*
X35344D02*
X35743D01*
X34644D02*
X35144D01*
X34043D02*
X34543D01*
X33544D02*
X33944D01*
X32943D02*
X33343D01*
X32243D02*
X32743D01*
X31644D02*
X32043D01*
X29844D02*
X30244D01*
X28543D02*
X29043D01*
X26744D02*
X27244D01*
X26144D02*
X26544D01*
X24243D02*
X24744D01*
X23643D02*
X24044D01*
X39044Y16623D02*
X39443D01*
X36544D02*
X36944D01*
X35943D02*
X36344D01*
X35344D02*
X35743D01*
X34743D02*
X35144D01*
X34143D02*
X34543D01*
X33544D02*
X33944D01*
X32943D02*
X33343D01*
X32344D02*
X32743D01*
X31644D02*
X32043D01*
X29844D02*
X30244D01*
X28543D02*
X29043D01*
X26744D02*
X27244D01*
X26144D02*
X26544D01*
X24243D02*
X24744D01*
X23643D02*
X24044D01*
X39143Y16724D02*
X39443D01*
X36643D02*
X36944D01*
X36044D02*
X36244D01*
X35443D02*
X35644D01*
X34844D02*
X34944D01*
X34244D02*
X34444D01*
X33544D02*
X33944D01*
X33044D02*
X33244D01*
X32344D02*
X32643D01*
X31743D02*
X32043D01*
X29844D02*
X30143D01*
X28644D02*
X28943D01*
X26943D02*
X27143D01*
X26243D02*
X26443D01*
X24343D02*
X24644D01*
X23743D02*
X23944D01*
X39143Y16924D02*
X39344D01*
X38443D02*
X38743D01*
X37244D02*
X37543D01*
X35443D02*
X35743D01*
X34143D02*
X34444D01*
X33643D02*
X33843D01*
X32443D02*
X32643D01*
X31743D02*
X32043D01*
X29943D02*
X30143D01*
X29243D02*
X29443D01*
X28743D02*
X28844D01*
X28043D02*
X28243D01*
X26144D02*
X26443D01*
X25543D02*
X25844D01*
X24943D02*
X25144D01*
X23743D02*
X23944D01*
X23144D02*
X23344D01*
X21844D02*
X22143D01*
X39044Y17023D02*
X39443D01*
X38443D02*
X38743D01*
X37143D02*
X37543D01*
X35344D02*
X35743D01*
X34143D02*
X34543D01*
X33544D02*
X33944D01*
X32344D02*
X32743D01*
X31644D02*
X32043D01*
X29844D02*
X30244D01*
X29144D02*
X29544D01*
X28543D02*
X28943D01*
X27944D02*
X28343D01*
X26144D02*
X26544D01*
X25444D02*
X25943D01*
X24844D02*
X25243D01*
X23643D02*
X24044D01*
X23043D02*
X23444D01*
X21844D02*
X22243D01*
X39044Y17123D02*
X39443D01*
X38344D02*
X38844D01*
X37143D02*
X37543D01*
X35344D02*
X35743D01*
X34043D02*
X34543D01*
X33544D02*
X33944D01*
X32344D02*
X32743D01*
X31644D02*
X32043D01*
X29844D02*
X30244D01*
X29144D02*
X29643D01*
X28543D02*
X29043D01*
X27944D02*
X28343D01*
X26043D02*
X26544D01*
X25444D02*
X25943D01*
X24844D02*
X25243D01*
X23643D02*
X24044D01*
X23043D02*
X23444D01*
X21744D02*
X22243D01*
X39044Y17223D02*
X39443D01*
X38344D02*
X38844D01*
X37143D02*
X37543D01*
X35344D02*
X35743D01*
X34143D02*
X34543D01*
X33544D02*
X33944D01*
X32344D02*
X32743D01*
X31644D02*
X32043D01*
X29844D02*
X30244D01*
X29144D02*
X29643D01*
X28543D02*
X28943D01*
X27944D02*
X28343D01*
X26144D02*
X26544D01*
X25543D02*
X25943D01*
X24844D02*
X25243D01*
X23643D02*
X24044D01*
X23043D02*
X23444D01*
X21844D02*
X22243D01*
X39143Y17323D02*
X39344D01*
X38443D02*
X38644D01*
X37244D02*
X37444D01*
X35443D02*
X35644D01*
X34244D02*
X34444D01*
X32544D02*
X32643D01*
X29943D02*
X30143D01*
X29243D02*
X29544D01*
X28743D02*
X28844D01*
X28144D02*
X28243D01*
X26243D02*
X26344D01*
X25644D02*
X25743D01*
X24943D02*
X25144D01*
X23743D02*
X23844D01*
X23144D02*
X23344D01*
X21944D02*
X22143D01*
X34143Y17624D02*
X34543D01*
X32344D02*
X32743D01*
X31743D02*
X32043D01*
X31144D02*
X31444D01*
X29243D02*
X29544D01*
X27944D02*
X28343D01*
X26844D02*
X27143D01*
X34143Y17724D02*
X34543D01*
X32344D02*
X32743D01*
X31644D02*
X32043D01*
X31043D02*
X31543D01*
X29144D02*
X29544D01*
X27944D02*
X28343D01*
X26744D02*
X27244D01*
X34143Y17823D02*
X34543D01*
X32344D02*
X32743D01*
X31644D02*
X32043D01*
X31043D02*
X31543D01*
X29144D02*
X29544D01*
X27944D02*
X28343D01*
X26744D02*
X27244D01*
X34143Y17923D02*
X34444D01*
X32443D02*
X32643D01*
X31644D02*
X32043D01*
X31144D02*
X31444D01*
X29144D02*
X29544D01*
X27944D02*
X28343D01*
X26844D02*
X27143D01*
X35943Y18124D02*
X38844D01*
X34244D02*
X34343D01*
X22444D02*
X25243D01*
X35743Y18224D02*
X39044D01*
X34143D02*
X34543D01*
X32943D02*
X33343D01*
X31644D02*
X32043D01*
X30444D02*
X30843D01*
X29144D02*
X29544D01*
X27944D02*
X28343D01*
X26844D02*
X27143D01*
X22143D02*
X25543D01*
X35544Y18324D02*
X39143D01*
X34143D02*
X34543D01*
X32943D02*
X33343D01*
X31644D02*
X32043D01*
X30343D02*
X30843D01*
X29144D02*
X29544D01*
X27944D02*
X28343D01*
X26744D02*
X27244D01*
X22043D02*
X25644D01*
X35443Y18424D02*
X39244D01*
X34143D02*
X34543D01*
X32943D02*
X33343D01*
X31644D02*
X32043D01*
X30343D02*
X30843D01*
X29144D02*
X29544D01*
X27944D02*
X28343D01*
X26744D02*
X27244D01*
X21944D02*
X25743D01*
X35443Y18523D02*
X39344D01*
X34143D02*
X34444D01*
X32943D02*
X33244D01*
X31743D02*
X32043D01*
X30444D02*
X30843D01*
X29243D02*
X29544D01*
X27944D02*
X28343D01*
X26844D02*
X27143D01*
X21844D02*
X25844D01*
X35344Y18623D02*
X39443D01*
X21844D02*
X25943D01*
X38443Y18723D02*
X39443D01*
X38043D02*
X38144D01*
X35344D02*
X37843D01*
X24943D02*
X25943D01*
X24443D02*
X24644D01*
X21744D02*
X23844D01*
X38743Y18823D02*
X39443D01*
X35243D02*
X36044D01*
X34143D02*
X34444D01*
X33643D02*
X33944D01*
X31743D02*
X31944D01*
X29943D02*
X30143D01*
X28644D02*
X28844D01*
X25243D02*
X25943D01*
X21744D02*
X22544D01*
X38844Y18924D02*
X39544D01*
X35243D02*
X35943D01*
X34143D02*
X34543D01*
X33544D02*
X33944D01*
X31644D02*
X32043D01*
X29844D02*
X30244D01*
X28543D02*
X28943D01*
X25243D02*
X26043D01*
X21744D02*
X22444D01*
X38844Y19024D02*
X39544D01*
X35243D02*
X35943D01*
X34143D02*
X34543D01*
X33544D02*
X33944D01*
X31644D02*
X32043D01*
X29844D02*
X30244D01*
X28543D02*
X28943D01*
X25343D02*
X26043D01*
X21744D02*
X22343D01*
X38844Y19124D02*
X39544D01*
X35243D02*
X35844D01*
X34143D02*
X34543D01*
X33544D02*
X33944D01*
X31644D02*
X32043D01*
X29844D02*
X30244D01*
X28543D02*
X28943D01*
X25343D02*
X26043D01*
X21644D02*
X22343D01*
X38844Y19223D02*
X39544D01*
X35243D02*
X35844D01*
X31743D02*
X31944D01*
X29943D02*
X30044D01*
X28644D02*
X28844D01*
X25343D02*
X26043D01*
X21644D02*
X22343D01*
X38844Y19323D02*
X39544D01*
X36744D02*
X37944D01*
X35243D02*
X35844D01*
X25343D02*
X26043D01*
X23244D02*
X24443D01*
X21744D02*
X22343D01*
X38844Y19423D02*
X39544D01*
X36544D02*
X38144D01*
X35243D02*
X35844D01*
X33544D02*
X33944D01*
X32943D02*
X33244D01*
X32344D02*
X32743D01*
X31743D02*
X32043D01*
X31144D02*
X31444D01*
X29243D02*
X29544D01*
X28644D02*
X28943D01*
X27944D02*
X28243D01*
X27444D02*
X27744D01*
X25343D02*
X26043D01*
X23043D02*
X24644D01*
X21644D02*
X22343D01*
X38844Y19523D02*
X39544D01*
X36544D02*
X38243D01*
X35243D02*
X35844D01*
X33544D02*
X33944D01*
X32844D02*
X33343D01*
X32344D02*
X32743D01*
X31644D02*
X32043D01*
X31043D02*
X31543D01*
X29144D02*
X29544D01*
X28543D02*
X28943D01*
X27944D02*
X28343D01*
X27343D02*
X27744D01*
X25343D02*
X26043D01*
X22943D02*
X24744D01*
X21644D02*
X22343D01*
X38844Y19624D02*
X39544D01*
X36443D02*
X38243D01*
X35243D02*
X35844D01*
X33544D02*
X33944D01*
X32844D02*
X33343D01*
X32344D02*
X32743D01*
X31644D02*
X32043D01*
X31043D02*
X31543D01*
X29144D02*
X29544D01*
X28543D02*
X29043D01*
X27843D02*
X28343D01*
X27343D02*
X27744D01*
X25343D02*
X26043D01*
X22943D02*
X24744D01*
X21644D02*
X22343D01*
X38844Y19724D02*
X39544D01*
X36443D02*
X38243D01*
X35243D02*
X35844D01*
X33643D02*
X33944D01*
X32943D02*
X33244D01*
X32344D02*
X32743D01*
X31743D02*
X32043D01*
X31144D02*
X31444D01*
X29144D02*
X29544D01*
X28644D02*
X28943D01*
X27944D02*
X28243D01*
X27444D02*
X27744D01*
X25343D02*
X26043D01*
X22943D02*
X24744D01*
X21644D02*
X22343D01*
X38844Y19824D02*
X39544D01*
X36443D02*
X38243D01*
X35243D02*
X35844D01*
X25343D02*
X26043D01*
X22943D02*
X24744D01*
X21644D02*
X22343D01*
X38844Y19924D02*
X39544D01*
X36443D02*
X38243D01*
X35243D02*
X35844D01*
X25343D02*
X26043D01*
X22943D02*
X24744D01*
X21644D02*
X22343D01*
X38844Y20023D02*
X39544D01*
X36443D02*
X38243D01*
X35243D02*
X35844D01*
X34244D02*
X34444D01*
X32443D02*
X32643D01*
X31244D02*
X31343D01*
X28743D02*
X28844D01*
X26943D02*
X27143D01*
X25343D02*
X26043D01*
X22943D02*
X24744D01*
X21744D02*
X22343D01*
X38844Y20123D02*
X39544D01*
X36443D02*
X38243D01*
X35243D02*
X35844D01*
X34143D02*
X34543D01*
X32344D02*
X32743D01*
X31144D02*
X31444D01*
X29844D02*
X30244D01*
X28543D02*
X28943D01*
X27944D02*
X28343D01*
X26844D02*
X27244D01*
X25343D02*
X26043D01*
X22943D02*
X24744D01*
X21744D02*
X22343D01*
X38844Y20223D02*
X39544D01*
X36443D02*
X38243D01*
X35243D02*
X35844D01*
X34043D02*
X34543D01*
X32344D02*
X32743D01*
X31043D02*
X31543D01*
X29844D02*
X30244D01*
X28543D02*
X29043D01*
X27944D02*
X28343D01*
X26744D02*
X27244D01*
X25343D02*
X26043D01*
X22943D02*
X24744D01*
X21744D02*
X22343D01*
X38844Y20324D02*
X39544D01*
X36443D02*
X38243D01*
X35243D02*
X35844D01*
X34143D02*
X34543D01*
X32344D02*
X32743D01*
X31144D02*
X31444D01*
X29844D02*
X30244D01*
X28543D02*
X28943D01*
X27944D02*
X28343D01*
X26844D02*
X27244D01*
X25343D02*
X26043D01*
X22943D02*
X24744D01*
X21744D02*
X22343D01*
X38844Y20424D02*
X39544D01*
X36443D02*
X38243D01*
X35243D02*
X35844D01*
X34244D02*
X34444D01*
X32443D02*
X32643D01*
X31244D02*
X31343D01*
X29943D02*
X30143D01*
X28644D02*
X28844D01*
X28043D02*
X28243D01*
X26844D02*
X27044D01*
X25343D02*
X26043D01*
X22943D02*
X24744D01*
X21744D02*
X22343D01*
X38844Y20524D02*
X39544D01*
X36443D02*
X38243D01*
X35243D02*
X35844D01*
X25343D02*
X26043D01*
X22943D02*
X24744D01*
X21744D02*
X22343D01*
X38844Y20624D02*
X39544D01*
X36443D02*
X38243D01*
X35243D02*
X35844D01*
X32943D02*
X33244D01*
X29844D02*
X30143D01*
X28043D02*
X28243D01*
X25343D02*
X26043D01*
X22943D02*
X24744D01*
X21744D02*
X22343D01*
X38844Y20723D02*
X39544D01*
X36443D02*
X38243D01*
X35243D02*
X35844D01*
X32943D02*
X33343D01*
X29844D02*
X30244D01*
X27944D02*
X28343D01*
X25343D02*
X26043D01*
X22943D02*
X24744D01*
X21744D02*
X22343D01*
X38844Y20823D02*
X39544D01*
X36443D02*
X38243D01*
X35243D02*
X35844D01*
X32844D02*
X33343D01*
X29844D02*
X30244D01*
X27944D02*
X28343D01*
X25343D02*
X26043D01*
X22943D02*
X24744D01*
X21744D02*
X22343D01*
X38844Y20923D02*
X39544D01*
X36544D02*
X38243D01*
X35243D02*
X35844D01*
X32943D02*
X33244D01*
X29844D02*
X30244D01*
X27944D02*
X28343D01*
X25343D02*
X26043D01*
X23043D02*
X24644D01*
X21744D02*
X22343D01*
X38844Y21023D02*
X39544D01*
X36643D02*
X38144D01*
X35243D02*
X35844D01*
X28043D02*
X28243D01*
X25343D02*
X26043D01*
X23144D02*
X24543D01*
X21744D02*
X22343D01*
X38844Y21124D02*
X39544D01*
X36843D02*
X37843D01*
X35243D02*
X35844D01*
X25343D02*
X26043D01*
X23643D02*
X23743D01*
X21744D02*
X22343D01*
X38844Y21224D02*
X39544D01*
X35243D02*
X35844D01*
X25343D02*
X26043D01*
X21744D02*
X22343D01*
X38844Y21324D02*
X39544D01*
X35243D02*
X35844D01*
X34143D02*
X34543D01*
X32943D02*
X33244D01*
X30444D02*
X30843D01*
X28644D02*
X28943D01*
X27444D02*
X27744D01*
X26844D02*
X27143D01*
X25343D02*
X26043D01*
X21744D02*
X22343D01*
X38844Y21423D02*
X39544D01*
X35243D02*
X35943D01*
X34143D02*
X34543D01*
X32943D02*
X33343D01*
X30343D02*
X30843D01*
X28543D02*
X28943D01*
X27343D02*
X27843D01*
X26744D02*
X27244D01*
X25343D02*
X25943D01*
X21744D02*
X22444D01*
X38743Y21523D02*
X39443D01*
X35243D02*
X35943D01*
X34143D02*
X34543D01*
X32943D02*
X33343D01*
X30444D02*
X30843D01*
X28543D02*
X28943D01*
X27343D02*
X27843D01*
X26744D02*
X27244D01*
X25243D02*
X25943D01*
X21744D02*
X22444D01*
X38644Y21623D02*
X39443D01*
X35344D02*
X36044D01*
X34143D02*
X34543D01*
X32943D02*
X33244D01*
X30444D02*
X30744D01*
X28644D02*
X28943D01*
X27444D02*
X27744D01*
X26844D02*
X27143D01*
X25144D02*
X25943D01*
X21744D02*
X22544D01*
X35344Y21723D02*
X39443D01*
X21844D02*
X25844D01*
X35344Y21824D02*
X39344D01*
X33643D02*
X33843D01*
X32943D02*
X33244D01*
X32443D02*
X32643D01*
X30544D02*
X30744D01*
X29844D02*
X30143D01*
X29243D02*
X29443D01*
X28144D02*
X28243D01*
X27544D02*
X27643D01*
X26844D02*
X27044D01*
X21844D02*
X25844D01*
X35443Y21924D02*
X39244D01*
X33544D02*
X33944D01*
X32943D02*
X33343D01*
X32344D02*
X32743D01*
X30444D02*
X30843D01*
X29844D02*
X30244D01*
X29144D02*
X29544D01*
X28043D02*
X28343D01*
X27444D02*
X27744D01*
X26844D02*
X27143D01*
X21944D02*
X25743D01*
X35544Y22024D02*
X39244D01*
X33544D02*
X33944D01*
X32844D02*
X33343D01*
X32344D02*
X32743D01*
X30343D02*
X30843D01*
X29844D02*
X30244D01*
X29144D02*
X29544D01*
X27944D02*
X28343D01*
X27343D02*
X27843D01*
X26744D02*
X27244D01*
X22043D02*
X25644D01*
X35644Y22124D02*
X39143D01*
X33544D02*
X33944D01*
X32943D02*
X33343D01*
X32344D02*
X32743D01*
X30444D02*
X30843D01*
X29844D02*
X30244D01*
X29144D02*
X29544D01*
X28043D02*
X28343D01*
X27444D02*
X27843D01*
X26844D02*
X27244D01*
X22143D02*
X25543D01*
X35844Y22223D02*
X38943D01*
X33643D02*
X33944D01*
X33044D02*
X33244D01*
X32443D02*
X32643D01*
X30444D02*
X30744D01*
X29943D02*
X30143D01*
X29243D02*
X29443D01*
X28043D02*
X28243D01*
X27444D02*
X27744D01*
X26844D02*
X27143D01*
X22243D02*
X25444D01*
X36143Y22323D02*
X38644D01*
X22544D02*
X25144D01*
X49694Y7224D02*
X49793D01*
X49694Y7323D02*
X49894D01*
X49694Y7423D02*
X49994D01*
X49694Y7524D02*
X50094D01*
X49694Y7623D02*
X50194D01*
X49694Y7723D02*
X50293D01*
X49694Y7824D02*
X50393D01*
X49694Y7924D02*
X50494D01*
X49694Y8023D02*
X50594D01*
X49694Y8123D02*
X50694D01*
X49694Y8224D02*
X50793D01*
X49694Y8324D02*
X50893D01*
X49694Y8423D02*
X50994D01*
X49694Y8523D02*
X51094D01*
X49694Y8624D02*
X51193D01*
X49694Y8724D02*
X51293D01*
X49694Y8823D02*
X51293D01*
X49694Y8924D02*
X51293D01*
X49694Y9024D02*
X51293D01*
X47394D02*
X47594D01*
X49694Y9123D02*
X51293D01*
X47293D02*
X47894D01*
X49694Y9223D02*
X51293D01*
X47194D02*
X48094D01*
X49694Y9324D02*
X51293D01*
X47093D02*
X48294D01*
X49694Y9424D02*
X51293D01*
X46993D02*
X48493D01*
X49694Y9523D02*
X51293D01*
X46894D02*
X48693D01*
X49694Y9623D02*
X51293D01*
X46793D02*
X48794D01*
X49694Y9724D02*
X51293D01*
X46694D02*
X48893D01*
X49694Y9824D02*
X51293D01*
X46694D02*
X49093D01*
X49694Y9923D02*
X51293D01*
X46593D02*
X49194D01*
X49793Y10024D02*
X51293D01*
X46494D02*
X49294D01*
X49894Y10124D02*
X51293D01*
X46393D02*
X49393D01*
X49994Y10223D02*
X51293D01*
X46294D02*
X49393D01*
X49994Y10323D02*
X51293D01*
X46194D02*
X49494D01*
X50094Y10424D02*
X51293D01*
X46093D02*
X49593D01*
X50094Y10524D02*
X51293D01*
X47293D02*
X49593D01*
X45994D02*
X46294D01*
X50194Y10623D02*
X51293D01*
X47594D02*
X49694D01*
X45893D02*
X46093D01*
X50194Y10723D02*
X51293D01*
X47793D02*
X49793D01*
X45794D02*
X45893D01*
X50293Y10824D02*
X51293D01*
X47894D02*
X49793D01*
X50293Y10924D02*
X51293D01*
X47993D02*
X49793D01*
X50393Y11023D02*
X51293D01*
X48193D02*
X49894D01*
X50393Y11124D02*
X51293D01*
X48193D02*
X49894D01*
X50393Y11224D02*
X51293D01*
X48294D02*
X49894D01*
X50494Y11323D02*
X51293D01*
X48393D02*
X49994D01*
X45193D02*
X45294D01*
X50494Y11423D02*
X51293D01*
X48393D02*
X49994D01*
X45094D02*
X45193D01*
X50494Y11524D02*
X51293D01*
X48493D02*
X49994D01*
X44993D02*
X45193D01*
X50494Y11624D02*
X51293D01*
X48493D02*
X50094D01*
X44894D02*
X45094D01*
X54194Y11723D02*
X54294D01*
X50494D02*
X51293D01*
X48493D02*
X50094D01*
X44793D02*
X45094D01*
X54194Y11823D02*
X54394D01*
X50594D02*
X51293D01*
X48594D02*
X50094D01*
X44693D02*
X45094D01*
X54093Y11924D02*
X54493D01*
X50594D02*
X51293D01*
X48594D02*
X50094D01*
X44594D02*
X45094D01*
X53993Y12024D02*
X54593D01*
X50594D02*
X51293D01*
X48594D02*
X50094D01*
X44493D02*
X45094D01*
X53894Y12123D02*
X54694D01*
X50594D02*
X51293D01*
X48594D02*
X50094D01*
X44394D02*
X44993D01*
X53894Y12224D02*
X54794D01*
X50594D02*
X51293D01*
X48594D02*
X50094D01*
X44293D02*
X45094D01*
X53794Y12324D02*
X54893D01*
X50594D02*
X51293D01*
X48594D02*
X50094D01*
X44194D02*
X45094D01*
X53693Y12423D02*
X54993D01*
X50594D02*
X51293D01*
X48493D02*
X50094D01*
X46793D02*
X46894D01*
X44093D02*
X45094D01*
X53593Y12524D02*
X55093D01*
X50494D02*
X51293D01*
X48493D02*
X50094D01*
X46694D02*
X46894D01*
X44093D02*
X45193D01*
X53593Y12623D02*
X55194D01*
X50494D02*
X51293D01*
X48493D02*
X50094D01*
X46593D02*
X46993D01*
X43993D02*
X45193D01*
X53493Y12723D02*
X55294D01*
X50494D02*
X51293D01*
X48393D02*
X50094D01*
X46494D02*
X47093D01*
X43894D02*
X45294D01*
X53394Y12823D02*
X55393D01*
X50494D02*
X51293D01*
X48193D02*
X49994D01*
X46894D02*
X47194D01*
X46393D02*
X46793D01*
X43793D02*
X45393D01*
X53294Y12923D02*
X55493D01*
X50494D02*
X51293D01*
X48094D02*
X49994D01*
X46993D02*
X47394D01*
X46194D02*
X46694D01*
X43694D02*
X45594D01*
X53294Y13024D02*
X55594D01*
X50393D02*
X51293D01*
X47194D02*
X49994D01*
X43593D02*
X46494D01*
X53193Y13124D02*
X55594D01*
X50393D02*
X51293D01*
X47293D02*
X49994D01*
X43494D02*
X46294D01*
X53093Y13224D02*
X55694D01*
X50393D02*
X51293D01*
X48094D02*
X49894D01*
X43393D02*
X45494D01*
X52994Y13323D02*
X55793D01*
X50393D02*
X51293D01*
X47993D02*
X49894D01*
X43393D02*
X45393D01*
X52994Y13423D02*
X55893D01*
X50293D02*
X51293D01*
X47894D02*
X49793D01*
X43293D02*
X45294D01*
X52894Y13523D02*
X55993D01*
X50293D02*
X51293D01*
X47793D02*
X49793D01*
X43194D02*
X45193D01*
X52794Y13623D02*
X55993D01*
X50194D02*
X51293D01*
X47594D02*
X49694D01*
X43093D02*
X45094D01*
X52693Y13724D02*
X56094D01*
X50194D02*
X51293D01*
X45693D02*
X49694D01*
X43093D02*
X44993D01*
X52693Y13824D02*
X56194D01*
X50094D02*
X51293D01*
X45494D02*
X49593D01*
X42994D02*
X44894D01*
X52593Y13924D02*
X56194D01*
X50094D02*
X51293D01*
X45393D02*
X49494D01*
X42994D02*
X44894D01*
X52494Y14024D02*
X56293D01*
X49994D02*
X51293D01*
X45294D02*
X49393D01*
X42893D02*
X44793D01*
X52394Y14123D02*
X56293D01*
X49894D02*
X51293D01*
X45193D02*
X49294D01*
X42794D02*
X44693D01*
X54493Y14223D02*
X56393D01*
X52293D02*
X54294D01*
X49793D02*
X51293D01*
X45193D02*
X49294D01*
X42794D02*
X44594D01*
X54593Y14323D02*
X56393D01*
X52293D02*
X54194D01*
X49793D02*
X51293D01*
X45094D02*
X49194D01*
X42794D02*
X44493D01*
X54694Y14424D02*
X56494D01*
X52193D02*
X54093D01*
X49694D02*
X51293D01*
X44993D02*
X49093D01*
X42693D02*
X44493D01*
X54794Y14524D02*
X56494D01*
X52093D02*
X53993D01*
X49694D02*
X51293D01*
X44894D02*
X48893D01*
X42693D02*
X44394D01*
X54794Y14624D02*
X56494D01*
X51994D02*
X53993D01*
X49694D02*
X51293D01*
X44894D02*
X48893D01*
X42594D02*
X44293D01*
X54893Y14724D02*
X56594D01*
X51894D02*
X53894D01*
X49694D02*
X51293D01*
X44793D02*
X48893D01*
X42594D02*
X44293D01*
X54893Y14823D02*
X56594D01*
X51894D02*
X53794D01*
X49694D02*
X51293D01*
X44693D02*
X48893D01*
X42494D02*
X44194D01*
X54993Y14923D02*
X56594D01*
X51793D02*
X53693D01*
X49694D02*
X51293D01*
X44693D02*
X48994D01*
X42494D02*
X44194D01*
X54993Y15023D02*
X56694D01*
X51693D02*
X53593D01*
X49694D02*
X51293D01*
X44594D02*
X49093D01*
X42494D02*
X44093D01*
X55093Y15123D02*
X56694D01*
X51594D02*
X53593D01*
X49694D02*
X51293D01*
X44594D02*
X49194D01*
X42494D02*
X44093D01*
X55093Y15224D02*
X56694D01*
X51494D02*
X53493D01*
X49694D02*
X51293D01*
X44493D02*
X49294D01*
X42393D02*
X44093D01*
X55194Y15324D02*
X56694D01*
X51494D02*
X53394D01*
X49793D02*
X51293D01*
X46993D02*
X49294D01*
X42393D02*
X43993D01*
X55194Y15424D02*
X56793D01*
X49793D02*
X53294D01*
X47293D02*
X49393D01*
X42393D02*
X43993D01*
X55194Y15524D02*
X56793D01*
X49894D02*
X53294D01*
X47493D02*
X49393D01*
X42393D02*
X43993D01*
X55194Y15623D02*
X56793D01*
X49894D02*
X53193D01*
X47594D02*
X49494D01*
X42393D02*
X43993D01*
X55294Y15723D02*
X56793D01*
X49994D02*
X53093D01*
X47693D02*
X49494D01*
X42393D02*
X43894D01*
X55294Y15823D02*
X56793D01*
X49994D02*
X52994D01*
X47793D02*
X49494D01*
X42393D02*
X43894D01*
X55294Y15924D02*
X56793D01*
X49994D02*
X52894D01*
X47894D02*
X49593D01*
X42393D02*
X43894D01*
X55294Y16024D02*
X56793D01*
X50094D02*
X52894D01*
X47993D02*
X49593D01*
X42393D02*
X43894D01*
X55294Y16124D02*
X56793D01*
X50094D02*
X52794D01*
X47993D02*
X49593D01*
X42393D02*
X43894D01*
X55294Y16224D02*
X56793D01*
X50094D02*
X52693D01*
X48094D02*
X49593D01*
X42393D02*
X43894D01*
X55294Y16323D02*
X56793D01*
X50094D02*
X52593D01*
X48094D02*
X49694D01*
X42294D02*
X43894D01*
X55294Y16423D02*
X56793D01*
X50094D02*
X52494D01*
X48094D02*
X49694D01*
X42294D02*
X43894D01*
X55294Y16523D02*
X56793D01*
X50094D02*
X52494D01*
X48094D02*
X49694D01*
X42393D02*
X43894D01*
X55194Y16623D02*
X56793D01*
X50094D02*
X52394D01*
X48193D02*
X49694D01*
X42393D02*
X43894D01*
X55194Y16724D02*
X56793D01*
X50094D02*
X52293D01*
X48193D02*
X49694D01*
X42393D02*
X43894D01*
X55194Y16824D02*
X56793D01*
X50094D02*
X52193D01*
X48193D02*
X49694D01*
X42393D02*
X43993D01*
X55194Y16924D02*
X56694D01*
X50094D02*
X52093D01*
X48193D02*
X49694D01*
X42393D02*
X43993D01*
X55093Y17023D02*
X56694D01*
X50094D02*
X52093D01*
X48193D02*
X49694D01*
X42393D02*
X43993D01*
X55093Y17123D02*
X56694D01*
X50094D02*
X51994D01*
X48094D02*
X49694D01*
X42494D02*
X44093D01*
X54993Y17223D02*
X56694D01*
X50094D02*
X51894D01*
X48094D02*
X49694D01*
X42494D02*
X44093D01*
X54993Y17323D02*
X56594D01*
X50094D02*
X51793D01*
X48094D02*
X49694D01*
X42494D02*
X44194D01*
X54893Y17424D02*
X56594D01*
X50094D02*
X51793D01*
X48094D02*
X49593D01*
X42494D02*
X44194D01*
X54893Y17524D02*
X56594D01*
X50094D02*
X51693D01*
X47993D02*
X49593D01*
X42594D02*
X44293D01*
X54794Y17624D02*
X56494D01*
X50094D02*
X51594D01*
X47894D02*
X49593D01*
X42594D02*
X44394D01*
X54694Y17724D02*
X56494D01*
X49994D02*
X51494D01*
X47894D02*
X49593D01*
X42594D02*
X44394D01*
X54593Y17823D02*
X56494D01*
X49994D02*
X51494D01*
X47793D02*
X49494D01*
X42693D02*
X44493D01*
X54493Y17923D02*
X56393D01*
X49994D02*
X51394D01*
X47693D02*
X49494D01*
X42693D02*
X44594D01*
X54394Y18023D02*
X56393D01*
X49994D02*
X51293D01*
X47594D02*
X49494D01*
X42794D02*
X44793D01*
X54194Y18124D02*
X56293D01*
X49894D02*
X51193D01*
X47394D02*
X49393D01*
X42794D02*
X44894D01*
X53993Y18224D02*
X56293D01*
X51693D02*
X51894D01*
X49894D02*
X51193D01*
X47293D02*
X49393D01*
X42893D02*
X45094D01*
X53794Y18324D02*
X56194D01*
X51594D02*
X52193D01*
X49793D02*
X51094D01*
X46993D02*
X49294D01*
X42994D02*
X45393D01*
X53394Y18424D02*
X56094D01*
X51594D02*
X52494D01*
X49793D02*
X50994D01*
X46593D02*
X49194D01*
X42994D02*
X45794D01*
X51494Y18523D02*
X56094D01*
X49793D02*
X50893D01*
X43093D02*
X49194D01*
X51394Y18623D02*
X55993D01*
X49894D02*
X50893D01*
X43194D02*
X49093D01*
X51293Y18723D02*
X55893D01*
X49994D02*
X50793D01*
X43293D02*
X48994D01*
X51293Y18823D02*
X55793D01*
X50094D02*
X50694D01*
X43293D02*
X48893D01*
X51193Y18924D02*
X55694D01*
X50194D02*
X50594D01*
X43393D02*
X48794D01*
X51094Y19024D02*
X55594D01*
X50293D02*
X50594D01*
X43593D02*
X48693D01*
X50994Y19124D02*
X55493D01*
X43694D02*
X48594D01*
X50994Y19223D02*
X55393D01*
X43793D02*
X48493D01*
X50893Y19323D02*
X55194D01*
X43894D02*
X48393D01*
X50893Y19423D02*
X55093D01*
X44093D02*
X48193D01*
X50994Y19523D02*
X54893D01*
X44293D02*
X48094D01*
X51193Y19624D02*
X54694D01*
X44394D02*
X47894D01*
X51394Y19724D02*
X54493D01*
X44693D02*
X47693D01*
X51693Y19824D02*
X54194D01*
X44993D02*
X47394D01*
X52093Y19924D02*
X53693D01*
X45393D02*
X46894D01*
D18*
X168266Y203432D02*
D03*
D19*
X164329Y208550D02*
D03*
X149368D02*
D03*
X141494Y202645D02*
D03*
X131849Y208550D02*
D03*
D20*
X160392Y205597D02*
D03*
X153305D02*
D03*
X145431D02*
D03*
X137557D02*
D03*
D21*
X156257Y202645D02*
D03*
D22*
X130864Y202644D02*
D03*
X126337D02*
D03*
M02*
