G04*
G04 #@! TF.GenerationSoftware,Altium Limited,Altium Designer,24.10.1 (45)*
G04*
G04 Layer_Color=128*
%FSLAX25Y25*%
%MOIN*%
G70*
G04*
G04 #@! TF.SameCoordinates,D125F1F0-FD59-41E9-894A-6D37F1295767*
G04*
G04*
G04 #@! TF.FilePolarity,Positive*
G04*
G01*
G75*
%ADD88C,0.00500*%
D88*
X186557Y159698D02*
X188132D01*
X187344Y158911D02*
Y160486D01*
X219070Y158623D02*
X226117D01*
X222594Y155099D02*
Y162146D01*
X180422Y204624D02*
X183965D01*
X182194Y202852D02*
Y206395D01*
X190422Y204624D02*
X193965D01*
X192193Y202852D02*
Y206395D01*
X200422Y204624D02*
X203965D01*
X202193Y202852D02*
Y206395D01*
X210422Y204624D02*
X213965D01*
X212193Y202852D02*
Y206395D01*
X220422Y204624D02*
X223965D01*
X222194Y202852D02*
Y206395D01*
X241822Y204624D02*
X245366D01*
X243594Y202852D02*
Y206395D01*
X231822Y204624D02*
X235366D01*
X233594Y202852D02*
Y206395D01*
X168095Y21437D02*
X173095D01*
X170595Y18937D02*
Y23937D01*
X148095Y21437D02*
X153095D01*
X150595Y18937D02*
Y23937D01*
X195422Y12623D02*
X198965D01*
X197194Y10852D02*
Y14395D01*
X185422Y12623D02*
X188965D01*
X187194Y10852D02*
Y14395D01*
X269288Y199624D02*
X281099D01*
X275194Y193718D02*
Y205529D01*
X270288Y11624D02*
X282099D01*
X276193Y5718D02*
Y17529D01*
X3288Y10623D02*
X15099D01*
X9194Y4718D02*
Y16529D01*
X2288Y200623D02*
X14099D01*
X8194Y194718D02*
Y206529D01*
X60883Y87497D02*
X62457D01*
X61670Y86710D02*
Y88285D01*
X57070Y52248D02*
X64118D01*
X60594Y48724D02*
Y55772D01*
X57070Y159248D02*
X64118D01*
X60594Y155725D02*
Y162772D01*
X95056Y158172D02*
X96631D01*
X95843Y157385D02*
Y158960D01*
X219070Y52248D02*
X226118D01*
X222594Y48724D02*
Y55772D01*
X222883Y87497D02*
X224457D01*
X223670Y86710D02*
Y88285D01*
X172870Y149862D02*
X174445D01*
X173658Y149074D02*
Y150649D01*
X53401Y165310D02*
X56157D01*
X54779Y163932D02*
Y166688D01*
X89508Y17644D02*
X93445D01*
X91476Y15676D02*
Y19613D01*
X113031Y18089D02*
X116968D01*
X114999Y16121D02*
Y20058D01*
X215032Y165316D02*
X217788D01*
X216410Y163938D02*
Y166694D01*
X115401Y188596D02*
X118201D01*
X116801Y187197D02*
Y189997D01*
X107425Y188524D02*
X110225D01*
X108825Y187124D02*
Y189924D01*
X127403Y54590D02*
X130159D01*
X128781Y53212D02*
Y55968D01*
X121121Y80972D02*
X123877D01*
X122499Y79594D02*
Y82350D01*
X143526Y103621D02*
X146281D01*
X144904Y102243D02*
Y104999D01*
X130264Y116847D02*
X133020D01*
X131642Y115469D02*
Y118225D01*
X149877Y116813D02*
X152633D01*
X151255Y115435D02*
Y118191D01*
X173363Y106971D02*
X176119D01*
X174741Y105593D02*
Y108349D01*
X127822Y15470D02*
X130578D01*
X129200Y14092D02*
Y16848D01*
X155949Y44295D02*
X158705D01*
X157327Y42917D02*
Y45673D01*
X142115Y73349D02*
X144871D01*
X143493Y71971D02*
Y74727D01*
X148216Y83248D02*
X150972D01*
X149594Y81870D02*
Y84626D01*
X171216Y45248D02*
X173972D01*
X172594Y43870D02*
Y46626D01*
X170216Y78248D02*
X172972D01*
X171594Y76870D02*
Y79626D01*
X99807Y113248D02*
X101381D01*
X100594Y112461D02*
Y114035D01*
X100807Y97248D02*
X102381D01*
X101594Y96461D02*
Y98036D01*
X163807Y166248D02*
X165381D01*
X164594Y165461D02*
Y167035D01*
X177004Y175676D02*
X178185D01*
X177594Y175086D02*
Y176267D01*
X13099Y104624D02*
X14674D01*
X13886Y103836D02*
Y105411D01*
X13099Y112623D02*
X14674D01*
X13886Y111836D02*
Y113411D01*
X134063Y85507D02*
X135263D01*
X134662Y84907D02*
Y86107D01*
X134063Y81570D02*
X135263D01*
X134662Y80970D02*
Y82170D01*
X130125Y81570D02*
X131325D01*
X130726Y80970D02*
Y82170D01*
X130125Y85507D02*
X131325D01*
X130726Y84907D02*
Y86107D01*
X78816Y7802D02*
X81572D01*
X80194Y6424D02*
Y9180D01*
X100406Y128623D02*
X101981D01*
X101193Y127836D02*
Y129411D01*
X162406Y156623D02*
X163981D01*
X163194Y155836D02*
Y157411D01*
X65406Y101623D02*
X66981D01*
X66193Y100836D02*
Y102411D01*
X114406Y162624D02*
X115981D01*
X115193Y161836D02*
Y163411D01*
X66406Y111624D02*
X67981D01*
X67194Y110836D02*
Y112411D01*
X15271Y95203D02*
X18027D01*
X16649Y93825D02*
Y96581D01*
X17666Y121624D02*
X20422D01*
X19044Y120246D02*
Y123001D01*
X143406Y128623D02*
X144981D01*
X144193Y127836D02*
Y129411D01*
X185406Y85064D02*
X186981D01*
X186194Y84277D02*
Y85852D01*
X162406Y128623D02*
X163981D01*
X163194Y127836D02*
Y129411D01*
X150406Y127623D02*
X151981D01*
X151193Y126836D02*
Y128411D01*
X111816Y64623D02*
X114571D01*
X113194Y63246D02*
Y66001D01*
X119042Y57093D02*
X121798D01*
X120420Y55716D02*
Y58471D01*
X118816Y72623D02*
X121572D01*
X120194Y71246D02*
Y74001D01*
X159406Y161624D02*
X160981D01*
X160194Y160836D02*
Y162411D01*
X159406Y169623D02*
X160981D01*
X160194Y168836D02*
Y170411D01*
X159406Y177623D02*
X160981D01*
X160194Y176836D02*
Y178411D01*
X154840Y182668D02*
X156415D01*
X155628Y181881D02*
Y183456D01*
X143840Y182668D02*
X145415D01*
X144627Y181881D02*
Y183456D01*
X137840Y182668D02*
X139415D01*
X138628Y181881D02*
Y183456D01*
X148840Y182668D02*
X150415D01*
X149627Y181881D02*
Y183456D01*
X162647Y92792D02*
X165402D01*
X164024Y91414D02*
Y94170D01*
X215168Y46151D02*
X217924D01*
X216546Y44773D02*
Y47529D01*
X53300Y46066D02*
X56056D01*
X54678Y44688D02*
Y47444D01*
M02*
