M48
;Layer_Color=9474304
;FILE_FORMAT=2:5
INCH,LZ
;TYPE=PLATED
T01F00S00C0.01181
T02F00S00C0.01200
T03F00S00C0.01575
T04F00S00C0.03543
T05F00S00C0.08661
%
T01
X0477Y0244
X04795Y0281
X04715Y02815
X0441Y0255
X03195Y0298
X03105
X03085Y0343
X031Y04065
X0318
X036Y0405
X0361Y03985
X0382Y03775
X03855Y03665
X03745
X039Y0356
X04115
X0416Y0366
X042699Y0366517
X04195Y03775
X04Y03895
X0396
X0434Y03995
X04665Y0348
X04775Y0351
X0477Y0388
X04735Y0406
X04825
X0523Y0371
X05235Y0357
X0531Y0328
T02
X0493031Y0341531
Y0345468
X0496968
Y0341531
T03
X04715Y0298
X03195Y0281
X031Y0389
T04
X03615Y02615
X03715
X03815
X03915
X04015
X04115
X0526Y0397
Y0407
Y0417
Y0427
T05
X05355Y02445
X02575
X0257Y0443
X05355
M30
