G04*
G04 #@! TF.GenerationSoftware,Altium Limited,Altium Designer,24.10.1 (45)*
G04*
G04 Layer_Physical_Order=4*
G04 Layer_Color=16711680*
%FSLAX25Y25*%
%MOIN*%
G70*
G04*
G04 #@! TF.SameCoordinates,D125F1F0-FD59-41E9-894A-6D37F1295767*
G04*
G04*
G04 #@! TF.FilePolarity,Positive*
G04*
G01*
G75*
%ADD79C,0.02756*%
%ADD80R,0.05906X0.05906*%
%ADD81C,0.05906*%
%ADD82C,0.11000*%
%ADD83C,0.04331*%
%ADD84C,0.07874*%
%ADD85C,0.05000*%
%ADD86C,0.02400*%
%ADD87C,0.23622*%
D79*
X187344Y159698D02*
D03*
X61670Y87497D02*
D03*
X95843Y158172D02*
D03*
X223670Y87497D02*
D03*
X173658Y149862D02*
D03*
X100594Y113248D02*
D03*
X101594Y97248D02*
D03*
X164594Y166248D02*
D03*
X177594Y175676D02*
D03*
X13886Y104624D02*
D03*
Y112623D02*
D03*
X101193Y128623D02*
D03*
X163194Y156623D02*
D03*
X66193Y101623D02*
D03*
X115193Y162624D02*
D03*
X67194Y111624D02*
D03*
X144193Y128623D02*
D03*
X186194Y85064D02*
D03*
X163194Y128623D02*
D03*
X151193Y127623D02*
D03*
X160194Y161624D02*
D03*
Y169623D02*
D03*
Y177623D02*
D03*
X155628Y182668D02*
D03*
X144627D02*
D03*
X138628D02*
D03*
X149627D02*
D03*
D80*
X182194Y204624D02*
D03*
X233594D02*
D03*
X197194Y12623D02*
D03*
D81*
X192193Y204624D02*
D03*
X202193D02*
D03*
X212193D02*
D03*
X222194D02*
D03*
X243594D02*
D03*
X187194Y12623D02*
D03*
D82*
X170595Y21437D02*
D03*
X150595D02*
D03*
D83*
X54779Y165310D02*
D03*
X216410Y165316D02*
D03*
X128781Y54590D02*
D03*
X122499Y80972D02*
D03*
X144904Y103621D02*
D03*
X131642Y116847D02*
D03*
X151255Y116813D02*
D03*
X174741Y106971D02*
D03*
X129200Y15470D02*
D03*
X157327Y44295D02*
D03*
X143493Y73349D02*
D03*
X149594Y83248D02*
D03*
X172594Y45248D02*
D03*
X171594Y78248D02*
D03*
X80194Y7802D02*
D03*
X16649Y95203D02*
D03*
X19044Y121624D02*
D03*
X113194Y64623D02*
D03*
X120420Y57093D02*
D03*
X120194Y72623D02*
D03*
X164024Y92792D02*
D03*
X216546Y46151D02*
D03*
X54678Y46066D02*
D03*
D84*
X91476Y17644D02*
D03*
X114999Y18089D02*
D03*
D85*
X116801Y188596D02*
D03*
X108825Y188524D02*
D03*
D86*
X134662Y85507D02*
D03*
Y81570D02*
D03*
X130726D02*
D03*
Y85507D02*
D03*
D87*
X250153Y158623D02*
G03*
X250153Y158623I-27559J0D01*
G01*
X88153Y52248D02*
G03*
X88153Y52248I-27559J0D01*
G01*
Y159248D02*
G03*
X88153Y159248I-27559J0D01*
G01*
X250153Y52248D02*
G03*
X250153Y52248I-27559J0D01*
G01*
M02*
