G04*
G04 #@! TF.GenerationSoftware,Altium Limited,Altium Designer,24.10.1 (45)*
G04*
G04 Layer_Color=2752767*
%FSLAX25Y25*%
%MOIN*%
G70*
G04*
G04 #@! TF.SameCoordinates,D125F1F0-FD59-41E9-894A-6D37F1295767*
G04*
G04*
G04 #@! TF.FilePolarity,Positive*
G04*
G01*
G75*
%ADD88C,0.00500*%
%ADD89C,0.00667*%
D88*
X185344Y159698D02*
X187344Y161698D01*
X189344Y159698D01*
X187344Y157698D01*
X185344Y159698D01*
X222594Y156623D02*
X220594Y160623D01*
X224594D01*
X222594Y156623D01*
X180193Y202624D02*
Y206624D01*
X184194D01*
Y202624D01*
X180193D01*
X190193D02*
Y206624D01*
X194193D01*
Y202624D01*
X190193D01*
X200194D02*
Y206624D01*
X204193D01*
Y202624D01*
X200194D01*
X210193D02*
Y206624D01*
X214194D01*
Y202624D01*
X210193D01*
X220194D02*
Y206624D01*
X224194D01*
Y202624D01*
X220194D01*
X241594D02*
Y206624D01*
X245594D01*
Y202624D01*
X241594D01*
X231594D02*
Y206624D01*
X235594D01*
Y202624D01*
X231594D01*
X195194Y10623D02*
Y14624D01*
X199194D01*
Y10623D01*
X195194D01*
X185194D02*
Y14624D01*
X189193D01*
Y10623D01*
X185194D01*
X275194Y197624D02*
X273194Y201624D01*
X277193D01*
X275194Y197624D01*
Y198424D02*
X273993Y200823D01*
X276394D01*
X275194Y198424D01*
X276193Y9623D02*
X274194Y13623D01*
X278193D01*
X276193Y9623D01*
Y10424D02*
X274993Y12823D01*
X277394D01*
X276193Y10424D01*
X9194Y8624D02*
X7193Y12623D01*
X11193D01*
X9194Y8624D01*
Y9424D02*
X7993Y11823D01*
X10394D01*
X9194Y9424D01*
X8194Y198624D02*
X6194Y202624D01*
X10193D01*
X8194Y198624D01*
Y199424D02*
X6994Y201823D01*
X9393D01*
X8194Y199424D01*
X59670Y87497D02*
X61670Y89497D01*
X63670Y87497D01*
X61670Y85497D01*
X59670Y87497D01*
X60594Y50248D02*
X58594Y54248D01*
X62594D01*
X60594Y50248D01*
Y157248D02*
X58594Y161248D01*
X62594D01*
X60594Y157248D01*
X93843Y158172D02*
X95843Y160172D01*
X97843Y158172D01*
X95843Y156172D01*
X93843Y158172D01*
X222594Y50248D02*
X220594Y54248D01*
X224594D01*
X222594Y50248D01*
X221670Y87497D02*
X223670Y89497D01*
X225670Y87497D01*
X223670Y85497D01*
X221670Y87497D01*
X171658Y149862D02*
X173658Y151862D01*
X175658Y149862D01*
X173658Y147862D01*
X171658Y149862D01*
X52779Y163310D02*
X53779D01*
X54779Y164310D01*
X55779Y163310D01*
X56779D01*
Y164310D01*
X55779Y165310D01*
X56779Y166310D01*
Y167310D01*
X55779D01*
X54779Y166310D01*
X53779Y167310D01*
X52779D01*
Y166310D01*
X53779Y165310D01*
X52779Y164310D01*
Y163310D01*
X91476Y15644D02*
X92476Y16644D01*
X93476D01*
X92476Y17644D01*
X93476Y18644D01*
X92476D01*
X91476Y19644D01*
X90476Y18644D01*
X89476D01*
X90476Y17644D01*
X89476Y16644D01*
X90476D01*
X91476Y15644D01*
X114999Y16089D02*
X115999Y17089D01*
X116999D01*
X115999Y18089D01*
X116999Y19089D01*
X115999D01*
X114999Y20089D01*
X113999Y19089D01*
X112999D01*
X113999Y18089D01*
X112999Y17089D01*
X113999D01*
X114999Y16089D01*
X214410Y163316D02*
X215410D01*
X216410Y164316D01*
X217410Y163316D01*
X218410D01*
Y164316D01*
X217410Y165316D01*
X218410Y166316D01*
Y167316D01*
X217410D01*
X216410Y166316D01*
X215410Y167316D01*
X214410D01*
Y166316D01*
X215410Y165316D01*
X214410Y164316D01*
Y163316D01*
X114801Y186597D02*
Y190596D01*
X118801D01*
Y186597D01*
X114801D01*
X115601Y187397D02*
Y189796D01*
X118001D01*
Y187397D01*
X115601D01*
X106825Y186524D02*
Y190524D01*
X110825D01*
Y186524D01*
X106825D01*
X107625Y187324D02*
Y189724D01*
X110025D01*
Y187324D01*
X107625D01*
X126781Y52590D02*
X127781D01*
X128781Y53590D01*
X129781Y52590D01*
X130781D01*
Y53590D01*
X129781Y54590D01*
X130781Y55590D01*
Y56590D01*
X129781D01*
X128781Y55590D01*
X127781Y56590D01*
X126781D01*
Y55590D01*
X127781Y54590D01*
X126781Y53590D01*
Y52590D01*
X120499Y78972D02*
X121499D01*
X122499Y79972D01*
X123499Y78972D01*
X124499D01*
Y79972D01*
X123499Y80972D01*
X124499Y81972D01*
Y82972D01*
X123499D01*
X122499Y81972D01*
X121499Y82972D01*
X120499D01*
Y81972D01*
X121499Y80972D01*
X120499Y79972D01*
Y78972D01*
X142903Y101621D02*
X143904D01*
X144904Y102621D01*
X145904Y101621D01*
X146904D01*
Y102621D01*
X145904Y103621D01*
X146904Y104621D01*
Y105621D01*
X145904D01*
X144904Y104621D01*
X143904Y105621D01*
X142903D01*
Y104621D01*
X143904Y103621D01*
X142903Y102621D01*
Y101621D01*
X129642Y114847D02*
X130642D01*
X131642Y115847D01*
X132642Y114847D01*
X133642D01*
Y115847D01*
X132642Y116847D01*
X133642Y117847D01*
Y118847D01*
X132642D01*
X131642Y117847D01*
X130642Y118847D01*
X129642D01*
Y117847D01*
X130642Y116847D01*
X129642Y115847D01*
Y114847D01*
X149255Y114813D02*
X150255D01*
X151255Y115813D01*
X152255Y114813D01*
X153255D01*
Y115813D01*
X152255Y116813D01*
X153255Y117813D01*
Y118813D01*
X152255D01*
X151255Y117813D01*
X150255Y118813D01*
X149255D01*
Y117813D01*
X150255Y116813D01*
X149255Y115813D01*
Y114813D01*
X172741Y104971D02*
X173741D01*
X174741Y105971D01*
X175741Y104971D01*
X176741D01*
Y105971D01*
X175741Y106971D01*
X176741Y107971D01*
Y108971D01*
X175741D01*
X174741Y107971D01*
X173741Y108971D01*
X172741D01*
Y107971D01*
X173741Y106971D01*
X172741Y105971D01*
Y104971D01*
X127200Y13470D02*
X128200D01*
X129200Y14470D01*
X130200Y13470D01*
X131200D01*
Y14470D01*
X130200Y15470D01*
X131200Y16470D01*
Y17470D01*
X130200D01*
X129200Y16470D01*
X128200Y17470D01*
X127200D01*
Y16470D01*
X128200Y15470D01*
X127200Y14470D01*
Y13470D01*
X155327Y42295D02*
X156327D01*
X157327Y43295D01*
X158327Y42295D01*
X159327D01*
Y43295D01*
X158327Y44295D01*
X159327Y45295D01*
Y46295D01*
X158327D01*
X157327Y45295D01*
X156327Y46295D01*
X155327D01*
Y45295D01*
X156327Y44295D01*
X155327Y43295D01*
Y42295D01*
X141493Y71350D02*
X142493D01*
X143493Y72350D01*
X144493Y71350D01*
X145493D01*
Y72350D01*
X144493Y73349D01*
X145493Y74349D01*
Y75349D01*
X144493D01*
X143493Y74349D01*
X142493Y75349D01*
X141493D01*
Y74349D01*
X142493Y73349D01*
X141493Y72350D01*
Y71350D01*
X147594Y81248D02*
X148594D01*
X149594Y82248D01*
X150594Y81248D01*
X151594D01*
Y82248D01*
X150594Y83248D01*
X151594Y84248D01*
Y85248D01*
X150594D01*
X149594Y84248D01*
X148594Y85248D01*
X147594D01*
Y84248D01*
X148594Y83248D01*
X147594Y82248D01*
Y81248D01*
X170594Y43248D02*
X171594D01*
X172594Y44248D01*
X173594Y43248D01*
X174594D01*
Y44248D01*
X173594Y45248D01*
X174594Y46248D01*
Y47248D01*
X173594D01*
X172594Y46248D01*
X171594Y47248D01*
X170594D01*
Y46248D01*
X171594Y45248D01*
X170594Y44248D01*
Y43248D01*
X169594Y76248D02*
X170594D01*
X171594Y77248D01*
X172594Y76248D01*
X173594D01*
Y77248D01*
X172594Y78248D01*
X173594Y79248D01*
Y80248D01*
X172594D01*
X171594Y79248D01*
X170594Y80248D01*
X169594D01*
Y79248D01*
X170594Y78248D01*
X169594Y77248D01*
Y76248D01*
X98594Y113248D02*
X100594Y115248D01*
X102594Y113248D01*
X100594Y111248D01*
X98594Y113248D01*
X99594Y97248D02*
X101594Y99248D01*
X103594Y97248D01*
X101594Y95248D01*
X99594Y97248D01*
X162594Y166248D02*
X164594Y168248D01*
X166594Y166248D01*
X164594Y164248D01*
X162594Y166248D01*
X175594Y173676D02*
X176594Y175676D01*
X175594Y177676D01*
X177594Y176676D01*
X179594Y177676D01*
X178594Y175676D01*
X179594Y173676D01*
X177594Y174676D01*
X175594Y173676D01*
X11886Y104624D02*
X13886Y106624D01*
X15886Y104624D01*
X13886Y102624D01*
X11886Y104624D01*
Y112623D02*
X13886Y114623D01*
X15886Y112623D01*
X13886Y110623D01*
X11886Y112623D01*
X133662Y84507D02*
Y83507D01*
X135662D01*
Y84507D01*
X136662D01*
Y86507D01*
X135662D01*
Y87507D01*
X133662D01*
Y86507D01*
X132662D01*
Y84507D01*
X133662D01*
Y80570D02*
Y79570D01*
X135662D01*
Y80570D01*
X136662D01*
Y82570D01*
X135662D01*
Y83570D01*
X133662D01*
Y82570D01*
X132662D01*
Y80570D01*
X133662D01*
X129726D02*
Y79570D01*
X131726D01*
Y80570D01*
X132726D01*
Y82570D01*
X131726D01*
Y83570D01*
X129726D01*
Y82570D01*
X128726D01*
Y80570D01*
X129726D01*
Y84507D02*
Y83507D01*
X131726D01*
Y84507D01*
X132726D01*
Y86507D01*
X131726D01*
Y87507D01*
X129726D01*
Y86507D01*
X128726D01*
Y84507D01*
X129726D01*
X78193Y5802D02*
X79194D01*
X80194Y6802D01*
X81194Y5802D01*
X82193D01*
Y6802D01*
X81194Y7802D01*
X82193Y8802D01*
Y9802D01*
X81194D01*
X80194Y8802D01*
X79194Y9802D01*
X78193D01*
Y8802D01*
X79194Y7802D01*
X78193Y6802D01*
Y5802D01*
X99194Y128623D02*
X101193Y130623D01*
X103193Y128623D01*
X101193Y126623D01*
X99194Y128623D01*
X161194Y156623D02*
X163194Y158624D01*
X165193Y156623D01*
X163194Y154623D01*
X161194Y156623D01*
X64193Y101623D02*
X66193Y103623D01*
X68194Y101623D01*
X66193Y99624D01*
X64193Y101623D01*
X113194Y162624D02*
X115193Y164623D01*
X117193Y162624D01*
X115193Y160624D01*
X113194Y162624D01*
X65193Y111624D02*
X67194Y113623D01*
X69194Y111624D01*
X67194Y109624D01*
X65193Y111624D01*
X14649Y93203D02*
X15649D01*
X16649Y94203D01*
X17649Y93203D01*
X18649D01*
Y94203D01*
X17649Y95203D01*
X18649Y96203D01*
Y97203D01*
X17649D01*
X16649Y96203D01*
X15649Y97203D01*
X14649D01*
Y96203D01*
X15649Y95203D01*
X14649Y94203D01*
Y93203D01*
X17043Y119623D02*
X18044D01*
X19044Y120624D01*
X20043Y119623D01*
X21044D01*
Y120624D01*
X20043Y121624D01*
X21044Y122624D01*
Y123624D01*
X20043D01*
X19044Y122624D01*
X18044Y123624D01*
X17043D01*
Y122624D01*
X18044Y121624D01*
X17043Y120624D01*
Y119623D01*
X142193Y128623D02*
X144193Y130623D01*
X146194Y128623D01*
X144193Y126623D01*
X142193Y128623D01*
X184194Y85064D02*
X186194Y87064D01*
X188194Y85064D01*
X186194Y83064D01*
X184194Y85064D01*
X161194Y128623D02*
X163194Y130623D01*
X165193Y128623D01*
X163194Y126623D01*
X161194Y128623D01*
X149194Y127623D02*
X151193Y129623D01*
X153193Y127623D01*
X151193Y125624D01*
X149194Y127623D01*
X111194Y62624D02*
X112194D01*
X113194Y63623D01*
X114193Y62624D01*
X115193D01*
Y63623D01*
X114193Y64623D01*
X115193Y65623D01*
Y66624D01*
X114193D01*
X113194Y65623D01*
X112194Y66624D01*
X111194D01*
Y65623D01*
X112194Y64623D01*
X111194Y63623D01*
Y62624D01*
X118420Y55093D02*
X119420D01*
X120420Y56093D01*
X121420Y55093D01*
X122420D01*
Y56093D01*
X121420Y57093D01*
X122420Y58093D01*
Y59093D01*
X121420D01*
X120420Y58093D01*
X119420Y59093D01*
X118420D01*
Y58093D01*
X119420Y57093D01*
X118420Y56093D01*
Y55093D01*
X118193Y70623D02*
X119193D01*
X120194Y71623D01*
X121194Y70623D01*
X122194D01*
Y71623D01*
X121194Y72623D01*
X122194Y73624D01*
Y74624D01*
X121194D01*
X120194Y73624D01*
X119193Y74624D01*
X118193D01*
Y73624D01*
X119193Y72623D01*
X118193Y71623D01*
Y70623D01*
X158194Y161624D02*
X160194Y163623D01*
X162194Y161624D01*
X160194Y159624D01*
X158194Y161624D01*
Y169623D02*
X160194Y171624D01*
X162194Y169623D01*
X160194Y167623D01*
X158194Y169623D01*
Y177623D02*
X160194Y179623D01*
X162194Y177623D01*
X160194Y175624D01*
X158194Y177623D01*
X153628Y182668D02*
X155628Y184668D01*
X157627Y182668D01*
X155628Y180668D01*
X153628Y182668D01*
X142628D02*
X144627Y184668D01*
X146627Y182668D01*
X144627Y180668D01*
X142628Y182668D01*
X136627D02*
X138628Y184668D01*
X140628Y182668D01*
X138628Y180668D01*
X136627Y182668D01*
X147627D02*
X149627Y184668D01*
X151628Y182668D01*
X149627Y180668D01*
X147627Y182668D01*
X162024Y90793D02*
X163024D01*
X164024Y91793D01*
X165024Y90793D01*
X166024D01*
Y91793D01*
X165024Y92792D01*
X166024Y93792D01*
Y94792D01*
X165024D01*
X164024Y93792D01*
X163024Y94792D01*
X162024D01*
Y93792D01*
X163024Y92792D01*
X162024Y91793D01*
Y90793D01*
X214546Y44151D02*
X215546D01*
X216546Y45151D01*
X217546Y44151D01*
X218546D01*
Y45151D01*
X217546Y46151D01*
X218546Y47151D01*
Y48151D01*
X217546D01*
X216546Y47151D01*
X215546Y48151D01*
X214546D01*
Y47151D01*
X215546Y46151D01*
X214546Y45151D01*
Y44151D01*
X52678Y44067D02*
X53678D01*
X54678Y45066D01*
X55678Y44067D01*
X56678D01*
Y45066D01*
X55678Y46066D01*
X56678Y47067D01*
Y48066D01*
X55678D01*
X54678Y47067D01*
X53678Y48066D01*
X52678D01*
Y47067D01*
X53678Y46066D01*
X52678Y45066D01*
Y44067D01*
D89*
X172595Y21437D02*
G03*
X172595Y21437I-2000J0D01*
G01*
X152595D02*
G03*
X152595Y21437I-2000J0D01*
G01*
M02*
