G04*
G04 #@! TF.GenerationSoftware,Altium Limited,Altium Designer,24.10.1 (45)*
G04*
G04 Layer_Color=8388736*
%FSLAX25Y25*%
%MOIN*%
G70*
G04*
G04 #@! TF.SameCoordinates,D125F1F0-FD59-41E9-894A-6D37F1295767*
G04*
G04*
G04 #@! TF.FilePolarity,Negative*
G04*
G01*
G75*
%ADD39R,0.03575X0.03802*%
%ADD40R,0.06102X0.06102*%
%ADD41R,0.03543X0.01969*%
%ADD42R,0.01969X0.03543*%
%ADD43R,0.03150X0.03150*%
%ADD44R,0.14179X0.05124*%
%ADD45R,0.12605X0.08274*%
%ADD46O,0.02762X0.07487*%
%ADD47R,0.09849X0.19691*%
%ADD48R,0.03550X0.03550*%
%ADD49R,0.03550X0.07093*%
%ADD50R,0.05906X0.08661*%
%ADD51R,0.08661X0.08661*%
%ADD52R,0.07087X0.05118*%
G04:AMPARAMS|DCode=53|XSize=98mil|YSize=128mil|CornerRadius=6.25mil|HoleSize=0mil|Usage=FLASHONLY|Rotation=0.000|XOffset=0mil|YOffset=0mil|HoleType=Round|Shape=RoundedRectangle|*
%AMROUNDEDRECTD53*
21,1,0.09800,0.11550,0,0,0.0*
21,1,0.08550,0.12800,0,0,0.0*
1,1,0.01250,0.04275,-0.05775*
1,1,0.01250,-0.04275,-0.05775*
1,1,0.01250,-0.04275,0.05775*
1,1,0.01250,0.04275,0.05775*
%
%ADD53ROUNDEDRECTD53*%
%ADD54R,0.03802X0.03575*%
%ADD55R,0.03550X0.03943*%
%ADD56R,0.03943X0.03550*%
%ADD57R,0.05124X0.14179*%
%ADD58C,0.03556*%
%ADD59R,0.06706X0.06706*%
%ADD60C,0.06706*%
%ADD61C,0.11800*%
%ADD62C,0.19685*%
%ADD63C,0.05131*%
%ADD64C,0.08674*%
%ADD65C,0.05800*%
%ADD66C,0.03200*%
D39*
X21605Y131491D02*
D03*
X15674D02*
D03*
X14801Y85657D02*
D03*
X20732D02*
D03*
D40*
X139623Y177153D02*
D03*
X147399D02*
D03*
X155175D02*
D03*
Y169377D02*
D03*
Y161601D02*
D03*
X147399D02*
D03*
X139623D02*
D03*
Y169377D02*
D03*
X147399D02*
D03*
D41*
X124171Y185125D02*
D03*
Y181975D02*
D03*
Y178826D02*
D03*
Y175676D02*
D03*
Y172527D02*
D03*
Y169377D02*
D03*
Y166227D02*
D03*
Y163078D02*
D03*
Y159928D02*
D03*
Y156779D02*
D03*
Y153629D02*
D03*
X170627D02*
D03*
Y156779D02*
D03*
Y159928D02*
D03*
Y163078D02*
D03*
Y166227D02*
D03*
Y169377D02*
D03*
Y172527D02*
D03*
Y175676D02*
D03*
Y178826D02*
D03*
Y181975D02*
D03*
Y185125D02*
D03*
D42*
X128501Y150086D02*
D03*
X131651D02*
D03*
X134801D02*
D03*
X137950D02*
D03*
X141100D02*
D03*
X144249D02*
D03*
X147399D02*
D03*
X150549D02*
D03*
X153698D02*
D03*
X156848D02*
D03*
X159997D02*
D03*
X163147D02*
D03*
X166297D02*
D03*
Y188668D02*
D03*
X163147D02*
D03*
X159997D02*
D03*
X156848D02*
D03*
X153698D02*
D03*
X150549D02*
D03*
X147399D02*
D03*
X144249D02*
D03*
X141100D02*
D03*
X137950D02*
D03*
X134801D02*
D03*
X131651D02*
D03*
X128501D02*
D03*
D43*
X170824Y188865D02*
D03*
Y149889D02*
D03*
X123974D02*
D03*
Y188865D02*
D03*
D44*
X170705Y87625D02*
D03*
X149682D02*
D03*
D45*
X132627Y83668D02*
D03*
D46*
X140193Y94454D02*
D03*
X135194D02*
D03*
X130193D02*
D03*
X125194D02*
D03*
X140193Y72623D02*
D03*
X135194D02*
D03*
X130193D02*
D03*
X125194D02*
D03*
D47*
X169280Y60248D02*
D03*
X149594D02*
D03*
D48*
X171033Y113263D02*
D03*
X171061Y106968D02*
D03*
D49*
X25736Y121624D02*
D03*
X12350D02*
D03*
X11989Y95624D02*
D03*
X25376D02*
D03*
D50*
X190927Y109542D02*
D03*
X181871D02*
D03*
D51*
X186399Y93794D02*
D03*
D52*
X222594Y153111D02*
D03*
Y165316D02*
D03*
X60598Y153176D02*
D03*
Y165381D02*
D03*
X222604Y46140D02*
D03*
Y58345D02*
D03*
X60632Y46116D02*
D03*
Y58321D02*
D03*
D53*
X106693Y17624D02*
D03*
X99694D02*
D03*
D54*
X131442Y107166D02*
D03*
Y113097D02*
D03*
X162856Y140001D02*
D03*
Y134070D02*
D03*
X150856D02*
D03*
Y140001D02*
D03*
X156856Y134070D02*
D03*
Y140001D02*
D03*
X132856Y134104D02*
D03*
Y140035D02*
D03*
X126856D02*
D03*
Y134104D02*
D03*
X144856Y140035D02*
D03*
Y134104D02*
D03*
X168856D02*
D03*
Y140035D02*
D03*
X138856Y134139D02*
D03*
Y140070D02*
D03*
X125442Y107166D02*
D03*
Y113097D02*
D03*
X164024D02*
D03*
Y107166D02*
D03*
X157253D02*
D03*
Y113097D02*
D03*
X151253D02*
D03*
Y107166D02*
D03*
X145020Y107185D02*
D03*
Y113117D02*
D03*
D55*
X161083Y44248D02*
D03*
X166594D02*
D03*
X21438Y104624D02*
D03*
X15927D02*
D03*
X21554Y112623D02*
D03*
X16044D02*
D03*
D56*
X136834Y58166D02*
D03*
Y63677D02*
D03*
X128834D02*
D03*
Y58166D02*
D03*
X108856Y178559D02*
D03*
Y184070D02*
D03*
X116856D02*
D03*
Y178559D02*
D03*
X137799Y107300D02*
D03*
Y112811D02*
D03*
X231594Y49737D02*
D03*
Y55248D02*
D03*
X231594Y162003D02*
D03*
Y156492D02*
D03*
X69594Y48737D02*
D03*
Y54248D02*
D03*
Y161759D02*
D03*
Y156248D02*
D03*
X118628Y80913D02*
D03*
Y86424D02*
D03*
D57*
X124595Y32460D02*
D03*
Y11437D02*
D03*
D58*
X187344Y159698D02*
D03*
X61670Y87497D02*
D03*
X95843Y158172D02*
D03*
X223670Y87497D02*
D03*
X173658Y149862D02*
D03*
X100594Y113248D02*
D03*
X101594Y97248D02*
D03*
X164594Y166248D02*
D03*
X177594Y175676D02*
D03*
X13886Y104624D02*
D03*
Y112623D02*
D03*
X101193Y128623D02*
D03*
X163194Y156623D02*
D03*
X66193Y101623D02*
D03*
X115193Y162624D02*
D03*
X67194Y111624D02*
D03*
X144193Y128623D02*
D03*
X186194Y85064D02*
D03*
X163194Y128623D02*
D03*
X151193Y127623D02*
D03*
X160194Y161624D02*
D03*
Y169623D02*
D03*
Y177623D02*
D03*
X155628Y182668D02*
D03*
X144627D02*
D03*
X138628D02*
D03*
X149627D02*
D03*
D59*
X182194Y204624D02*
D03*
X233594D02*
D03*
X197194Y12623D02*
D03*
D60*
X192193Y204624D02*
D03*
X202193D02*
D03*
X212193D02*
D03*
X222194D02*
D03*
X243594D02*
D03*
X187194Y12623D02*
D03*
D61*
X170595Y21437D02*
D03*
X150595D02*
D03*
D62*
X275194Y199624D02*
D03*
X276193Y11624D02*
D03*
X9194Y10623D02*
D03*
X8194Y200623D02*
D03*
D63*
X54779Y165310D02*
D03*
X216410Y165316D02*
D03*
X128781Y54590D02*
D03*
X122499Y80972D02*
D03*
X144904Y103621D02*
D03*
X131642Y116847D02*
D03*
X151255Y116813D02*
D03*
X174741Y106971D02*
D03*
X129200Y15470D02*
D03*
X157327Y44295D02*
D03*
X143493Y73349D02*
D03*
X149594Y83248D02*
D03*
X172594Y45248D02*
D03*
X171594Y78248D02*
D03*
X80194Y7802D02*
D03*
X16649Y95203D02*
D03*
X19044Y121624D02*
D03*
X113194Y64623D02*
D03*
X120420Y57093D02*
D03*
X120194Y72623D02*
D03*
X164024Y92792D02*
D03*
X216546Y46151D02*
D03*
X54678Y46066D02*
D03*
D64*
X91476Y17644D02*
D03*
X114999Y18089D02*
D03*
D65*
X116801Y188596D02*
D03*
X108825Y188524D02*
D03*
D66*
X134662Y85507D02*
D03*
Y81570D02*
D03*
X130726D02*
D03*
Y85507D02*
D03*
M02*
